<?xml version="1.0" encoding="UTF-8"?>
<!DOCTYPE svg PUBLIC "-//W3C//DTD SVG 1.1//EN" "http://www.w3.org/Graphics/SVG/1.1/DTD/svg11.dtd">
<svg xmlns="http://www.w3.org/2000/svg" version="1.1" width="289px" height="175px" style="shape-rendering:geometricPrecision; text-rendering:geometricPrecision; image-rendering:optimizeQuality; fill-rule:evenodd; clip-rule:evenodd" xmlns:xlink="http://www.w3.org/1999/xlink">
<g><path style="opacity:1" fill="#dbe0f0" d="M -0.5,-0.5 C 95.8333,-0.5 192.167,-0.5 288.5,-0.5C 288.5,57.8333 288.5,116.167 288.5,174.5C 192.167,174.5 95.8333,174.5 -0.5,174.5C -0.5,116.167 -0.5,57.8333 -0.5,-0.5 Z"/></g>
<g><path style="opacity:1" fill="#304684" d="M 44.5,57.5 C 53.1731,57.3336 61.8397,57.5002 70.5,58C 67.2546,61.733 64.2546,65.5663 61.5,69.5C 57.9537,70.8716 55.1204,73.205 53,76.5C 53.2578,79.4211 52.4245,82.2544 50.5,85C 49.5509,85.6172 48.7175,85.4506 48,84.5C 47.6667,82.8333 47.3333,81.1667 47,79.5C 46.8295,84.8642 46.3295,90.1975 45.5,95.5C 44.8333,83.6736 44.1667,72.0069 43.5,60.5C 43.5569,59.391 43.8902,58.391 44.5,57.5 Z"/></g>
<g><path style="opacity:1" fill="#f3f5fa" d="M 44.5,57.5 C 62.3286,56.338 80.3286,56.1713 98.5,57C 99.0253,57.6924 99.6919,58.1924 100.5,58.5C 101.666,70.4861 101.833,82.4861 101,94.5C 100.667,94.8333 100.333,95.1667 100,95.5C 99.0766,94.2412 98.2432,92.9079 97.5,91.5C 96.9955,94.3418 95.3289,95.6751 92.5,95.5C 92.5,98.1667 92.5,100.833 92.5,103.5C 91.1667,103.5 89.8333,103.5 88.5,103.5C 88.5,101.167 88.5,98.8333 88.5,96.5C 87.5,96.5 86.5,96.5 85.5,96.5C 83.9796,87.6067 81.6462,78.9401 78.5,70.5C 77.4667,63.5405 73.8,61.7072 67.5,65C 62.523,71.1355 58.1897,77.6355 54.5,84.5C 56.56,79.3797 58.8933,74.3797 61.5,69.5C 64.2546,65.5663 67.2546,61.733 70.5,58C 61.8397,57.5002 53.1731,57.3336 44.5,57.5 Z"/></g>
<g><path style="opacity:1" fill="#464855" d="M 190.5,79.5 C 188.631,77.3647 187.964,74.6981 188.5,71.5C 186.5,71.5 184.5,71.5 182.5,71.5C 182.5,72.5 182.5,73.5 182.5,74.5C 186.5,74.8333 186.5,75.1667 182.5,75.5C 182.762,76.9778 182.429,78.3112 181.5,79.5C 180.702,79.0431 180.369,78.3764 180.5,77.5C 180.5,75.1667 180.5,72.8333 180.5,70.5C 185.986,70.0307 189.319,70.364 190.5,71.5C 190.5,74.1667 190.5,76.8333 190.5,79.5 Z"/></g>
<g><path style="opacity:1" fill="#22262f" d="M 124.5,78.5 C 123.791,79.404 122.791,79.7373 121.5,79.5C 118.013,78.5554 116.68,76.2221 117.5,72.5C 119.813,71.6083 120.147,72.4416 118.5,75C 119.429,77.9088 121.429,79.0755 124.5,78.5 Z"/></g>
<g><path style="opacity:1" fill="#d8dae8" d="M 132.5,71.5 C 132.167,71.5 131.833,71.5 131.5,71.5C 130.432,70.5655 129.099,70.2322 127.5,70.5C 127.335,73.5184 127.502,76.5184 128,79.5C 128.251,75.1999 129.751,74.5332 132.5,77.5C 133.759,80.0182 135.093,79.8515 136.5,77C 137.793,76.51 139.127,76.3433 140.5,76.5C 140.371,74.7839 140.038,73.1172 139.5,71.5C 141.121,71.2131 142.121,70.2131 142.5,68.5C 141.513,64.6327 142.013,64.6327 144,68.5C 144.333,68.1667 144.667,67.8333 145,67.5C 145.689,68.3567 146.522,69.0233 147.5,69.5C 149.789,68.923 150.955,67.923 151,66.5C 152.5,67.5 154,68.5 155.5,69.5C 155,70.5 154.5,71.5 154,72.5C 153.722,71.5842 153.222,70.9175 152.5,70.5C 151.235,71.5145 150.569,73.0145 150.5,75C 151.075,80.585 151.742,80.7517 152.5,75.5C 154.167,75.5 155.833,75.5 157.5,75.5C 158.833,75.1667 158.833,74.8333 157.5,74.5C 155.833,74.5 154.167,74.5 152.5,74.5C 152.5,74.1667 152.5,73.8333 152.5,73.5C 153.833,73.5 155.167,73.5 156.5,73.5C 156.148,70.9272 156.648,68.5938 158,66.5C 159.062,67.8993 160.395,68.8993 162,69.5C 164.48,68.6074 166.98,67.6074 169.5,66.5C 172.555,69.6915 175.721,70.0248 179,67.5C 179.579,68.9285 179.412,70.2618 178.5,71.5C 175.498,69.8918 172.832,70.2251 170.5,72.5C 171.11,73.5051 171.776,73.3385 172.5,72C 176.348,71.0134 178.348,72.5134 178.5,76.5C 178.833,76.5 179.167,76.5 179.5,76.5C 179.5,77.1667 179.833,77.5 180.5,77.5C 180.369,78.3764 180.702,79.0431 181.5,79.5C 182.429,78.3112 182.762,76.9778 182.5,75.5C 186.5,75.1667 186.5,74.8333 182.5,74.5C 182.5,73.5 182.5,72.5 182.5,71.5C 184.5,71.5 186.5,71.5 188.5,71.5C 187.964,74.6981 188.631,77.3647 190.5,79.5C 191.151,78.9094 191.818,78.2427 192.5,77.5C 199.647,80.4043 206.813,83.071 214,85.5C 214.833,85.3333 215.667,85.1667 216.5,85C 213.518,84.0847 210.852,82.5847 208.5,80.5C 208.833,80.1667 209.167,79.8333 209.5,79.5C 210.833,80.5 212.167,81.5 213.5,82.5C 214.799,81.91 215.632,80.91 216,79.5C 216.436,82.2836 217.936,83.4502 220.5,83C 219.692,82.6924 219.025,82.1924 218.5,81.5C 219.698,81.0604 220.865,80.727 222,80.5C 222.973,82.3921 223.64,84.3921 224,86.5C 225.011,85.6634 226.178,85.33 227.5,85.5C 227.663,87.8568 227.497,90.1902 227,92.5C 225.708,91.2089 224.542,91.2089 223.5,92.5C 221.98,90.1098 220.98,87.4432 220.5,84.5C 219.325,84.281 218.325,84.6143 217.5,85.5C 215.087,91.6645 212.754,97.8312 210.5,104C 211.448,104.483 212.448,104.649 213.5,104.5C 213.5,105.5 213.5,106.5 213.5,107.5C 212.448,107.351 211.448,107.517 210.5,108C 211.888,108.889 211.722,109.389 210,109.5C 209.055,109.095 208.388,108.428 208,107.5C 203.197,108.812 198.364,108.812 193.5,107.5C 190.833,108.833 188.167,110.167 185.5,111.5C 183.283,110.232 181.283,108.732 179.5,107C 178.065,107.311 176.732,107.145 175.5,106.5C 175.167,106.833 174.833,107.167 174.5,107.5C 176.856,108.654 177.023,109.987 175,111.5C 173.806,110.57 172.473,109.903 171,109.5C 167.924,109.756 164.758,109.923 161.5,110C 162.833,110.333 164.167,110.667 165.5,111C 162.648,111.936 160.315,111.27 158.5,109C 159.376,107.415 160.709,106.415 162.5,106C 157.638,106.64 152.971,106.14 148.5,104.5C 147.099,101.366 145.432,98.3661 143.5,95.5C 148.365,92.3608 148.699,88.8608 144.5,85C 140.848,84.5014 137.182,84.3347 133.5,84.5C 133.5,91.1667 133.5,97.8333 133.5,104.5C 133.511,106.017 134.177,107.184 135.5,108C 134.451,108.492 133.451,108.326 132.5,107.5C 131.304,107.846 131.304,108.346 132.5,109C 130.48,111.052 128.813,110.885 127.5,108.5C 127.709,107.914 128.043,107.414 128.5,107C 123.542,106.971 118.876,106.138 114.5,104.5C 115.496,104.586 116.329,104.252 117,103.5C 117.116,99.9309 118.949,98.2642 122.5,98.5C 123.833,98.8333 125.167,99.1667 126.5,99.5C 127.248,101.332 128.248,102.999 129.5,104.5C 129.833,104 130.167,103.5 130.5,103C 127.993,96.9807 125.993,90.8141 124.5,84.5C 123.167,84.5 121.833,84.5 120.5,84.5C 120.062,84.5654 119.728,84.3988 119.5,84C 120.126,83.2496 120.626,82.4162 121,81.5C 121.423,82.9561 122.256,83.4561 123.5,83C 122.695,81.8873 122.028,80.7206 121.5,79.5C 122.791,79.7373 123.791,79.404 124.5,78.5C 121.429,79.0755 119.429,77.9088 118.5,75C 120.147,72.4416 119.813,71.6083 117.5,72.5C 116.699,70.9582 116.366,69.2915 116.5,67.5C 119.049,67.3874 121.382,68.0541 123.5,69.5C 123.833,69.1667 124.167,68.8333 124.5,68.5C 122.851,67.8524 121.518,66.8524 120.5,65.5C 122.851,63.7711 125.518,63.1044 128.5,63.5C 128.617,65.4835 127.95,67.1502 126.5,68.5C 126.833,68.8333 127.167,69.1667 127.5,69.5C 128.624,68.086 129.624,66.586 130.5,65C 131.167,64.3333 131.833,64.3333 132.5,65C 132.014,67.0266 132.014,69.1933 132.5,71.5 Z"/></g>
<g><path style="opacity:1" fill="#191a24" d="M 178.5,76.5 C 178.586,77.4959 178.252,78.3292 177.5,79C 175.833,79.6667 174.167,79.6667 172.5,79C 174.811,78.7641 176.811,77.9307 178.5,76.5 Z"/></g>
<g><path style="opacity:1" fill="#272731" d="M 167.5,78.5 C 166.292,79.782 164.958,79.782 163.5,78.5C 164.557,78.0941 165.891,78.0941 167.5,78.5 Z"/></g>
<g><path style="opacity:1" fill="#32333c" d="M 140.5,76.5 C 142.085,77.0024 142.585,78.0024 142,79.5C 140.961,78.7562 140.461,77.7562 140.5,76.5 Z"/></g>
<g><path style="opacity:1" fill="#535960" d="M 124.5,78.5 C 124.279,77.2652 123.612,76.2652 122.5,75.5C 123.325,74.6143 124.325,74.281 125.5,74.5C 125.768,76.099 125.434,77.4324 124.5,78.5 Z"/></g>
<g><path style="opacity:1" fill="#1c1d26" d="M 131.5,71.5 C 131.833,71.5 132.167,71.5 132.5,71.5C 131.62,73.6112 131.62,75.6112 132.5,77.5C 129.751,74.5332 128.251,75.1999 128,79.5C 127.502,76.5184 127.335,73.5184 127.5,70.5C 129.099,70.2322 130.432,70.5655 131.5,71.5 Z"/></g>
<g><path style="opacity:1" fill="#363742" d="M 167.5,78.5 C 166.611,76.264 165.278,74.264 163.5,72.5C 164.693,70.6163 166.359,70.1163 168.5,71C 164.827,71.8923 164.66,73.3923 168,75.5C 168.74,76.7494 168.573,77.7494 167.5,78.5 Z"/></g>
<g><path style="opacity:1" fill="#090914" d="M 152.5,75.5 C 151.167,75.1667 151.167,74.8333 152.5,74.5C 154.167,74.5 155.833,74.5 157.5,74.5C 158.833,74.8333 158.833,75.1667 157.5,75.5C 155.833,75.5 154.167,75.5 152.5,75.5 Z"/></g>
<g><path style="opacity:1" fill="#686976" d="M 152.5,70.5 C 152.5,71.5 152.5,72.5 152.5,73.5C 152.5,73.8333 152.5,74.1667 152.5,74.5C 151.167,74.8333 151.167,75.1667 152.5,75.5C 151.742,80.7517 151.075,80.585 150.5,75C 150.569,73.0145 151.235,71.5145 152.5,70.5 Z"/></g>
<g><path style="opacity:1" fill="#494a57" d="M 148.5,71.5 C 150.035,74.3298 149.035,75.6631 145.5,75.5C 145.762,76.9778 145.429,78.3112 144.5,79.5C 143.516,76.5719 143.183,73.5719 143.5,70.5C 145.415,70.2155 147.081,70.5489 148.5,71.5 Z"/></g>
<g><path style="opacity:1" fill="#d5d7e1" d="M 148.5,71.5 C 147.246,75.31 146.246,75.31 145.5,71.5C 146.5,71.5 147.5,71.5 148.5,71.5 Z"/></g>
<g><path style="opacity:1" fill="#252631" d="M 139.5,71.5 C 140.038,73.1172 140.371,74.7839 140.5,76.5C 139.127,76.3433 137.793,76.51 136.5,77C 135.093,79.8515 133.759,80.0182 132.5,77.5C 133.117,77.6107 133.617,77.944 134,78.5C 134.608,76.9336 135.442,75.6002 136.5,74.5C 136.146,71.5065 137.146,70.5065 139.5,71.5 Z"/></g>
<g><path style="opacity:1" fill="#cccdd9" d="M 136.5,74.5 C 137.222,74.0825 137.722,73.4158 138,72.5C 140.057,75.303 139.557,75.9697 136.5,74.5 Z"/></g>
<g><path style="opacity:1" fill="#cfd1de" d="M 131.5,71.5 C 130.246,75.31 129.246,75.31 128.5,71.5C 129.5,71.5 130.5,71.5 131.5,71.5 Z"/></g>
<g><path style="opacity:1" fill="#2f303d" d="M 178.5,71.5 C 179.301,73.0418 179.634,74.7085 179.5,76.5C 179.167,76.5 178.833,76.5 178.5,76.5C 178.348,72.5134 176.348,71.0134 172.5,72C 171.776,73.3385 171.11,73.5051 170.5,72.5C 172.832,70.2251 175.498,69.8918 178.5,71.5 Z"/></g>
<g><path style="opacity:1" fill="#1b1d25" d="M 155.5,84.5 C 160.137,83.4416 163.47,84.9416 165.5,89C 165.167,89.5 164.833,90 164.5,90.5C 161.682,86.114 158.182,85.4473 154,88.5C 151.81,93.0277 152.144,97.3611 155,101.5C 159.701,103.717 162.534,102.383 163.5,97.5C 164.675,97.281 165.675,97.6143 166.5,98.5C 163.453,104.649 158.953,105.982 153,102.5C 148.946,95.5659 149.78,89.5659 155.5,84.5 Z"/></g>
<g><path style="opacity:1" fill="#2e4272" d="M 43.5,60.5 C 44.1667,72.0069 44.8333,83.6736 45.5,95.5C 46.3295,90.1975 46.8295,84.8642 47,79.5C 47.3333,81.1667 47.6667,82.8333 48,84.5C 48.7175,85.4506 49.5509,85.6172 50.5,85C 52.4245,82.2544 53.2578,79.4211 53,76.5C 55.1204,73.205 57.9537,70.8716 61.5,69.5C 58.8933,74.3797 56.56,79.3797 54.5,84.5C 50.5032,91.1603 47.0032,98.1603 44,105.5C 43.5001,90.5037 43.3334,75.5037 43.5,60.5 Z"/></g>
<g><path style="opacity:1" fill="#7586ba" d="M 78.5,70.5 C 75.8045,70.933 73.6379,72.2663 72,74.5C 64.2271,86.3171 59.7271,99.3171 58.5,113.5C 53.8046,115.262 49.4713,114.762 45.5,112C 47.291,109.894 47.9577,107.394 47.5,104.5C 49.8403,97.8228 52.1736,91.1562 54.5,84.5C 58.1897,77.6355 62.523,71.1355 67.5,65C 73.8,61.7072 77.4667,63.5405 78.5,70.5 Z"/></g>
<g><path style="opacity:1" fill="#1e1f27" d="M 120.5,84.5 C 121.833,84.5 123.167,84.5 124.5,84.5C 125.993,90.8141 127.993,96.9807 130.5,103C 130.167,103.5 129.833,104 129.5,104.5C 128.248,102.999 127.248,101.332 126.5,99.5C 125.167,99.1667 123.833,98.8333 122.5,98.5C 118.949,98.2642 117.116,99.9309 117,103.5C 116.329,104.252 115.496,104.586 114.5,104.5C 116.703,97.8911 118.703,91.2244 120.5,84.5 Z"/></g>
<g><path style="opacity:1" fill="#cdced8" d="M 121.5,87.5 C 123.956,89.8177 125.289,92.8177 125.5,96.5C 123.396,96.7989 121.396,96.4656 119.5,95.5C 120.785,92.9795 121.452,90.3128 121.5,87.5 Z"/></g>
<g><path style="opacity:1" fill="#14151e" d="M 229.5,84.5 C 241.301,82.7251 245.801,87.7251 243,99.5C 242.215,101.286 241.049,102.786 239.5,104C 236.183,104.498 232.85,104.665 229.5,104.5C 229.5,97.8333 229.5,91.1667 229.5,84.5 Z"/></g>
<g><path style="opacity:1" fill="#1a1b22" d="M 148.5,104.5 C 147.325,104.719 146.325,104.386 145.5,103.5C 143.957,100.914 142.291,98.414 140.5,96C 138.866,95.5065 137.199,95.3398 135.5,95.5C 136.055,99.0122 135.388,102.012 133.5,104.5C 133.5,97.8333 133.5,91.1667 133.5,84.5C 137.182,84.3347 140.848,84.5014 144.5,85C 148.699,88.8608 148.365,92.3608 143.5,95.5C 145.432,98.3661 147.099,101.366 148.5,104.5 Z"/></g>
<g><path style="opacity:1" fill="#d4d7df" d="M 135.5,86.5 C 138.187,86.3359 140.854,86.5026 143.5,87C 144.833,89 144.833,91 143.5,93C 140.854,93.4974 138.187,93.6641 135.5,93.5C 135.5,91.1667 135.5,88.8333 135.5,86.5 Z"/></g>
<g><path style="opacity:1" fill="#1c1d26" d="M 223.5,92.5 C 224.093,95.9453 225.093,99.2787 226.5,102.5C 226.167,103.167 225.833,103.833 225.5,104.5C 223.914,102.827 223.247,100.827 223.5,98.5C 220.5,98.5 217.5,98.5 214.5,98.5C 214.167,100.5 213.833,102.5 213.5,104.5C 212.448,104.649 211.448,104.483 210.5,104C 212.754,97.8312 215.087,91.6645 217.5,85.5C 218.325,84.6143 219.325,84.281 220.5,84.5C 220.98,87.4432 221.98,90.1098 223.5,92.5 Z"/></g>
<g><path style="opacity:1" fill="#d2d2db" d="M 218.5,87.5 C 220.072,90.2154 221.072,93.2154 221.5,96.5C 219.396,96.7989 217.396,96.4656 215.5,95.5C 216.513,92.8122 217.513,90.1456 218.5,87.5 Z"/></g>
<g><path style="opacity:1" fill="#1a1b25" d="M 181.5,104.5 C 181.5,101.167 181.5,97.8333 181.5,94.5C 177.958,94.1872 174.625,94.5206 171.5,95.5C 171.817,98.5719 171.484,101.572 170.5,104.5C 169.167,97.8333 169.167,91.1667 170.5,84.5C 171.48,87.0865 171.813,89.7531 171.5,92.5C 174.833,92.5 178.167,92.5 181.5,92.5C 181.187,89.7531 181.52,87.0865 182.5,84.5C 182.833,87.8333 183.167,91.1667 183.5,94.5C 183.486,98.2386 182.82,101.572 181.5,104.5 Z"/></g>
<g><path style="opacity:1" fill="#32343e" d="M 187.5,84.5 C 188.5,84.5 189.5,84.5 190.5,84.5C 190.5,91.1667 190.5,97.8333 190.5,104.5C 189.5,104.5 188.5,104.5 187.5,104.5C 187.5,97.8333 187.5,91.1667 187.5,84.5 Z"/></g>
<g><path style="opacity:1" fill="#253669" d="M 78.5,70.5 C 81.6462,78.9401 83.9796,87.6067 85.5,96.5C 86.2751,101.484 86.9418,106.484 87.5,111.5C 87.5,112.833 87.5,114.167 87.5,115.5C 77.4422,116.14 67.7755,115.473 58.5,113.5C 59.7271,99.3171 64.2271,86.3171 72,74.5C 73.6379,72.2663 75.8045,70.933 78.5,70.5 Z"/></g>
<g><path style="opacity:1" fill="#858792" d="M 171.5,95.5 C 174.625,94.5206 177.958,94.1872 181.5,94.5C 181.5,97.8333 181.5,101.167 181.5,104.5C 180.523,101.713 180.19,98.7131 180.5,95.5C 177.5,95.5 174.5,95.5 171.5,95.5 Z"/></g>
<g><path style="opacity:1" fill="#d8d9e6" d="M 231.5,86.5 C 238.168,85.1782 241.502,87.8449 241.5,94.5C 241.404,100.909 238.071,103.576 231.5,102.5C 231.5,97.1667 231.5,91.8333 231.5,86.5 Z"/></g>
<g><path style="opacity:1" fill="#1d1f28" d="M 198.5,84.5 C 200.857,84.3367 203.19,84.5034 205.5,85C 207.776,86.0302 208.443,87.5302 207.5,89.5C 205.067,86.758 202.067,85.9246 198.5,87C 196.522,90.9331 196.022,95.0998 197,99.5C 198.864,102.207 201.364,103.041 204.5,102C 206.037,100.89 206.703,99.3904 206.5,97.5C 207.675,97.281 208.675,97.6143 209.5,98.5C 205.596,105.653 200.762,106.32 195,100.5C 194.333,96.5 194.333,92.5 195,88.5C 196.032,86.9733 197.199,85.64 198.5,84.5 Z"/></g>
<g><path style="opacity:1" fill="#7a84a3" d="M 47.5,104.5 C 47.9577,107.394 47.291,109.894 45.5,112C 49.4713,114.762 53.8046,115.262 58.5,113.5C 67.7755,115.473 77.4422,116.14 87.5,115.5C 87.5,114.167 87.5,112.833 87.5,111.5C 88.4511,112.919 88.7845,114.585 88.5,116.5C 73.3949,116.863 58.3949,116.196 43.5,114.5C 44.2667,110.851 45.6001,107.518 47.5,104.5 Z"/></g>
<g><path style="opacity:1" fill="#b8c0d1" d="M 43.5,114.5 C 58.3949,116.196 73.3949,116.863 88.5,116.5C 91.4781,117.305 94.4781,117.638 97.5,117.5C 99.1694,116.11 100.836,115.777 102.5,116.5C 101.624,117.251 100.624,117.751 99.5,118C 80.8333,118.667 62.1667,118.667 43.5,118C 42.3157,116.855 42.3157,115.688 43.5,114.5 Z"/></g>
</svg>
