<?xml version="1.0" encoding="UTF-8"?>
<!DOCTYPE svg PUBLIC "-//W3C//DTD SVG 1.1//EN" "http://www.w3.org/Graphics/SVG/1.1/DTD/svg11.dtd">
<svg xmlns="http://www.w3.org/2000/svg" version="1.1" width="287px" height="176px" style="shape-rendering:geometricPrecision; text-rendering:geometricPrecision; image-rendering:optimizeQuality; fill-rule:evenodd; clip-rule:evenodd" xmlns:xlink="http://www.w3.org/1999/xlink">
<g><path style="opacity:1" fill="#f5f5f5" d="M -0.5,-0.5 C 95.1667,-0.5 190.833,-0.5 286.5,-0.5C 286.5,58.1667 286.5,116.833 286.5,175.5C 190.833,175.5 95.1667,175.5 -0.5,175.5C -0.5,116.833 -0.5,58.1667 -0.5,-0.5 Z"/></g>
<g><path style="opacity:1" fill="#a4a4a4" d="M 283.5,14.5 C 283.167,14.5 282.833,14.5 282.5,14.5C 189.5,14.5 96.5,14.5 3.5,14.5C 3.5,66.5 3.5,118.5 3.5,170.5C 3.5,170.833 3.5,171.167 3.5,171.5C 2.50107,119.003 2.16774,66.336 2.5,13.5C 96.3348,13.1673 190.001,13.5006 283.5,14.5 Z"/></g>
<g><path style="opacity:1" fill="#f5f5f5" d="M 282.5,14.5 C 282.5,66.5 282.5,118.5 282.5,170.5C 189.5,170.5 96.5,170.5 3.5,170.5C 3.5,118.5 3.5,66.5 3.5,14.5C 96.5,14.5 189.5,14.5 282.5,14.5 Z"/></g>
<g><path style="opacity:1" fill="#302f2d" d="M 243.5,63.5 C 243.5,66.8333 243.5,70.1667 243.5,73.5C 241.5,73.5 239.5,73.5 237.5,73.5C 237.5,75.1667 237.5,76.8333 237.5,78.5C 233.629,78.815 229.962,78.4816 226.5,77.5C 229.898,77.8204 233.232,77.487 236.5,76.5C 236.035,74.1917 234.701,72.8584 232.5,72.5C 232.5,69.8333 232.5,67.1667 232.5,64.5C 236.119,63.7564 239.785,63.423 243.5,63.5 Z"/></g>
<g><path style="opacity:1" fill="#ac1914" d="M 221.5,72.5 C 221.461,73.5832 221.127,74.5832 220.5,75.5C 221.325,76.3857 222.325,76.719 223.5,76.5C 223.5,76.8333 223.5,77.1667 223.5,77.5C 217.729,78.1128 212.396,77.4461 207.5,75.5C 207.414,74.5041 207.748,73.6708 208.5,73C 212.821,72.501 217.154,72.3343 221.5,72.5 Z"/></g>
<g><path style="opacity:1" fill="#fd6d73" d="M 221.5,72.5 C 222.167,72.5 222.833,72.5 223.5,72.5C 226.358,73.166 229.358,73.8326 232.5,74.5C 232.291,75.086 231.957,75.586 231.5,76C 228.854,76.4974 226.187,76.6641 223.5,76.5C 222.325,76.719 221.325,76.3857 220.5,75.5C 221.127,74.5832 221.461,73.5832 221.5,72.5 Z"/></g>
<g><path style="opacity:1" fill="#de8082" d="M 223.5,72.5 C 226.5,72.5 229.5,72.5 232.5,72.5C 234.701,72.8584 236.035,74.1917 236.5,76.5C 233.232,77.487 229.898,77.8204 226.5,77.5C 225.5,77.5 224.5,77.5 223.5,77.5C 223.5,77.1667 223.5,76.8333 223.5,76.5C 226.187,76.6641 228.854,76.4974 231.5,76C 231.957,75.586 232.291,75.086 232.5,74.5C 229.358,73.8326 226.358,73.166 223.5,72.5 Z"/></g>
<g><path style="opacity:1" fill="#a8abaa" d="M 243.5,63.5 C 244.5,63.5 245.5,63.5 246.5,63.5C 246.5,67.1667 246.5,70.8333 246.5,74.5C 248.5,74.5 250.5,74.5 252.5,74.5C 252.5,76.1667 252.5,77.8333 252.5,79.5C 255.833,79.5 259.167,79.5 262.5,79.5C 262.5,80.8333 262.5,82.1667 262.5,83.5C 259.167,83.5 255.833,83.5 252.5,83.5C 253.167,87.5 251.5,89.1667 247.5,88.5C 247.254,94.5594 247.587,100.559 248.5,106.5C 247.521,109.625 247.187,112.958 247.5,116.5C 246.539,118.265 246.205,120.265 246.5,122.5C 245.5,122.5 244.5,122.5 243.5,122.5C 243.5,120.833 243.5,119.167 243.5,117.5C 243.5,107.5 243.5,97.5 243.5,87.5C 241.5,87.5 239.5,87.5 237.5,87.5C 237.5,85.8333 237.5,84.1667 237.5,82.5C 235.585,82.2155 233.919,82.5489 232.5,83.5C 225.543,82.6136 218.543,82.2803 211.5,82.5C 199.5,81.8333 187.5,81.1667 175.5,80.5C 180.833,80.5 186.167,80.5 191.5,80.5C 191.5,79.1667 191.5,77.8333 191.5,76.5C 195.363,76.4619 199.196,76.7952 203,77.5C 204.787,77.2414 206.287,76.5747 207.5,75.5C 212.396,77.4461 217.729,78.1128 223.5,77.5C 224.5,77.5 225.5,77.5 226.5,77.5C 229.962,78.4816 233.629,78.815 237.5,78.5C 237.5,76.8333 237.5,75.1667 237.5,73.5C 239.5,73.5 241.5,73.5 243.5,73.5C 243.5,70.1667 243.5,66.8333 243.5,63.5 Z"/></g>
<g><path style="opacity:1" fill="#2f2f2f" d="M 191.5,76.5 C 191.5,77.8333 191.5,79.1667 191.5,80.5C 186.167,80.5 180.833,80.5 175.5,80.5C 175.5,79.1667 175.5,77.8333 175.5,76.5C 180.833,76.5 186.167,76.5 191.5,76.5 Z"/></g>
<g><path style="opacity:1" fill="#343432" d="M 241.5,77.5 C 244.167,77.5 246.833,77.5 249.5,77.5C 249.5,79.8333 249.5,82.1667 249.5,84.5C 246.833,84.5 244.167,84.5 241.5,84.5C 241.5,82.1667 241.5,79.8333 241.5,77.5 Z"/></g>
<g><path style="opacity:1" fill="#aba8a8" d="M 243.5,78.5 C 244.833,78.5 246.167,78.5 247.5,78.5C 247.5,79.8333 247.5,81.1667 247.5,82.5C 246.167,82.5 244.833,82.5 243.5,82.5C 243.5,81.1667 243.5,79.8333 243.5,78.5 Z"/></g>
<g><path style="opacity:1" fill="#f99489" d="M 71.5,88.5 C 77.6446,87.5098 83.9779,87.1765 90.5,87.5C 90.7678,89.099 90.4345,90.4324 89.5,91.5C 89.5,90.5 89.5,89.5 89.5,88.5C 83.8333,88.5 78.1667,88.5 72.5,88.5C 72.1667,88.5 71.8333,88.5 71.5,88.5 Z"/></g>
<g><path style="opacity:1" fill="#de8f85" d="M 50.5,88.5 C 52.2646,87.5386 54.2646,87.2053 56.5,87.5C 56.5,93.1667 56.5,98.8333 56.5,104.5C 55.5119,99.3595 55.1786,94.0262 55.5,88.5C 53.8333,88.5 52.1667,88.5 50.5,88.5 Z"/></g>
<g><path style="opacity:1" fill="#ed6567" d="M 203.5,83.5 C 205.948,82.5269 208.615,82.1936 211.5,82.5C 218.543,82.2803 225.543,82.6136 232.5,83.5C 233.833,83.5 235.167,83.5 236.5,83.5C 236.5,85.5 236.5,87.5 236.5,89.5C 238.5,89.5 240.5,89.5 242.5,89.5C 242.826,98.3494 242.493,107.016 241.5,115.5C 241.83,108.8 241.497,102.134 240.5,95.5C 239.833,96.8333 239.167,98.1667 238.5,99.5C 233.621,99.3131 228.621,99.3131 223.5,99.5C 223.5,99.1667 223.5,98.8333 223.5,98.5C 226.85,98.665 230.183,98.4983 233.5,98C 231.962,94.4239 230.295,90.9239 228.5,87.5C 227.818,88.2427 227.151,88.9094 226.5,89.5C 226.5,88.5 226.5,87.5 226.5,86.5C 228.857,86.6633 231.19,86.4966 233.5,86C 230.761,84.2522 227.927,84.0856 225,85.5C 222.276,84.3132 219.443,83.6465 216.5,83.5C 212.167,83.5 207.833,83.5 203.5,83.5 Z"/></g>
<g><path style="opacity:1" fill="#f07471" d="M 63.5,88.5 C 65.2646,87.5386 67.2646,87.2053 69.5,87.5C 69.8235,94.0221 69.4902,100.355 68.5,106.5C 68.5,100.5 68.5,94.5 68.5,88.5C 66.8333,88.5 65.1667,88.5 63.5,88.5 Z"/></g>
<g><path style="opacity:1" fill="#555756" d="M 121.5,87.5 C 124.941,87.3011 128.274,87.8011 131.5,89C 132.444,91.7191 132.777,94.5525 132.5,97.5C 130.406,96.7578 128.239,96.0911 126,95.5C 120.295,97.1596 119.129,100.493 122.5,105.5C 126.124,107.035 129.291,106.368 132,103.5C 133.004,106.993 132.504,110.159 130.5,113C 126.5,113.667 122.5,113.667 118.5,113C 112.609,106.468 111.943,99.3011 116.5,91.5C 118.21,90.1128 119.877,88.7794 121.5,87.5 Z"/></g>
<g><path style="opacity:1" fill="#360f12" d="M 223.5,98.5 C 224.683,95.6185 225.683,92.6185 226.5,89.5C 227.151,88.9094 227.818,88.2427 228.5,87.5C 230.295,90.9239 231.962,94.4239 233.5,98C 230.183,98.4983 226.85,98.665 223.5,98.5 Z"/></g>
<g><path style="opacity:1" fill="#62624c" d="M 71.5,91.5 C 73.0418,92.3007 74.7085,92.634 76.5,92.5C 76.5,93.5 76.5,94.5 76.5,95.5C 74.5,95.5 72.5,95.5 70.5,95.5C 70.2322,93.901 70.5655,92.5676 71.5,91.5 Z"/></g>
<g><path style="opacity:1" fill="#655255" d="M 83.5,91.5 C 85.6119,92.2751 87.6119,92.2751 89.5,91.5C 89.2407,95.0681 87.2407,96.4015 83.5,95.5C 83.5,94.1667 83.5,92.8333 83.5,91.5 Z"/></g>
<g><path style="opacity:1" fill="#f44946" d="M 216.5,83.5 C 219.443,83.6465 222.276,84.3132 225,85.5C 227.927,84.0856 230.761,84.2522 233.5,86C 231.19,86.4966 228.857,86.6633 226.5,86.5C 226.5,87.5 226.5,88.5 226.5,89.5C 225.683,92.6185 224.683,95.6185 223.5,98.5C 223.5,98.8333 223.5,99.1667 223.5,99.5C 220.167,99.5 216.833,99.5 213.5,99.5C 213.5,98.1667 213.5,96.8333 213.5,95.5C 215.103,95.6882 216.437,95.1882 217.5,94C 215.846,93.3923 214.179,92.8923 212.5,92.5C 213.828,89.5029 215.161,86.5029 216.5,83.5 Z"/></g>
<g><path style="opacity:1" fill="#d03a3f" d="M 71.5,88.5 C 71.8333,88.5 72.1667,88.5 72.5,88.5C 74.2057,90.5358 76.539,91.5358 79.5,91.5C 78.6932,97.4638 78.3599,103.464 78.5,109.5C 77.8333,104.833 77.1667,100.167 76.5,95.5C 76.5,94.5 76.5,93.5 76.5,92.5C 74.7085,92.634 73.0418,92.3007 71.5,91.5C 71.5,90.5 71.5,89.5 71.5,88.5 Z"/></g>
<g><path style="opacity:1" fill="#67262e" d="M 232.5,83.5 C 233.919,82.5489 235.585,82.2155 237.5,82.5C 237.5,84.1667 237.5,85.8333 237.5,87.5C 239.5,87.5 241.5,87.5 243.5,87.5C 243.5,97.5 243.5,107.5 243.5,117.5C 242.167,117.5 240.833,117.5 239.5,117.5C 239.5,116.167 239.5,114.833 239.5,113.5C 240.167,114.167 240.833,114.833 241.5,115.5C 242.493,107.016 242.826,98.3494 242.5,89.5C 240.5,89.5 238.5,89.5 236.5,89.5C 236.5,87.5 236.5,85.5 236.5,83.5C 235.167,83.5 233.833,83.5 232.5,83.5 Z"/></g>
<g><path style="opacity:1" fill="#f81b1c" d="M 72.5,88.5 C 78.1667,88.5 83.8333,88.5 89.5,88.5C 89.5,89.5 89.5,90.5 89.5,91.5C 87.6119,92.2751 85.6119,92.2751 83.5,91.5C 82.8334,97.3465 82.1668,103.346 81.5,109.5C 80.914,109.291 80.414,108.957 80,108.5C 79.7216,109.416 79.2216,110.082 78.5,110.5C 78.5,110.167 78.5,109.833 78.5,109.5C 78.3599,103.464 78.6932,97.4638 79.5,91.5C 76.539,91.5358 74.2057,90.5358 72.5,88.5 Z"/></g>
<g><path style="opacity:1" fill="#f12f2b" d="M 47.5,105.5 C 47.5,107.167 47.5,108.833 47.5,110.5C 45.5853,110.784 43.9187,110.451 42.5,109.5C 42.5,108.167 42.5,106.833 42.5,105.5C 39.6146,105.194 36.9479,105.527 34.5,106.5C 33.3053,109.687 30.9719,111.353 27.5,111.5C 29.4082,103.673 31.9082,96.0066 35,88.5C 37.0408,87.5769 39.2075,87.2436 41.5,87.5C 42.3151,91.1441 43.1484,94.8107 44,98.5C 45.705,100.577 46.8717,102.91 47.5,105.5 Z"/></g>
<g><path style="opacity:1" fill="#8d5f5f" d="M 37.5,95.5 C 39.3079,96.9179 39.9746,98.9179 39.5,101.5C 38.1667,101.5 36.8333,101.5 35.5,101.5C 35.2525,99.1417 35.9192,97.1417 37.5,95.5 Z"/></g>
<g><path style="opacity:1" fill="#f23f3b" d="M 212.5,92.5 C 214.179,92.8923 215.846,93.3923 217.5,94C 216.437,95.1882 215.103,95.6882 213.5,95.5C 213.5,96.8333 213.5,98.1667 213.5,99.5C 216.833,99.5 220.167,99.5 223.5,99.5C 228.621,99.3131 233.621,99.3131 238.5,99.5C 239.167,98.1667 239.833,96.8333 240.5,95.5C 241.497,102.134 241.83,108.8 241.5,115.5C 240.833,114.833 240.167,114.167 239.5,113.5C 238.85,111.565 238.517,109.565 238.5,107.5C 234.833,107.5 231.167,107.5 227.5,107.5C 224.482,107.335 221.482,107.502 218.5,108C 217.771,110.058 216.771,111.891 215.5,113.5C 215.104,110.518 215.771,107.851 217.5,105.5C 216.68,103.889 215.346,103.222 213.5,103.5C 213.344,99.8649 212.178,99.5315 210,102.5C 209.517,101.552 209.351,100.552 209.5,99.5C 210.227,97.0462 211.227,94.7128 212.5,92.5 Z"/></g>
<g><path style="opacity:1" fill="#c0abac" d="M 50.5,88.5 C 50.2088,94.923 50.5422,101.256 51.5,107.5C 51.3915,109.514 52.0582,111.18 53.5,112.5C 51.5891,112.426 50.4224,111.426 50,109.5C 48.9914,111.025 48.4914,112.692 48.5,114.5C 46.4727,114.662 44.4727,114.495 42.5,114C 41.6198,112.644 41.2865,111.144 41.5,109.5C 41.8333,109.5 42.1667,109.5 42.5,109.5C 43.9187,110.451 45.5853,110.784 47.5,110.5C 47.5,108.833 47.5,107.167 47.5,105.5C 48.5727,99.844 49.5727,94.1774 50.5,88.5 Z"/></g>
<g><path style="opacity:1" fill="#dc4248" d="M 83.5,91.5 C 83.5,92.8333 83.5,94.1667 83.5,95.5C 83.5,100.833 83.5,106.167 83.5,111.5C 81.5853,111.784 79.9187,111.451 78.5,110.5C 79.2216,110.082 79.7216,109.416 80,108.5C 80.414,108.957 80.914,109.291 81.5,109.5C 82.1668,103.346 82.8334,97.3465 83.5,91.5 Z"/></g>
<g><path style="opacity:1" fill="#91322a" d="M 34.5,106.5 C 36.9479,105.527 39.6146,105.194 42.5,105.5C 42.5,106.833 42.5,108.167 42.5,109.5C 42.1667,109.5 41.8333,109.5 41.5,109.5C 41.5,108.5 41.5,107.5 41.5,106.5C 39.1667,106.5 36.8333,106.5 34.5,106.5 Z"/></g>
<g><path style="opacity:1" fill="#ed2827" d="M 50.5,88.5 C 52.1667,88.5 53.8333,88.5 55.5,88.5C 55.1786,94.0262 55.5119,99.3595 56.5,104.5C 58.54,107.134 60.7067,107.134 63,104.5C 63.4994,99.1771 63.666,93.8437 63.5,88.5C 65.1667,88.5 66.8333,88.5 68.5,88.5C 68.5,94.5 68.5,100.5 68.5,106.5C 68.5,107.167 68.1667,107.5 67.5,107.5C 62.1502,112.616 56.8169,112.616 51.5,107.5C 50.5422,101.256 50.2088,94.923 50.5,88.5 Z"/></g>
<g><path style="opacity:1" fill="#575858" d="M 140.5,88.5 C 142.924,88.1924 145.257,88.5258 147.5,89.5C 149.833,96.1667 152.167,102.833 154.5,109.5C 153.754,110.736 153.421,112.07 153.5,113.5C 150.712,113.923 148.712,112.923 147.5,110.5C 145.167,109.167 142.833,109.167 140.5,110.5C 138.937,113.029 136.604,114.029 133.5,113.5C 135.361,105.061 137.694,96.7273 140.5,88.5 Z"/></g>
<g><path style="opacity:1" fill="#f02a28" d="M 111.5,106.5 C 109.999,107.752 108.332,108.752 106.5,109.5C 100.083,111.23 94.7496,109.563 90.5,104.5C 89.8027,99.3909 90.8027,94.7242 93.5,90.5C 99.9274,86.0326 105.761,86.6993 111,92.5C 111.499,97.1548 111.666,101.821 111.5,106.5 Z"/></g>
<g><path style="opacity:1" fill="#ebe8e2" d="M 104.5,95.5 C 107.779,100.616 106.612,104.283 101,106.5C 98.8121,106.646 97.4788,105.646 97,103.5C 96.2967,101.071 96.4634,98.7375 97.5,96.5C 99.717,95.6314 102.05,95.298 104.5,95.5 Z"/></g>
<g><path style="opacity:1" fill="#67595b" d="M 104.5,95.5 C 102.05,95.298 99.717,95.6314 97.5,96.5C 98.038,94.8828 98.3713,93.2161 98.5,91.5C 101.554,91.354 103.554,92.6874 104.5,95.5 Z"/></g>
<g><path style="opacity:1" fill="#555656" d="M 156.5,88.5 C 161.959,88.1033 167.292,88.6033 172.5,90C 175.907,92.2453 177.24,95.4119 176.5,99.5C 176.908,105.521 174.574,110.021 169.5,113C 165.179,113.499 160.846,113.666 156.5,113.5C 156.5,105.167 156.5,96.8333 156.5,88.5 Z"/></g>
<g><path style="opacity:1" fill="#e7e9e8" d="M 162.5,95.5 C 165.308,95.6933 167.975,96.36 170.5,97.5C 171.323,103.675 168.656,106.675 162.5,106.5C 162.5,102.833 162.5,99.1667 162.5,95.5 Z"/></g>
<g><path style="opacity:1" fill="#843c35" d="M 90.5,104.5 C 94.7496,109.563 100.083,111.23 106.5,109.5C 102.304,112.013 97.9709,112.013 93.5,109.5C 91.5923,108.514 90.5923,106.848 90.5,104.5 Z"/></g>
<g><path style="opacity:1" fill="#625958" d="M 34.5,106.5 C 36.8333,106.5 39.1667,106.5 41.5,106.5C 41.5,107.5 41.5,108.5 41.5,109.5C 39.1432,109.337 36.8098,109.503 34.5,110C 32.6044,113.813 30.2711,114.313 27.5,111.5C 30.9719,111.353 33.3053,109.687 34.5,106.5 Z"/></g>
<g><path style="opacity:1" fill="#554840" d="M 51.5,107.5 C 56.8169,112.616 62.1502,112.616 67.5,107.5C 67.7589,110.48 66.4256,112.313 63.5,113C 59.9733,113.808 56.6399,113.641 53.5,112.5C 52.0582,111.18 51.3915,109.514 51.5,107.5 Z"/></g>
<g><path style="opacity:1" fill="#260907" d="M 227.5,107.5 C 231.167,107.5 234.833,107.5 238.5,107.5C 238.517,109.565 238.85,111.565 239.5,113.5C 239.5,114.833 239.5,116.167 239.5,117.5C 237.236,116.781 234.903,116.448 232.5,116.5C 230.076,113.992 228.41,110.992 227.5,107.5 Z"/></g>
<g><path style="opacity:1" fill="#545450" d="M 111.5,106.5 C 108.272,113.115 102.939,115.282 95.5,113C 94.0267,112.29 93.3601,111.124 93.5,109.5C 97.9709,112.013 102.304,112.013 106.5,109.5C 108.332,108.752 109.999,107.752 111.5,106.5 Z"/></g>
<g><path style="opacity:1" fill="#d64343" d="M 248.5,106.5 C 249.833,109.833 251.166,113.166 252.5,116.5C 250.833,116.5 249.167,116.5 247.5,116.5C 247.187,112.958 247.521,109.625 248.5,106.5 Z"/></g>
<g><path style="opacity:1" fill="#bf110d" d="M 203.5,83.5 C 207.833,83.5 212.167,83.5 216.5,83.5C 215.161,86.5029 213.828,89.5029 212.5,92.5C 211.227,94.7128 210.227,97.0462 209.5,99.5C 208.883,99.6107 208.383,99.944 208,100.5C 207.298,106.39 205.131,111.557 201.5,116C 202.623,117.044 203.956,117.71 205.5,118C 204.376,118.249 203.376,118.749 202.5,119.5C 205.651,120.092 208.651,120.426 211.5,120.5C 204.93,121.946 198.264,122.613 191.5,122.5C 189.095,121.232 186.428,120.565 183.5,120.5C 189.896,108.042 196.563,95.7089 203.5,83.5 Z"/></g>
<g><path style="opacity:1" fill="#f01211" d="M 209.5,99.5 C 209.351,100.552 209.517,101.552 210,102.5C 212.178,99.5315 213.344,99.8649 213.5,103.5C 215.346,103.222 216.68,103.889 217.5,105.5C 215.771,107.851 215.104,110.518 215.5,113.5C 215.167,114.833 214.833,116.167 214.5,117.5C 213.9,118.9 212.9,119.9 211.5,120.5C 208.651,120.426 205.651,120.092 202.5,119.5C 203.376,118.749 204.376,118.249 205.5,118C 203.956,117.71 202.623,117.044 201.5,116C 205.131,111.557 207.298,106.39 208,100.5C 208.383,99.944 208.883,99.6107 209.5,99.5 Z"/></g>
<g><path style="opacity:1" fill="#2c302e" d="M 232.5,116.5 C 234.903,116.448 237.236,116.781 239.5,117.5C 240.833,117.5 242.167,117.5 243.5,117.5C 243.5,119.167 243.5,120.833 243.5,122.5C 239.821,122.276 236.154,121.942 232.5,121.5C 232.5,119.833 232.5,118.167 232.5,116.5 Z"/></g>
<g><path style="opacity:1" fill="#f17e87" d="M 183.5,120.5 C 186.428,120.565 189.095,121.232 191.5,122.5C 190.508,122.328 189.842,122.662 189.5,123.5C 188.609,124.11 187.609,124.443 186.5,124.5C 185.5,123.167 184.5,121.833 183.5,120.5 Z"/></g>
<g><path style="opacity:1" fill="#f4f3f2" d="M 227.5,107.5 C 228.41,110.992 230.076,113.992 232.5,116.5C 232.5,118.167 232.5,119.833 232.5,121.5C 229.541,128.136 224.541,130.136 217.5,127.5C 215.369,124.554 214.369,121.221 214.5,117.5C 214.833,116.167 215.167,114.833 215.5,113.5C 216.771,111.891 217.771,110.058 218.5,108C 221.482,107.502 224.482,107.335 227.5,107.5 Z"/></g>
<g><path style="opacity:1" fill="#ecafb0" d="M 214.5,117.5 C 214.369,121.221 215.369,124.554 217.5,127.5C 216.325,127.719 215.325,127.386 214.5,126.5C 213.974,124.77 212.974,123.436 211.5,122.5C 211.167,122.833 210.833,123.167 210.5,123.5C 211.167,124.5 211.833,125.5 212.5,126.5C 206.162,127.754 199.829,127.754 193.5,126.5C 191.84,125.828 190.507,124.828 189.5,123.5C 189.842,122.662 190.508,122.328 191.5,122.5C 198.264,122.613 204.93,121.946 211.5,120.5C 212.9,119.9 213.9,118.9 214.5,117.5 Z"/></g>
<g><path style="opacity:1" fill="#ebd6d7" d="M 247.5,116.5 C 249.167,116.5 250.833,116.5 252.5,116.5C 248.454,119.464 248.787,121.131 253.5,121.5C 253.649,122.552 253.483,123.552 253,124.5C 250.667,126.167 248.667,128.167 247,130.5C 241.857,129.542 236.524,129.876 231,131.5C 230.586,131.043 230.086,130.709 229.5,130.5C 217.222,131.892 204.888,132.392 192.5,132C 191.62,130.644 191.286,129.144 191.5,127.5C 189.067,127.727 187.401,126.727 186.5,124.5C 187.609,124.443 188.609,124.11 189.5,123.5C 190.507,124.828 191.84,125.828 193.5,126.5C 199.829,127.754 206.162,127.754 212.5,126.5C 211.833,125.5 211.167,124.5 210.5,123.5C 210.833,123.167 211.167,122.833 211.5,122.5C 212.974,123.436 213.974,124.77 214.5,126.5C 215.325,127.386 216.325,127.719 217.5,127.5C 224.541,130.136 229.541,128.136 232.5,121.5C 236.154,121.942 239.821,122.276 243.5,122.5C 244.5,122.5 245.5,122.5 246.5,122.5C 246.205,120.265 246.539,118.265 247.5,116.5 Z"/></g>
<g><path style="opacity:1" fill="#c1c1c1" d="M 282.5,14.5 C 282.833,14.5 283.167,14.5 283.5,14.5C 283.5,66.8333 283.5,119.167 283.5,171.5C 190.167,171.5 96.8333,171.5 3.5,171.5C 3.5,171.167 3.5,170.833 3.5,170.5C 96.5,170.5 189.5,170.5 282.5,170.5C 282.5,118.5 282.5,66.5 282.5,14.5 Z"/></g>
</svg>
