<?xml version="1.0" encoding="UTF-8"?>
<!DOCTYPE svg PUBLIC "-//W3C//DTD SVG 1.1//EN" "http://www.w3.org/Graphics/SVG/1.1/DTD/svg11.dtd">
<svg xmlns="http://www.w3.org/2000/svg" version="1.1" width="359px" height="140px" style="shape-rendering:geometricPrecision; text-rendering:geometricPrecision; image-rendering:optimizeQuality; fill-rule:evenodd; clip-rule:evenodd" xmlns:xlink="http://www.w3.org/1999/xlink">
<g><path style="opacity:1" fill="#f2f2f2" d="M -0.5,-0.5 C 119.167,-0.5 238.833,-0.5 358.5,-0.5C 358.5,46.1667 358.5,92.8333 358.5,139.5C 238.833,139.5 119.167,139.5 -0.5,139.5C -0.5,131.833 -0.5,124.167 -0.5,116.5C 1.5,116.5 3.5,116.5 5.5,116.5C 5.5,114.5 5.5,112.5 5.5,110.5C 7.5,110.5 9.5,110.5 11.5,110.5C 11.5,108.5 11.5,106.5 11.5,104.5C 9.5,104.5 7.5,104.5 5.5,104.5C 5.5,102.5 5.5,100.5 5.5,98.5C 7.5,98.5 9.5,98.5 11.5,98.5C 11.5,96.5 11.5,94.5 11.5,92.5C 13.5542,92.3653 15.2209,93.032 16.5,94.5C 20.1545,94.9422 23.8212,95.2756 27.5,95.5C 27.5515,90.6221 28.3848,85.9555 30,81.5C 32.4426,83.3009 34.9426,84.9676 37.5,86.5C 36.791,87.404 35.791,87.7373 34.5,87.5C 34.5,89.1667 34.5,90.8333 34.5,92.5C 36.5,92.5 38.5,92.5 40.5,92.5C 40.5,94.5 40.5,96.5 40.5,98.5C 38.5,98.5 36.5,98.5 34.5,98.5C 34.5,100.5 34.5,102.5 34.5,104.5C 36.5,104.5 38.5,104.5 40.5,104.5C 40.5,106.5 40.5,108.5 40.5,110.5C 42.5,110.5 44.5,110.5 46.5,110.5C 46.5,108.5 46.5,106.5 46.5,104.5C 48.5,104.5 50.5,104.5 52.5,104.5C 52.5,102.5 52.5,100.5 52.5,98.5C 57.5,97.5 59.5,99.5 58.5,104.5C 60.1667,104.5 61.8333,104.5 63.5,104.5C 63.5,106.5 63.5,108.5 63.5,110.5C 65.5,110.5 67.5,110.5 69.5,110.5C 69.5,108.5 69.5,106.5 69.5,104.5C 71.5,104.5 73.5,104.5 75.5,104.5C 75.5,94.8333 75.5,85.1667 75.5,75.5C 77.5,75.5 79.5,75.5 81.5,75.5C 81.5,77.5 81.5,79.5 81.5,81.5C 83.5,81.5 85.5,81.5 87.5,81.5C 87.5,83.1667 87.5,84.8333 87.5,86.5C 89.1667,86.5 90.8333,86.5 92.5,86.5C 92.1832,90.7016 92.5166,94.7016 93.5,98.5C 94.5,98.5 95.5,98.5 96.5,98.5C 96.5,95.1667 96.5,91.8333 96.5,88.5C 100.851,87.533 103.185,89.1996 103.5,93.5C 102.472,93.9258 101.139,93.9258 99.5,93.5C 99.5,95.1667 99.5,96.8333 99.5,98.5C 101.167,98.5 102.833,98.5 104.5,98.5C 104.5,100.5 104.5,102.5 104.5,104.5C 102.833,104.5 101.167,104.5 99.5,104.5C 99.5,106.5 99.5,108.5 99.5,110.5C 101.167,110.5 102.833,110.5 104.5,110.5C 104.5,112.5 104.5,114.5 104.5,116.5C 106.5,116.5 108.5,116.5 110.5,116.5C 110.5,114.5 110.5,112.5 110.5,110.5C 112.5,110.5 114.5,110.5 116.5,110.5C 116.5,112.5 116.5,114.5 116.5,116.5C 118.5,116.5 120.5,116.5 122.5,116.5C 122.5,114.5 122.5,112.5 122.5,110.5C 124.5,110.5 126.5,110.5 128.5,110.5C 128.5,112.167 128.5,113.833 128.5,115.5C 130.167,115.5 131.833,115.5 133.5,115.5C 133.5,113.833 133.5,112.167 133.5,110.5C 135.5,110.5 137.5,110.5 139.5,110.5C 139.5,108.5 139.5,106.5 139.5,104.5C 137.833,104.5 136.167,104.5 134.5,104.5C 134.5,102.5 134.5,100.5 134.5,98.5C 135.5,98.5 136.5,98.5 137.5,98.5C 139.167,98.5 140.833,98.5 142.5,98.5C 144.668,90.8291 147.335,83.3291 150.5,76C 148.934,75.235 147.601,75.4017 146.5,76.5C 144.621,75.6586 142.621,75.3253 140.5,75.5C 140.5,73.5 140.5,71.5 140.5,69.5C 142.167,69.5 143.833,69.5 145.5,69.5C 145.5,67.5 145.5,65.5 145.5,63.5C 146.324,59.6877 146.824,55.6877 147,51.5C 148.356,52.3802 149.856,52.7135 151.5,52.5C 151.5,54.1667 151.5,55.8333 151.5,57.5C 152.5,57.5 153.5,57.5 154.5,57.5C 155.572,60.9008 157.905,62.9008 161.5,63.5C 163.075,65.1137 163.741,67.1137 163.5,69.5C 161.5,69.5 159.5,69.5 157.5,69.5C 157.5,71.1667 157.5,72.8333 157.5,74.5C 155.901,74.2322 154.568,74.5655 153.5,75.5C 153.5,83.1667 153.5,90.8333 153.5,98.5C 154.833,98.5 156.167,98.5 157.5,98.5C 157.5,90.8333 157.5,83.1667 157.5,75.5C 158.5,75.5 159.5,75.5 160.5,75.5C 160.5,76.5 160.5,77.5 160.5,78.5C 162.833,78.5 165.167,78.5 167.5,78.5C 167.5,85.1667 167.5,91.8333 167.5,98.5C 168.833,98.5 170.167,98.5 171.5,98.5C 172.5,98.5 173.5,98.5 174.5,98.5C 173.627,94.8789 172.961,91.2122 172.5,87.5C 173.5,87.5 174.5,87.5 175.5,87.5C 175.5,89.1667 175.5,90.8333 175.5,92.5C 177.167,92.5 178.833,92.5 180.5,92.5C 180.5,94.5 180.5,96.5 180.5,98.5C 182.5,98.5 184.5,98.5 186.5,98.5C 186.5,100.5 186.5,102.5 186.5,104.5C 188.5,104.5 190.5,104.5 192.5,104.5C 192.5,106.5 192.5,108.5 192.5,110.5C 194.5,110.5 196.5,110.5 198.5,110.5C 198.5,112.5 198.5,114.5 198.5,116.5C 200.5,116.5 202.5,116.5 204.5,116.5C 204.5,114.5 204.5,112.5 204.5,110.5C 206.5,110.5 208.5,110.5 210.5,110.5C 210.5,108.5 210.5,106.5 210.5,104.5C 208.5,104.5 206.5,104.5 204.5,104.5C 204.5,102.5 204.5,100.5 204.5,98.5C 205.833,98.5 207.167,98.5 208.5,98.5C 209.167,98.5 209.833,98.5 210.5,98.5C 211.5,98.5 212.5,98.5 213.5,98.5C 213.336,95.8127 213.503,93.146 214,90.5C 215.885,89.6867 216.551,88.3533 216,86.5C 214.293,87.1383 212.46,87.1383 210.5,86.5C 209.549,85.0813 209.216,83.4147 209.5,81.5C 207.833,81.5 206.167,81.5 204.5,81.5C 204.5,79.5 204.5,77.5 204.5,75.5C 206.5,75.5 208.5,75.5 210.5,75.5C 210.5,73.5 210.5,71.5 210.5,69.5C 212.167,69.5 213.833,69.5 215.5,69.5C 215.856,66.224 214.856,63.5573 212.5,61.5C 209.5,61.5 206.5,61.5 203.5,61.5C 203.5,58.5 203.5,55.5 203.5,52.5C 214.167,51.8333 214.167,51.1667 203.5,50.5C 203.5,47.8333 203.5,45.1667 203.5,42.5C 206.572,42.8174 209.572,42.4841 212.5,41.5C 208.893,40.5108 205.226,40.1774 201.5,40.5C 200.928,46.2122 199.595,51.8789 197.5,57.5C 196.702,57.0431 196.369,56.3764 196.5,55.5C 198.366,46.8739 195.033,41.8739 186.5,40.5C 186.5,34.5 186.5,28.5 186.5,22.5C 184.5,22.5 182.5,22.5 180.5,22.5C 180.5,26.5 180.5,30.5 180.5,34.5C 178.833,34.5 177.167,34.5 175.5,34.5C 175.5,30.5 175.5,26.5 175.5,22.5C 173.5,22.5 171.5,22.5 169.5,22.5C 169.5,24.5 169.5,26.5 169.5,28.5C 167.5,28.5 165.5,28.5 163.5,28.5C 163.5,30.5 163.5,32.5 163.5,34.5C 161.5,34.5 159.5,34.5 157.5,34.5C 157.5,36.5 157.5,38.5 157.5,40.5C 155.833,40.5 154.167,40.5 152.5,40.5C 147.36,39.5119 142.026,39.1786 136.5,39.5C 136.5,40.5 136.5,41.5 136.5,42.5C 137.873,42.3433 139.207,42.51 140.5,43C 139.088,44.7915 137.255,45.9582 135,46.5C 134.809,44.2922 134.309,42.2922 133.5,40.5C 131.705,46.0835 130.871,52.0835 131,58.5C 130.057,60.9544 128.224,61.9544 125.5,61.5C 122.185,62.0162 120.018,60.6829 119,57.5C 118.827,51.6518 118.327,45.9851 117.5,40.5C 116.539,42.2646 116.205,44.2646 116.5,46.5C 114.5,46.5 112.5,46.5 110.5,46.5C 110.5,44.5 110.5,42.5 110.5,40.5C 108.708,40.366 107.042,40.6993 105.5,41.5C 104.458,40.2089 103.292,40.2089 102,41.5C 100.59,45.2358 99.0902,48.9025 97.5,52.5C 96.2921,51.7659 94.9587,51.4326 93.5,51.5C 93.5,45.8333 93.5,40.1667 93.5,34.5C 91.5,34.5 89.5,34.5 87.5,34.5C 87.5,36.5 87.5,38.5 87.5,40.5C 85.5,40.5 83.5,40.5 81.5,40.5C 81.5,42.5 81.5,44.5 81.5,46.5C 79.5,46.5 77.5,46.5 75.5,46.5C 75.7989,44.396 75.4656,42.396 74.5,40.5C 73.5006,55.8189 73.1673,71.1522 73.5,86.5C 72.1667,86.5 70.8333,86.5 69.5,86.5C 69.5,84.8333 69.5,83.1667 69.5,81.5C 67.5,81.5 65.5,81.5 63.5,81.5C 63.5,79.5 63.5,77.5 63.5,75.5C 61.8333,75.5 60.1667,75.5 58.5,75.5C 58.5,77.1667 58.5,78.8333 58.5,80.5C 56.5,80.5 54.5,80.5 52.5,80.5C 52.5,78.8333 52.5,77.1667 52.5,75.5C 50.5,75.5 48.5,75.5 46.5,75.5C 44.8437,73.5398 43.177,71.5398 41.5,69.5C 41.5,69.1667 41.5,68.8333 41.5,68.5C 45.1974,67.9922 48.8641,67.3255 52.5,66.5C 52.849,62.9458 52.849,59.6125 52.5,56.5C 48.0036,51.8356 43.6703,47.0023 39.5,42C 37.8333,41.3333 36.1667,41.3333 34.5,42C 30.6582,44.0017 26.6582,45.5017 22.5,46.5C 20.5,46.5 18.5,46.5 16.5,46.5C 16.5,48.1667 16.5,49.8333 16.5,51.5C 14.8333,51.5 13.1667,51.5 11.5,51.5C 11.5,49.5 11.5,47.5 11.5,45.5C 13.1667,45.5 14.8333,45.5 16.5,45.5C 16.5,43.8333 16.5,42.1667 16.5,40.5C 14.8333,40.5 13.1667,40.5 11.5,40.5C 11.5,38.5 11.5,36.5 11.5,34.5C 9.5,34.5 7.5,34.5 5.5,34.5C 5.5,36.5 5.5,38.5 5.5,40.5C 3.5,40.5 1.5,40.5 -0.5,40.5C -0.5,26.8333 -0.5,13.1667 -0.5,-0.5 Z"/></g>
<g><path style="opacity:1" fill="#161617" d="M 152.5,40.5 C 150.393,41.4682 148.059,41.8016 145.5,41.5C 145.5,48.8333 145.5,56.1667 145.5,63.5C 143.537,56.5762 142.87,49.2428 143.5,41.5C 141.473,41.6621 139.473,41.4955 137.5,41C 142.489,40.5007 147.489,40.3341 152.5,40.5 Z"/></g>
<g><path style="opacity:1" fill="#181819" d="M 201.5,40.5 C 205.226,40.1774 208.893,40.5108 212.5,41.5C 209.572,42.4841 206.572,42.8174 203.5,42.5C 203.5,45.1667 203.5,47.8333 203.5,50.5C 214.167,51.1667 214.167,51.8333 203.5,52.5C 203.5,55.5 203.5,58.5 203.5,61.5C 206.5,61.5 209.5,61.5 212.5,61.5C 209.316,63.4136 205.649,64.0803 201.5,63.5C 201.5,55.8333 201.5,48.1667 201.5,40.5 Z"/></g>
<g><path style="opacity:1" fill="#e9e9e9" d="M 152.5,40.5 C 147.489,40.3341 142.489,40.5007 137.5,41C 139.473,41.4955 141.473,41.6621 143.5,41.5C 142.87,49.2428 143.537,56.5762 145.5,63.5C 145.5,65.5 145.5,67.5 145.5,69.5C 143.833,69.5 142.167,69.5 140.5,69.5C 140.5,71.5 140.5,73.5 140.5,75.5C 142.621,75.3253 144.621,75.6586 146.5,76.5C 144.439,82.5146 142.272,88.5146 140,94.5C 137.526,88.2434 135.359,81.9101 133.5,75.5C 132.022,75.238 130.689,75.5713 129.5,76.5C 132.374,83.7922 135.041,91.1255 137.5,98.5C 136.5,98.5 135.5,98.5 134.5,98.5C 134.5,100.5 134.5,102.5 134.5,104.5C 136.167,104.5 137.833,104.5 139.5,104.5C 139.5,106.5 139.5,108.5 139.5,110.5C 137.5,110.5 135.5,110.5 133.5,110.5C 133.5,112.167 133.5,113.833 133.5,115.5C 131.833,115.5 130.167,115.5 128.5,115.5C 128.5,113.833 128.5,112.167 128.5,110.5C 126.5,110.5 124.5,110.5 122.5,110.5C 122.5,108.5 122.5,106.5 122.5,104.5C 124.5,104.5 126.5,104.5 128.5,104.5C 128.5,102.5 128.5,100.5 128.5,98.5C 130.167,98.5 131.833,98.5 133.5,98.5C 133.5,96.8333 133.5,95.1667 133.5,93.5C 131.114,93.2587 129.114,93.9254 127.5,95.5C 124.167,95.5 120.833,95.5 117.5,95.5C 117.5,92.8333 117.5,90.1667 117.5,87.5C 129.5,86.8333 129.5,86.1667 117.5,85.5C 117.5,82.8333 117.5,80.1667 117.5,77.5C 120.572,77.8174 123.572,77.4841 126.5,76.5C 122.217,75.5078 117.884,75.1744 113.5,75.5C 116.287,74.5233 119.287,74.19 122.5,74.5C 122.5,72.8333 122.5,71.1667 122.5,69.5C 120.5,69.5 118.5,69.5 116.5,69.5C 116.975,66.9179 116.308,64.9179 114.5,63.5C 111.11,56.3325 108.11,48.9992 105.5,41.5C 107.042,40.6993 108.708,40.366 110.5,40.5C 110.5,42.5 110.5,44.5 110.5,46.5C 112.5,46.5 114.5,46.5 116.5,46.5C 116.205,44.2646 116.539,42.2646 117.5,40.5C 117.334,46.8421 117.5,53.1754 118,59.5C 119.529,62.516 122.029,63.8494 125.5,63.5C 129.177,63.6639 131.677,61.9972 133,58.5C 133.499,52.5092 133.666,46.5092 133.5,40.5C 134.309,42.2922 134.809,44.2922 135,46.5C 137.255,45.9582 139.088,44.7915 140.5,43C 139.207,42.51 137.873,42.3433 136.5,42.5C 136.5,41.5 136.5,40.5 136.5,39.5C 142.026,39.1786 147.36,39.5119 152.5,40.5 Z"/></g>
<g><path style="opacity:1" fill="#141415" d="M 117.5,40.5 C 118.327,45.9851 118.827,51.6518 119,57.5C 120.018,60.6829 122.185,62.0162 125.5,61.5C 128.224,61.9544 130.057,60.9544 131,58.5C 130.871,52.0835 131.705,46.0835 133.5,40.5C 133.666,46.5092 133.499,52.5092 133,58.5C 131.677,61.9972 129.177,63.6639 125.5,63.5C 122.029,63.8494 119.529,62.516 118,59.5C 117.5,53.1754 117.334,46.8421 117.5,40.5 Z"/></g>
<g><path style="opacity:1" fill="#949495" d="M 253.5,39.5 C 256.966,40.109 257.966,41.9423 256.5,45C 251.289,45.5464 250.289,43.713 253.5,39.5 Z"/></g>
<g><path style="opacity:1" fill="#07368f" d="M 52.5,56.5 C 52.849,59.6125 52.849,62.9458 52.5,66.5C 48.8641,67.3255 45.1974,67.9922 41.5,68.5C 41.5,68.8333 41.5,69.1667 41.5,69.5C 34.494,68.3766 30.494,71.2099 29.5,78C 30.6039,79.1313 30.2705,79.9646 28.5,80.5C 25.1112,78.4773 21.7779,76.4773 18.5,74.5C 19.9932,65.2263 21.3265,55.8929 22.5,46.5C 26.6582,45.5017 30.6582,44.0017 34.5,42C 36.1667,41.3333 37.8333,41.3333 39.5,42C 43.6703,47.0023 48.0036,51.8356 52.5,56.5 Z"/></g>
<g><path style="opacity:1" fill="#efeff0" d="M 22.5,46.5 C 21.3265,55.8929 19.9932,65.2263 18.5,74.5C 17.614,81.1409 16.9473,87.8076 16.5,94.5C 15.2209,93.032 13.5542,92.3653 11.5,92.5C 11.5,94.5 11.5,96.5 11.5,98.5C 9.5,98.5 7.5,98.5 5.5,98.5C 5.5,100.5 5.5,102.5 5.5,104.5C 7.5,104.5 9.5,104.5 11.5,104.5C 11.5,106.5 11.5,108.5 11.5,110.5C 9.5,110.5 7.5,110.5 5.5,110.5C 5.5,112.5 5.5,114.5 5.5,116.5C 3.5,116.5 1.5,116.5 -0.5,116.5C -0.5,91.1667 -0.5,65.8333 -0.5,40.5C 1.5,40.5 3.5,40.5 5.5,40.5C 5.5,38.5 5.5,36.5 5.5,34.5C 7.5,34.5 9.5,34.5 11.5,34.5C 11.5,36.5 11.5,38.5 11.5,40.5C 13.1667,40.5 14.8333,40.5 16.5,40.5C 16.5,42.1667 16.5,43.8333 16.5,45.5C 14.8333,45.5 13.1667,45.5 11.5,45.5C 11.5,47.5 11.5,49.5 11.5,51.5C 13.1667,51.5 14.8333,51.5 16.5,51.5C 16.5,49.8333 16.5,48.1667 16.5,46.5C 18.5,46.5 20.5,46.5 22.5,46.5 Z"/></g>
<g><path style="opacity:1" fill="#111112" d="M 105.5,41.5 C 108.11,48.9992 111.11,56.3325 114.5,63.5C 113.504,63.5858 112.671,63.2524 112,62.5C 111.528,57.1981 108.695,55.1981 103.5,56.5C 101.5,56.8333 99.5,57.1667 97.5,57.5C 96.4981,59.5101 95.4981,61.5101 94.5,63.5C 94.1667,63.1667 93.8333,62.8333 93.5,62.5C 95.0355,59.2225 96.3689,55.8891 97.5,52.5C 99.0902,48.9025 100.59,45.2358 102,41.5C 103.292,40.2089 104.458,40.2089 105.5,41.5 Z"/></g>
<g><path style="opacity:1" fill="#e1e2e2" d="M 103.5,42.5 C 105.964,46.4436 107.63,50.7769 108.5,55.5C 105.102,55.8204 101.768,55.487 98.5,54.5C 100.174,50.471 101.841,46.471 103.5,42.5 Z"/></g>
<g><path style="opacity:1" fill="#111111" d="M 234.5,40.5 C 236.25,43.3554 237.083,46.6887 237,50.5C 240.167,47.3333 243.333,44.1667 246.5,41C 247.167,40.3333 247.833,40.3333 248.5,41C 244.984,44.3486 241.651,47.8486 238.5,51.5C 241.984,55.4849 245.651,59.3182 249.5,63C 248.833,63.6667 248.167,63.6667 247.5,63C 244,59.5 240.5,56 237,52.5C 236.825,56.211 236.325,59.8776 235.5,63.5C 234.503,55.8622 234.169,48.1955 234.5,40.5 Z"/></g>
<g><path style="opacity:1" fill="#181818" d="M 219.5,40.5 C 222.572,40.1826 225.572,40.5159 228.5,41.5C 226.328,41.6759 223.995,41.8425 221.5,42C 219.604,43.8083 219.104,45.975 220,48.5C 222.846,50.2567 225.512,52.2567 228,54.5C 229.379,58.4755 228.213,61.3088 224.5,63C 221.773,63.8184 219.106,63.6517 216.5,62.5C 219.447,61.6786 222.447,61.1786 225.5,61C 226.833,58.6667 226.833,56.3333 225.5,54C 222.751,52.8773 220.251,51.3773 218,49.5C 217.068,46.1769 217.568,43.1769 219.5,40.5 Z"/></g>
<g><path style="opacity:1" fill="#0345b5" d="M 52.5,56.5 C 52.849,59.6125 52.849,62.9458 52.5,66.5C 48.8641,67.3255 45.1974,67.9922 41.5,68.5C 40.3338,63.503 40.3338,58.503 41.5,53.5C 45.1223,54.7081 48.789,55.7081 52.5,56.5 Z"/></g>
<g><path style="opacity:1" fill="#ededed" d="M 186.5,40.5 C 184.167,40.5 181.833,40.5 179.5,40.5C 179.5,48.1667 179.5,55.8333 179.5,63.5C 183.247,63.6076 186.914,63.1076 190.5,62C 193.442,60.5639 195.442,58.3972 196.5,55.5C 196.369,56.3764 196.702,57.0431 197.5,57.5C 199.595,51.8789 200.928,46.2122 201.5,40.5C 201.5,48.1667 201.5,55.8333 201.5,63.5C 205.649,64.0803 209.316,63.4136 212.5,61.5C 214.856,63.5573 215.856,66.224 215.5,69.5C 213.833,69.5 212.167,69.5 210.5,69.5C 210.5,71.5 210.5,73.5 210.5,75.5C 208.5,75.5 206.5,75.5 204.5,75.5C 204.5,77.5 204.5,79.5 204.5,81.5C 206.167,81.5 207.833,81.5 209.5,81.5C 209.216,83.4147 209.549,85.0813 210.5,86.5C 210.5,90.5 210.5,94.5 210.5,98.5C 209.833,98.5 209.167,98.5 208.5,98.5C 206.016,95.1523 206.016,91.8189 208.5,88.5C 207.147,87.4763 206.48,86.143 206.5,84.5C 205.5,84.5 204.5,84.5 203.5,84.5C 202.831,89.1755 203.164,93.8422 204.5,98.5C 204.5,100.5 204.5,102.5 204.5,104.5C 206.5,104.5 208.5,104.5 210.5,104.5C 210.5,106.5 210.5,108.5 210.5,110.5C 208.5,110.5 206.5,110.5 204.5,110.5C 204.5,112.5 204.5,114.5 204.5,116.5C 202.5,116.5 200.5,116.5 198.5,116.5C 198.5,114.5 198.5,112.5 198.5,110.5C 196.5,110.5 194.5,110.5 192.5,110.5C 192.5,108.5 192.5,106.5 192.5,104.5C 190.5,104.5 188.5,104.5 186.5,104.5C 186.5,102.5 186.5,100.5 186.5,98.5C 184.5,98.5 182.5,98.5 180.5,98.5C 180.5,96.5 180.5,94.5 180.5,92.5C 178.833,92.5 177.167,92.5 175.5,92.5C 175.5,90.8333 175.5,89.1667 175.5,87.5C 174.5,87.5 173.5,87.5 172.5,87.5C 172.961,91.2122 173.627,94.8789 174.5,98.5C 173.5,98.5 172.5,98.5 171.5,98.5C 171.5,91.8333 171.5,85.1667 171.5,78.5C 173.833,78.5 176.167,78.5 178.5,78.5C 178.5,77.5 178.5,76.5 178.5,75.5C 172.5,75.5 166.5,75.5 160.5,75.5C 159.5,75.5 158.5,75.5 157.5,75.5C 156.167,75.5 154.833,75.5 153.5,75.5C 154.568,74.5655 155.901,74.2322 157.5,74.5C 157.5,72.8333 157.5,71.1667 157.5,69.5C 159.5,69.5 161.5,69.5 163.5,69.5C 163.741,67.1137 163.075,65.1137 161.5,63.5C 171.596,63.0238 175.763,57.6905 174,47.5C 172.566,42.45 169.233,40.1166 164,40.5C 161.7,40.4944 159.534,40.9944 157.5,42C 153.874,46.6977 152.874,51.8644 154.5,57.5C 153.5,57.5 152.5,57.5 151.5,57.5C 151.5,55.8333 151.5,54.1667 151.5,52.5C 149.856,52.7135 148.356,52.3802 147,51.5C 146.824,55.6877 146.324,59.6877 145.5,63.5C 145.5,56.1667 145.5,48.8333 145.5,41.5C 148.059,41.8016 150.393,41.4682 152.5,40.5C 154.167,40.5 155.833,40.5 157.5,40.5C 157.5,38.5 157.5,36.5 157.5,34.5C 159.5,34.5 161.5,34.5 163.5,34.5C 163.5,32.5 163.5,30.5 163.5,28.5C 165.5,28.5 167.5,28.5 169.5,28.5C 169.5,26.5 169.5,24.5 169.5,22.5C 171.5,22.5 173.5,22.5 175.5,22.5C 175.5,26.5 175.5,30.5 175.5,34.5C 177.167,34.5 178.833,34.5 180.5,34.5C 180.5,30.5 180.5,26.5 180.5,22.5C 182.5,22.5 184.5,22.5 186.5,22.5C 186.5,28.5 186.5,34.5 186.5,40.5 Z"/></g>
<g><path style="opacity:1" fill="#1a1a1a" d="M 161.5,63.5 C 157.905,62.9008 155.572,60.9008 154.5,57.5C 152.874,51.8644 153.874,46.6977 157.5,42C 159.534,40.9944 161.7,40.4944 164,40.5C 169.233,40.1166 172.566,42.45 174,47.5C 175.763,57.6905 171.596,63.0238 161.5,63.5 Z"/></g>
<g><path style="opacity:1" fill="#ececec" d="M 161.5,41.5 C 166.919,40.9593 170.419,43.2926 172,48.5C 173.524,59.6509 169.024,63.4843 158.5,60C 153.84,52.7953 154.84,46.6287 161.5,41.5 Z"/></g>
<g><path style="opacity:1" fill="#191919" d="M 186.5,40.5 C 195.033,41.8739 198.366,46.8739 196.5,55.5C 195.442,58.3972 193.442,60.5639 190.5,62C 186.914,63.1076 183.247,63.6076 179.5,63.5C 179.5,55.8333 179.5,48.1667 179.5,40.5C 181.833,40.5 184.167,40.5 186.5,40.5 Z"/></g>
<g><path style="opacity:1" fill="#f5f5f5" d="M 181.5,42.5 C 191.659,41.1581 195.826,45.4914 194,55.5C 191.371,60.5639 187.204,62.5639 181.5,61.5C 181.5,55.1667 181.5,48.8333 181.5,42.5 Z"/></g>
<g><path style="opacity:1" fill="#ececec" d="M 284.5,87.5 C 283.334,89.166 283.334,90.8327 284.5,92.5C 286.541,93.2357 288.541,94.0691 290.5,95C 288.407,96.927 286.407,96.7603 284.5,94.5C 283.167,95.5 283.167,96.5 284.5,97.5C 287.16,98.7026 289.827,98.7026 292.5,97.5C 293.919,98.4511 295.585,98.7845 297.5,98.5C 297.5,100.5 297.5,102.5 297.5,104.5C 295.833,104.5 294.167,104.5 292.5,104.5C 292.5,106.5 292.5,108.5 292.5,110.5C 290.5,110.5 288.5,110.5 286.5,110.5C 286.5,108.5 286.5,106.5 286.5,104.5C 284.5,104.5 282.5,104.5 280.5,104.5C 280.5,106.5 280.5,108.5 280.5,110.5C 278.5,110.5 276.5,110.5 274.5,110.5C 274.5,108.5 274.5,106.5 274.5,104.5C 272.5,104.5 270.5,104.5 268.5,104.5C 268.105,100.815 267.938,97.1483 268,93.5C 268.333,94.8333 268.667,96.1667 269,97.5C 269.826,94.7884 269.326,92.4551 267.5,90.5C 268.984,89.5267 269.484,88.1933 269,86.5C 268.333,87.1667 267.667,87.8333 267,88.5C 266.29,87.0267 265.124,86.3601 263.5,86.5C 263.5,90.5 263.5,94.5 263.5,98.5C 262.51,92.69 262.177,86.69 262.5,80.5C 260.833,80.5 259.167,80.5 257.5,80.5C 257.5,78.8333 257.5,77.1667 257.5,75.5C 259.167,75.5 260.833,75.5 262.5,75.5C 262.5,73.5 262.5,71.5 262.5,69.5C 260.833,69.5 259.167,69.5 257.5,69.5C 257.5,67.5 257.5,65.5 257.5,63.5C 259.167,63.5 260.833,63.5 262.5,63.5C 262.5,61.5 262.5,59.5 262.5,57.5C 264.5,57.5 266.5,57.5 268.5,57.5C 268.5,55.8333 268.5,54.1667 268.5,52.5C 270.5,52.5 272.5,52.5 274.5,52.5C 274.5,54.1667 274.5,55.8333 274.5,57.5C 276.5,57.5 278.5,57.5 280.5,57.5C 280.5,59.5 280.5,61.5 280.5,63.5C 282.5,63.5 284.5,63.5 286.5,63.5C 286.5,65.5 286.5,67.5 286.5,69.5C 284.5,69.5 282.5,69.5 280.5,69.5C 280.5,71.5 280.5,73.5 280.5,75.5C 278.5,75.5 276.5,75.5 274.5,75.5C 274.5,77.5 274.5,79.5 274.5,81.5C 276.5,81.5 278.5,81.5 280.5,81.5C 280.5,83.1667 280.5,84.8333 280.5,86.5C 281.959,86.4326 283.292,86.7659 284.5,87.5 Z"/></g>
<g><path style="opacity:1" fill="#0f4abd" d="M 41.5,69.5 C 43.177,71.5398 44.8437,73.5398 46.5,75.5C 50.4764,80.4811 54.4764,85.4811 58.5,90.5C 57.5,92.5 56.5,94.5 55.5,96.5C 54.9984,97.521 54.3317,97.6877 53.5,97C 48.0137,93.6705 42.6804,90.1705 37.5,86.5C 34.9426,84.9676 32.4426,83.3009 30,81.5C 28.3848,85.9555 27.5515,90.6221 27.5,95.5C 23.8212,95.2756 20.1545,94.9422 16.5,94.5C 16.9473,87.8076 17.614,81.1409 18.5,74.5C 21.7779,76.4773 25.1112,78.4773 28.5,80.5C 30.2705,79.9646 30.6039,79.1313 29.5,78C 30.494,71.2099 34.494,68.3766 41.5,69.5 Z"/></g>
<g><path style="opacity:1" fill="#0d0d0e" d="M 113.5,75.5 C 117.884,75.1744 122.217,75.5078 126.5,76.5C 123.572,77.4841 120.572,77.8174 117.5,77.5C 117.5,80.1667 117.5,82.8333 117.5,85.5C 129.5,86.1667 129.5,86.8333 117.5,87.5C 117.5,90.1667 117.5,92.8333 117.5,95.5C 120.833,95.5 124.167,95.5 127.5,95.5C 127.5,96.5 127.5,97.5 127.5,98.5C 122.833,98.5 118.167,98.5 113.5,98.5C 113.5,90.8333 113.5,83.1667 113.5,75.5 Z"/></g>
<g><path style="opacity:1" fill="#0f0f10" d="M 146.5,76.5 C 147.601,75.4017 148.934,75.235 150.5,76C 147.335,83.3291 144.668,90.8291 142.5,98.5C 140.833,98.5 139.167,98.5 137.5,98.5C 135.041,91.1255 132.374,83.7922 129.5,76.5C 130.689,75.5713 132.022,75.238 133.5,75.5C 135.359,81.9101 137.526,88.2434 140,94.5C 142.272,88.5146 144.439,82.5146 146.5,76.5 Z"/></g>
<g><path style="opacity:1" fill="#121212" d="M 153.5,75.5 C 154.833,75.5 156.167,75.5 157.5,75.5C 157.5,83.1667 157.5,90.8333 157.5,98.5C 156.167,98.5 154.833,98.5 153.5,98.5C 153.5,90.8333 153.5,83.1667 153.5,75.5 Z"/></g>
<g><path style="opacity:1" fill="#141415" d="M 160.5,75.5 C 166.5,75.5 172.5,75.5 178.5,75.5C 178.5,76.5 178.5,77.5 178.5,78.5C 176.167,78.5 173.833,78.5 171.5,78.5C 171.5,85.1667 171.5,91.8333 171.5,98.5C 170.167,98.5 168.833,98.5 167.5,98.5C 167.5,91.8333 167.5,85.1667 167.5,78.5C 165.167,78.5 162.833,78.5 160.5,78.5C 160.5,77.5 160.5,76.5 160.5,75.5 Z"/></g>
<g><path style="opacity:1" fill="#919292" d="M 182.5,74.5 C 184.103,74.3118 185.437,74.8118 186.5,76C 186.056,77.5333 185.723,79.0333 185.5,80.5C 184.459,78.0087 183.626,78.0087 183,80.5C 181.2,78.6349 181.034,76.6349 182.5,74.5 Z"/></g>
<g><path style="opacity:1" fill="#e8e8e8" d="M 97.5,52.5 C 96.3689,55.8891 95.0355,59.2225 93.5,62.5C 93.8333,62.8333 94.1667,63.1667 94.5,63.5C 95.4981,61.5101 96.4981,59.5101 97.5,57.5C 99.5,57.1667 101.5,56.8333 103.5,56.5C 108.695,55.1981 111.528,57.1981 112,62.5C 112.671,63.2524 113.504,63.5858 114.5,63.5C 116.308,64.9179 116.975,66.9179 116.5,69.5C 118.5,69.5 120.5,69.5 122.5,69.5C 122.5,71.1667 122.5,72.8333 122.5,74.5C 119.287,74.19 116.287,74.5233 113.5,75.5C 113.5,83.1667 113.5,90.8333 113.5,98.5C 118.167,98.5 122.833,98.5 127.5,98.5C 127.5,97.5 127.5,96.5 127.5,95.5C 129.114,93.9254 131.114,93.2587 133.5,93.5C 133.5,95.1667 133.5,96.8333 133.5,98.5C 131.833,98.5 130.167,98.5 128.5,98.5C 128.5,100.5 128.5,102.5 128.5,104.5C 126.5,104.5 124.5,104.5 122.5,104.5C 122.5,106.5 122.5,108.5 122.5,110.5C 122.5,112.5 122.5,114.5 122.5,116.5C 120.5,116.5 118.5,116.5 116.5,116.5C 116.5,114.5 116.5,112.5 116.5,110.5C 114.5,110.5 112.5,110.5 110.5,110.5C 110.5,112.5 110.5,114.5 110.5,116.5C 108.5,116.5 106.5,116.5 104.5,116.5C 104.5,114.5 104.5,112.5 104.5,110.5C 102.833,110.5 101.167,110.5 99.5,110.5C 99.5,108.5 99.5,106.5 99.5,104.5C 101.167,104.5 102.833,104.5 104.5,104.5C 104.5,102.5 104.5,100.5 104.5,98.5C 102.833,98.5 101.167,98.5 99.5,98.5C 99.5,96.8333 99.5,95.1667 99.5,93.5C 101.139,93.9258 102.472,93.9258 103.5,93.5C 104.931,94.7804 105.598,96.4471 105.5,98.5C 106.978,98.762 108.311,98.4287 109.5,97.5C 108.383,93.4261 106.383,89.9261 103.5,87C 107.665,85.5169 109.165,82.6836 108,78.5C 106.829,77.1068 105.329,76.2735 103.5,76C 100.183,75.5017 96.8499,75.335 93.5,75.5C 93.5,83.1667 93.5,90.8333 93.5,98.5C 92.5166,94.7016 92.1832,90.7016 92.5,86.5C 90.8333,86.5 89.1667,86.5 87.5,86.5C 87.5,84.8333 87.5,83.1667 87.5,81.5C 85.5,81.5 83.5,81.5 81.5,81.5C 81.5,79.5 81.5,77.5 81.5,75.5C 79.5,75.5 77.5,75.5 75.5,75.5C 75.5,85.1667 75.5,94.8333 75.5,104.5C 73.5,104.5 71.5,104.5 69.5,104.5C 69.5,106.5 69.5,108.5 69.5,110.5C 67.5,110.5 65.5,110.5 63.5,110.5C 63.5,108.5 63.5,106.5 63.5,104.5C 61.8333,104.5 60.1667,104.5 58.5,104.5C 59.5,99.5 57.5,97.5 52.5,98.5C 52.5,100.5 52.5,102.5 52.5,104.5C 50.5,104.5 48.5,104.5 46.5,104.5C 46.5,106.5 46.5,108.5 46.5,110.5C 44.5,110.5 42.5,110.5 40.5,110.5C 40.5,108.5 40.5,106.5 40.5,104.5C 38.5,104.5 36.5,104.5 34.5,104.5C 34.5,102.5 34.5,100.5 34.5,98.5C 36.5,98.5 38.5,98.5 40.5,98.5C 40.5,96.5 40.5,94.5 40.5,92.5C 38.5,92.5 36.5,92.5 34.5,92.5C 34.5,90.8333 34.5,89.1667 34.5,87.5C 35.791,87.7373 36.791,87.404 37.5,86.5C 42.6804,90.1705 48.0137,93.6705 53.5,97C 54.3317,97.6877 54.9984,97.521 55.5,96.5C 56.5,94.5 57.5,92.5 58.5,90.5C 54.4764,85.4811 50.4764,80.4811 46.5,75.5C 48.5,75.5 50.5,75.5 52.5,75.5C 52.5,77.1667 52.5,78.8333 52.5,80.5C 54.5,80.5 56.5,80.5 58.5,80.5C 58.5,78.8333 58.5,77.1667 58.5,75.5C 60.1667,75.5 61.8333,75.5 63.5,75.5C 63.5,77.5 63.5,79.5 63.5,81.5C 65.5,81.5 67.5,81.5 69.5,81.5C 69.5,83.1667 69.5,84.8333 69.5,86.5C 70.8333,86.5 72.1667,86.5 73.5,86.5C 73.1673,71.1522 73.5006,55.8189 74.5,40.5C 75.4656,42.396 75.7989,44.396 75.5,46.5C 77.5,46.5 79.5,46.5 81.5,46.5C 81.5,44.5 81.5,42.5 81.5,40.5C 83.5,40.5 85.5,40.5 87.5,40.5C 87.5,38.5 87.5,36.5 87.5,34.5C 89.5,34.5 91.5,34.5 93.5,34.5C 93.5,40.1667 93.5,45.8333 93.5,51.5C 94.9587,51.4326 96.2921,51.7659 97.5,52.5 Z"/></g>
<g><path style="opacity:1" fill="#0b0b0b" d="M 103.5,93.5 C 103.185,89.1996 100.851,87.533 96.5,88.5C 96.5,91.8333 96.5,95.1667 96.5,98.5C 95.5,98.5 94.5,98.5 93.5,98.5C 93.5,90.8333 93.5,83.1667 93.5,75.5C 96.8499,75.335 100.183,75.5017 103.5,76C 105.329,76.2735 106.829,77.1068 108,78.5C 109.165,82.6836 107.665,85.5169 103.5,87C 106.383,89.9261 108.383,93.4261 109.5,97.5C 108.311,98.4287 106.978,98.762 105.5,98.5C 105.598,96.4471 104.931,94.7804 103.5,93.5 Z"/></g>
<g><path style="opacity:1" fill="#e5e5e5" d="M 96.5,77.5 C 100.367,76.7747 103.034,78.1081 104.5,81.5C 104.471,83.0293 103.804,84.196 102.5,85C 100.527,85.4955 98.5273,85.6621 96.5,85.5C 96.5,82.8333 96.5,80.1667 96.5,77.5 Z"/></g>
<g><path style="opacity:1" fill="#121213" d="M 191.5,82.5 C 195.455,81.9211 198.455,83.2544 200.5,86.5C 200,86.8333 199.5,87.1667 199,87.5C 197.632,86.2974 196.132,85.2974 194.5,84.5C 192.45,85.0766 191.45,86.4099 191.5,88.5C 194.238,88.8511 196.904,89.5178 199.5,90.5C 201.356,97.4747 198.689,99.9747 191.5,98C 190.667,97.1667 189.833,96.3333 189,95.5C 188.409,94.5165 188.743,93.8499 190,93.5C 191.667,94.5 193.333,95.5 195,96.5C 196.434,96.0696 197.601,95.2362 198.5,94C 195.675,92.1961 192.675,90.6961 189.5,89.5C 189.069,88.7065 188.735,87.8732 188.5,87C 189.315,85.3566 190.315,83.8566 191.5,82.5 Z"/></g>
<g><path style="opacity:1" fill="#141415" d="M 208.5,98.5 C 207.167,98.5 205.833,98.5 204.5,98.5C 203.164,93.8422 202.831,89.1755 203.5,84.5C 204.5,84.5 205.5,84.5 206.5,84.5C 206.48,86.143 207.147,87.4763 208.5,88.5C 206.016,91.8189 206.016,95.1523 208.5,98.5 Z"/></g>
<g><path style="opacity:1" fill="#1b1b1c" d="M 244.5,84.5 C 246.057,85.4663 247.39,86.7996 248.5,88.5C 245.833,91.5 245.833,94.5 248.5,97.5C 246.994,98.7472 245.494,98.7472 244,97.5C 243.744,94.443 243.244,91.443 242.5,88.5C 243.853,87.4763 244.52,86.143 244.5,84.5 Z"/></g>
<g><path style="opacity:1" fill="#151516" d="M 210.5,86.5 C 212.46,87.1383 214.293,87.1383 216,86.5C 216.551,88.3533 215.885,89.6867 214,90.5C 213.503,93.146 213.336,95.8127 213.5,98.5C 212.5,98.5 211.5,98.5 210.5,98.5C 210.5,94.5 210.5,90.5 210.5,86.5 Z"/></g>
<g><path style="opacity:1" fill="#111111" d="M 218.5,86.5 C 219.5,86.5 220.5,86.5 221.5,86.5C 221.5,89.5 221.5,92.5 221.5,95.5C 222.833,95.5 224.167,95.5 225.5,95.5C 225.5,92.5 225.5,89.5 225.5,86.5C 226.5,86.5 227.5,86.5 228.5,86.5C 228.5,90.5 228.5,94.5 228.5,98.5C 226.403,97.6469 224.403,97.6469 222.5,98.5C 220.971,98.4712 219.804,97.8045 219,96.5C 218.502,93.1832 218.335,89.8499 218.5,86.5 Z"/></g>
<g><path style="opacity:1" fill="#1a1a1a" d="M 234.5,86.5 C 237.792,86.1196 240.125,87.4529 241.5,90.5C 241,90.8333 240.5,91.1667 240,91.5C 238.403,90.1153 236.57,89.4486 234.5,89.5C 234.244,91.7925 234.577,93.9592 235.5,96C 237.345,95.2173 239.345,94.884 241.5,95C 234.065,100.834 230.898,99.0007 232,89.5C 232.698,88.3094 233.531,87.3094 234.5,86.5 Z"/></g>
<g><path style="opacity:1" fill="#0c0d0d" d="M 250.5,86.5 C 251.5,86.5 252.5,86.5 253.5,86.5C 253.335,89.5184 253.502,92.5184 254,95.5C 255,96.8333 256,96.8333 257,95.5C 257.498,92.5184 257.665,89.5184 257.5,86.5C 258.5,86.5 259.5,86.5 260.5,86.5C 260.5,90.5 260.5,94.5 260.5,98.5C 258.403,97.6469 256.403,97.6469 254.5,98.5C 252.971,98.4712 251.804,97.8045 251,96.5C 250.502,93.1832 250.335,89.8499 250.5,86.5 Z"/></g>
<g><path style="opacity:1" fill="#0d0e0e" d="M 267.5,90.5 C 266.527,92.9479 266.194,95.6146 266.5,98.5C 265.5,98.5 264.5,98.5 263.5,98.5C 263.5,94.5 263.5,90.5 263.5,86.5C 265.124,86.3601 266.29,87.0267 267,88.5C 267.667,87.8333 268.333,87.1667 269,86.5C 269.484,88.1933 268.984,89.5267 267.5,90.5 Z"/></g>
<g><path style="opacity:1" fill="#0f0f0f" d="M 274.5,86.5 C 279.212,86.5448 281.545,88.8781 281.5,93.5C 278.753,93.1866 276.086,93.52 273.5,94.5C 274.328,95.4147 275.328,96.0814 276.5,96.5C 280.172,94.9503 280.839,95.4503 278.5,98C 273.671,99.3377 271.338,97.5044 271.5,92.5C 271.073,89.6443 272.073,87.6443 274.5,86.5 Z"/></g>
<g><path style="opacity:1" fill="#171717" d="M 292.5,97.5 C 289.827,98.7026 287.16,98.7026 284.5,97.5C 283.167,96.5 283.167,95.5 284.5,94.5C 286.407,96.7603 288.407,96.927 290.5,95C 288.541,94.0691 286.541,93.2357 284.5,92.5C 283.334,90.8327 283.334,89.166 284.5,87.5C 287.17,86.1201 289.67,86.4535 292,88.5C 292.688,89.3317 292.521,89.9984 291.5,90.5C 290.032,88.6671 288.365,88.3338 286.5,89.5C 288.566,90.9063 290.732,92.2396 293,93.5C 293.579,94.9285 293.412,96.2618 292.5,97.5 Z"/></g>
<g><path style="opacity:1" fill="#e3e3e3" d="M 274.5,89.5 C 275.978,89.238 277.311,89.5713 278.5,90.5C 276.926,91.6309 275.259,91.7975 273.5,91C 274.056,90.6174 274.389,90.1174 274.5,89.5 Z"/></g>
</svg>
