<?xml version="1.0" encoding="UTF-8"?>
<!DOCTYPE svg PUBLIC "-//W3C//DTD SVG 1.1//EN" "http://www.w3.org/Graphics/SVG/1.1/DTD/svg11.dtd">
<svg xmlns="http://www.w3.org/2000/svg" version="1.1" width="360px" height="240px" style="shape-rendering:geometricPrecision; text-rendering:geometricPrecision; image-rendering:optimizeQuality; fill-rule:evenodd; clip-rule:evenodd" xmlns:xlink="http://www.w3.org/1999/xlink">
<g><path style="opacity:1" fill="#f5f5f5" d="M -0.5,-0.5 C 39.5,-0.5 79.5,-0.5 119.5,-0.5C 119.5,4.5 119.5,9.5 119.5,14.5C 119.5,19.5 119.5,24.5 119.5,29.5C 119.5,34.5 119.5,39.5 119.5,44.5C 124.167,44.5 128.833,44.5 133.5,44.5C 133.5,49.5 133.5,54.5 133.5,59.5C 128.833,59.5 124.167,59.5 119.5,59.5C 119.5,64.5 119.5,69.5 119.5,74.5C 124.167,74.5 128.833,74.5 133.5,74.5C 133.5,79.5 133.5,84.5 133.5,89.5C 128.833,89.5 124.167,89.5 119.5,89.5C 119.5,94.5 119.5,99.5 119.5,104.5C 124.167,104.5 128.833,104.5 133.5,104.5C 133.232,106.099 133.566,107.432 134.5,108.5C 134.5,112.167 134.5,115.833 134.5,119.5C 129.5,119.5 124.5,119.5 119.5,119.5C 119.66,121.199 119.494,122.866 119,124.5C 116.32,126.876 114.987,129.876 115,133.5C 111.606,134.456 108.106,134.789 104.5,134.5C 104.756,138.269 104.423,141.936 103.5,145.5C 100.904,144.735 98.2372,144.401 95.5,144.5C 93.623,143.375 91.7897,143.709 90,145.5C 89.5014,141.848 89.3347,138.182 89.5,134.5C 85.2811,135.086 81.6145,134.086 78.5,131.5C 77.8933,131.624 77.56,131.957 77.5,132.5C 76.5,132.5 75.5,132.5 74.5,132.5C 74.5,128.167 74.5,123.833 74.5,119.5C 69.5,119.5 64.5,119.5 59.5,119.5C 54.5,119.5 49.5,119.5 44.5,119.5C 39.5,119.5 34.5,119.5 29.5,119.5C 29.5,122.167 29.5,124.833 29.5,127.5C 25.7043,127.162 22.7043,127.495 20.5,128.5C 3.15478,135.193 -1.34522,146.859 7,163.5C 15.2938,171.937 24.7938,173.604 35.5,168.5C 36.7928,166.364 36.7928,164.364 35.5,162.5C 35.56,161.957 35.8933,161.624 36.5,161.5C 37.3078,163.423 37.8078,165.423 38,167.5C 38.4828,166.552 38.6495,165.552 38.5,164.5C 39.8333,164.5 41.1667,164.5 42.5,164.5C 43.1667,169.5 43.8333,174.5 44.5,179.5C 49.5,179.5 54.5,179.5 59.5,179.5C 59.5,180.833 59.5,182.167 59.5,183.5C 49.5,183.5 39.5,183.5 29.5,183.5C 24.6946,182.513 19.6946,182.179 14.5,182.5C 14.5,181.5 14.5,180.5 14.5,179.5C 9.5,179.5 4.5,179.5 -0.5,179.5C -0.5,119.5 -0.5,59.5 -0.5,-0.5 Z"/></g>
<g><path style="opacity:1" fill="#fafafa" d="M 119.5,-0.5 C 134.5,-0.5 149.5,-0.5 164.5,-0.5C 164.5,4.5 164.5,9.5 164.5,14.5C 160.119,14.3718 155.785,14.7051 151.5,15.5C 146.196,14.6161 140.863,13.9494 135.5,13.5C 134.681,16.3054 134.181,19.3054 134,22.5C 133.503,19.854 133.336,17.1873 133.5,14.5C 128.833,14.5 124.167,14.5 119.5,14.5C 119.5,9.5 119.5,4.5 119.5,-0.5 Z"/></g>
<g><path style="opacity:1" fill="#0a0b0b" d="M 135.5,13.5 C 140.863,13.9494 146.196,14.6161 151.5,15.5C 161.65,18.0671 171.317,22.0671 180.5,27.5C 193.124,35.7901 203.79,46.1235 212.5,58.5C 219.856,71.9025 224.189,86.2358 225.5,101.5C 225.497,104.025 225.163,106.359 224.5,108.5C 222.5,108.5 220.5,108.5 218.5,108.5C 217.74,95.5912 214.74,83.2579 209.5,71.5C 201.141,51.8078 187.141,37.8078 167.5,29.5C 163.784,27.5947 159.784,26.2613 155.5,25.5C 149.127,23.3444 142.461,22.0111 135.5,21.5C 135.5,18.8333 135.5,16.1667 135.5,13.5 Z"/></g>
<g><path style="opacity:1" fill="#f6f6f6" d="M 164.5,-0.5 C 229.5,-0.5 294.5,-0.5 359.5,-0.5C 359.5,44.5 359.5,89.5 359.5,134.5C 357.259,134.046 355.259,134.046 353.5,134.5C 352.391,134.557 351.391,134.89 350.5,135.5C 348.735,134.539 346.735,134.205 344.5,134.5C 344.5,129.5 344.5,124.5 344.5,119.5C 339.5,119.5 334.5,119.5 329.5,119.5C 329.5,124.5 329.5,129.5 329.5,134.5C 324.5,134.5 319.5,134.5 314.5,134.5C 314.5,139.5 314.5,144.5 314.5,149.5C 312.533,149.739 310.699,149.406 309,148.5C 308.536,149.094 308.369,149.761 308.5,150.5C 306.766,147.8 304.432,145.8 301.5,144.5C 302.239,144.631 302.906,144.464 303.5,144C 302.234,143.691 301.067,143.191 300,142.5C 299.503,139.854 299.336,137.187 299.5,134.5C 294.5,134.5 289.5,134.5 284.5,134.5C 284.5,129.5 284.5,124.5 284.5,119.5C 279.5,119.5 274.5,119.5 269.5,119.5C 269.5,114.5 269.5,109.5 269.5,104.5C 264.5,104.5 259.5,104.5 254.5,104.5C 254.5,99.5 254.5,94.5 254.5,89.5C 249.5,89.5 244.5,89.5 239.5,89.5C 239.5,84.5 239.5,79.5 239.5,74.5C 234.5,74.5 229.5,74.5 224.5,74.5C 224.5,69.5 224.5,64.5 224.5,59.5C 224.5,54.5 224.5,49.5 224.5,44.5C 219.5,44.5 214.5,44.5 209.5,44.5C 209.5,39.5 209.5,34.5 209.5,29.5C 204.5,29.5 199.5,29.5 194.5,29.5C 194.5,24.5 194.5,19.5 194.5,14.5C 189.5,14.5 184.5,14.5 179.5,14.5C 179.335,18.1817 179.501,21.8484 180,25.5C 182.665,26.474 182.831,27.1407 180.5,27.5C 171.317,22.0671 161.65,18.0671 151.5,15.5C 155.785,14.7051 160.119,14.3718 164.5,14.5C 164.5,9.5 164.5,4.5 164.5,-0.5 Z"/></g>
<g><path style="opacity:1" fill="#eaebe9" d="M 135.5,13.5 C 135.5,16.1667 135.5,18.8333 135.5,21.5C 142.461,22.0111 149.127,23.3444 155.5,25.5C 156.848,27.2177 159.182,28.3844 162.5,29C 158.179,29.499 153.846,29.6657 149.5,29.5C 149.5,34.5 149.5,39.5 149.5,44.5C 147.5,44.5 145.5,44.5 143.5,44.5C 143.83,64.6736 143.497,84.6736 142.5,104.5C 142.5,77.8333 142.5,51.1667 142.5,24.5C 140.167,24.5 137.833,24.5 135.5,24.5C 135.5,52.5 135.5,80.5 135.5,108.5C 135.167,108.5 134.833,108.5 134.5,108.5C 134.667,81.8313 134.5,55.1646 134,28.5C 129.263,29.4692 124.43,29.8025 119.5,29.5C 119.5,24.5 119.5,19.5 119.5,14.5C 124.167,14.5 128.833,14.5 133.5,14.5C 133.336,17.1873 133.503,19.854 134,22.5C 134.181,19.3054 134.681,16.3054 135.5,13.5 Z"/></g>
<g><path style="opacity:1" fill="#9dc339" d="M 142.5,104.5 C 142.5,105.833 142.5,107.167 142.5,108.5C 140.167,108.5 137.833,108.5 135.5,108.5C 135.5,80.5 135.5,52.5 135.5,24.5C 137.833,24.5 140.167,24.5 142.5,24.5C 142.5,51.1667 142.5,77.8333 142.5,104.5 Z"/></g>
<g><path style="opacity:1" fill="#eeeeee" d="M 167.5,29.5 C 187.141,37.8078 201.141,51.8078 209.5,71.5C 208.226,72.1894 208.226,73.0228 209.5,74C 204.511,74.4993 199.511,74.6659 194.5,74.5C 194.5,69.5 194.5,64.5 194.5,59.5C 189.5,59.5 184.5,59.5 179.5,59.5C 179.5,54.5 179.5,49.5 179.5,44.5C 174.5,44.5 169.5,44.5 164.5,44.5C 164.5,39.5 164.5,34.5 164.5,29.5C 165.5,29.5 166.5,29.5 167.5,29.5 Z"/></g>
<g><path style="opacity:1" fill="#eeeeee" d="M 224.5,59.5 C 221.15,59.665 217.817,59.4983 214.5,59C 213.744,57.6197 213.078,57.453 212.5,58.5C 203.79,46.1235 193.124,35.7901 180.5,27.5C 182.831,27.1407 182.665,26.474 180,25.5C 179.501,21.8484 179.335,18.1817 179.5,14.5C 184.5,14.5 189.5,14.5 194.5,14.5C 194.5,19.5 194.5,24.5 194.5,29.5C 199.5,29.5 204.5,29.5 209.5,29.5C 209.5,34.5 209.5,39.5 209.5,44.5C 214.5,44.5 219.5,44.5 224.5,44.5C 224.5,49.5 224.5,54.5 224.5,59.5 Z"/></g>
<g><path style="opacity:1" fill="#f6f6f6" d="M 155.5,25.5 C 159.784,26.2613 163.784,27.5947 167.5,29.5C 166.5,29.5 165.5,29.5 164.5,29.5C 164.5,34.5 164.5,39.5 164.5,44.5C 169.5,44.5 174.5,44.5 179.5,44.5C 179.5,49.5 179.5,54.5 179.5,59.5C 184.5,59.5 189.5,59.5 194.5,59.5C 194.5,64.5 194.5,69.5 194.5,74.5C 199.511,74.6659 204.511,74.4993 209.5,74C 208.226,73.0228 208.226,72.1894 209.5,71.5C 214.74,83.2579 217.74,95.5912 218.5,108.5C 220.5,108.5 222.5,108.5 224.5,108.5C 222.708,109.309 220.708,109.809 218.5,110C 220.473,110.495 222.473,110.662 224.5,110.5C 224.5,113.5 224.5,116.5 224.5,119.5C 229.5,119.5 234.5,119.5 239.5,119.5C 239.5,124.5 239.5,129.5 239.5,134.5C 237.763,131.992 236.93,128.992 237,125.5C 234.619,124.565 232.119,124.232 229.5,124.5C 229.5,127.833 229.5,131.167 229.5,134.5C 227.833,134.5 226.167,134.5 224.5,134.5C 224.5,137.833 224.5,141.167 224.5,144.5C 223.209,144.263 222.209,144.596 221.5,145.5C 213.602,143.13 207.602,145.463 203.5,152.5C 202.226,151.811 202.226,150.977 203.5,150C 201.942,149.79 200.609,149.29 199.5,148.5C 200.171,147.153 200.171,145.986 199.5,145C 197.866,144.506 196.199,144.34 194.5,144.5C 193.761,144.631 193.094,144.464 192.5,144C 194.344,141.196 195.011,138.03 194.5,134.5C 189.5,134.5 184.5,134.5 179.5,134.5C 179.5,139.5 179.5,144.5 179.5,149.5C 181.167,149.5 182.833,149.5 184.5,149.5C 185.799,155.846 185.799,160.846 184.5,164.5C 182.801,164.527 181.467,165.194 180.5,166.5C 174.843,153.851 169.176,141.184 163.5,128.5C 158.123,139.915 152.79,151.249 147.5,162.5C 147.565,162.062 147.399,161.728 147,161.5C 146.626,162.416 146.126,163.25 145.5,164C 141.848,164.499 138.182,164.665 134.5,164.5C 134.5,159.5 134.5,154.5 134.5,149.5C 139.5,149.5 144.5,149.5 149.5,149.5C 149.5,144.5 149.5,139.5 149.5,134.5C 144.5,134.5 139.5,134.5 134.5,134.5C 134.5,129.5 134.5,124.5 134.5,119.5C 134.5,115.833 134.5,112.167 134.5,108.5C 134.833,108.5 135.167,108.5 135.5,108.5C 137.833,108.5 140.167,108.5 142.5,108.5C 142.5,107.167 142.5,105.833 142.5,104.5C 143.497,84.6736 143.83,64.6736 143.5,44.5C 145.5,44.5 147.5,44.5 149.5,44.5C 149.5,39.5 149.5,34.5 149.5,29.5C 153.846,29.6657 158.179,29.499 162.5,29C 159.182,28.3844 156.848,27.2177 155.5,25.5 Z"/></g>
<g><path style="opacity:1" fill="#f9f9f9" d="M 224.5,59.5 C 224.5,64.5 224.5,69.5 224.5,74.5C 229.5,74.5 234.5,74.5 239.5,74.5C 239.5,79.5 239.5,84.5 239.5,89.5C 244.5,89.5 249.5,89.5 254.5,89.5C 254.5,94.5 254.5,99.5 254.5,104.5C 259.5,104.5 264.5,104.5 269.5,104.5C 269.5,109.5 269.5,114.5 269.5,119.5C 264.5,119.5 259.5,119.5 254.5,119.5C 254.5,124.5 254.5,129.5 254.5,134.5C 249.5,134.5 244.5,134.5 239.5,134.5C 239.5,129.5 239.5,124.5 239.5,119.5C 234.5,119.5 229.5,119.5 224.5,119.5C 224.5,116.5 224.5,113.5 224.5,110.5C 222.473,110.662 220.473,110.495 218.5,110C 220.708,109.809 222.708,109.309 224.5,108.5C 225.163,106.359 225.497,104.025 225.5,101.5C 224.189,86.2358 219.856,71.9025 212.5,58.5C 213.078,57.453 213.744,57.6197 214.5,59C 217.817,59.4983 221.15,59.665 224.5,59.5 Z"/></g>
<g><path style="opacity:1" fill="#fefefe" d="M 134.5,108.5 C 133.566,107.432 133.232,106.099 133.5,104.5C 128.833,104.5 124.167,104.5 119.5,104.5C 119.5,99.5 119.5,94.5 119.5,89.5C 124.167,89.5 128.833,89.5 133.5,89.5C 133.5,84.5 133.5,79.5 133.5,74.5C 128.833,74.5 124.167,74.5 119.5,74.5C 119.5,69.5 119.5,64.5 119.5,59.5C 124.167,59.5 128.833,59.5 133.5,59.5C 133.5,54.5 133.5,49.5 133.5,44.5C 128.833,44.5 124.167,44.5 119.5,44.5C 119.5,39.5 119.5,34.5 119.5,29.5C 124.43,29.8025 129.263,29.4692 134,28.5C 134.5,55.1646 134.667,81.8313 134.5,108.5 Z"/></g>
<g><path style="opacity:1" fill="#f1f1f1" d="M 44.5,119.5 C 49.5,119.5 54.5,119.5 59.5,119.5C 59.5,124.5 59.5,129.5 59.5,134.5C 63.5,134.5 67.5,134.5 71.5,134.5C 72.0229,137.028 73.0229,139.361 74.5,141.5C 74.3918,142.442 74.0585,143.275 73.5,144C 75.3817,144.198 77.0484,144.698 78.5,145.5C 77.1667,145.5 75.8333,145.5 74.5,145.5C 74.5,153.833 74.5,162.167 74.5,170.5C 75.8333,170.5 77.1667,170.5 78.5,170.5C 77.0484,171.302 75.3817,171.802 73.5,172C 74.435,174.381 74.7683,176.881 74.5,179.5C 69.5,179.5 64.5,179.5 59.5,179.5C 59.5,177.167 59.5,174.833 59.5,172.5C 61.7354,172.795 63.7354,172.461 65.5,171.5C 65.8235,164.978 65.4902,158.645 64.5,152.5C 62.4636,144.488 57.7969,142.488 50.5,146.5C 49.5088,139.687 49.1755,132.687 49.5,125.5C 48.0813,124.549 46.4147,124.216 44.5,124.5C 44.5,122.833 44.5,121.167 44.5,119.5 Z"/></g>
<g><path style="opacity:1" fill="#f6f7f6" d="M 350.5,135.5 C 348.734,138.774 349.568,141.107 353,142.5C 355.291,141.876 356.457,140.376 356.5,138C 356.285,136.092 355.285,134.926 353.5,134.5C 355.259,134.046 357.259,134.046 359.5,134.5C 359.5,149.5 359.5,164.5 359.5,179.5C 354.5,179.5 349.5,179.5 344.5,179.5C 344.5,177.167 344.5,174.833 344.5,172.5C 343.448,172.649 342.448,172.483 341.5,172C 343.382,171.802 345.048,171.302 346.5,170.5C 346.5,163.5 346.5,156.5 346.5,149.5C 348.167,149.5 349.833,149.5 351.5,149.5C 351.5,148.167 351.5,146.833 351.5,145.5C 350.167,145.5 348.833,145.5 347.5,145.5C 347.5,142.167 347.5,138.833 347.5,135.5C 345.833,135.5 344.167,135.5 342.5,135.5C 338.265,134.564 333.931,134.231 329.5,134.5C 329.5,129.5 329.5,124.5 329.5,119.5C 334.5,119.5 339.5,119.5 344.5,119.5C 344.5,124.5 344.5,129.5 344.5,134.5C 346.735,134.205 348.735,134.539 350.5,135.5 Z"/></g>
<g><path style="opacity:1" fill="#a8a9a9" d="M 48.5,125.5 C 48.8333,125.5 49.1667,125.5 49.5,125.5C 49.1755,132.687 49.5088,139.687 50.5,146.5C 50.44,147.043 50.1067,147.376 49.5,147.5C 48.5027,140.197 48.1694,132.863 48.5,125.5 Z"/></g>
<g><path style="opacity:1" fill="#121313" d="M 121.5,149.5 C 120.509,156.313 120.175,163.313 120.5,170.5C 119.167,170.5 117.833,170.5 116.5,170.5C 117.128,163.087 116.461,156.087 114.5,149.5C 115.904,142.224 117.071,134.89 118,127.5C 120.826,125.66 123.993,124.994 127.5,125.5C 127.5,126.833 127.5,128.167 127.5,129.5C 125.533,129.261 123.699,129.594 122,130.5C 121.501,135.489 121.334,140.489 121.5,145.5C 123.5,145.5 125.5,145.5 127.5,145.5C 127.5,146.833 127.5,148.167 127.5,149.5C 125.5,149.5 123.5,149.5 121.5,149.5 Z"/></g>
<g><path style="opacity:1" fill="#f3f3f3" d="M 239.5,134.5 C 239.335,137.518 239.502,140.518 240,143.5C 242.339,141.922 244.172,142.255 245.5,144.5C 241.808,143.971 238.642,144.971 236,147.5C 235.5,140.174 235.334,132.841 235.5,125.5C 234.167,125.5 232.833,125.5 231.5,125.5C 231.5,140.5 231.5,155.5 231.5,170.5C 232.833,170.5 234.167,170.5 235.5,170.5C 235.123,163.743 235.623,157.076 237,150.5C 240.739,147.56 243.906,147.893 246.5,151.5C 247.388,160.436 247.055,164.77 245.5,164.5C 243.5,164.5 241.5,164.5 239.5,164.5C 239.5,169.5 239.5,174.5 239.5,179.5C 239.5,180.5 239.5,181.5 239.5,182.5C 234.5,182.5 229.5,182.5 224.5,182.5C 224.5,181.5 224.5,180.5 224.5,179.5C 224.5,176.167 224.5,172.833 224.5,169.5C 224.662,167.473 224.495,165.473 224,163.5C 220.146,167.671 215.646,168.504 210.5,166C 206.53,160.799 206.53,155.632 210.5,150.5C 215.484,147.595 219.984,148.262 224,152.5C 225.016,149.374 224.183,147.041 221.5,145.5C 222.209,144.596 223.209,144.263 224.5,144.5C 224.5,141.167 224.5,137.833 224.5,134.5C 226.167,134.5 227.833,134.5 229.5,134.5C 229.5,131.167 229.5,127.833 229.5,124.5C 232.119,124.232 234.619,124.565 237,125.5C 236.93,128.992 237.763,131.992 239.5,134.5 Z"/></g>
<g><path style="opacity:1" fill="#070808" d="M 48.5,125.5 C 48.1694,132.863 48.5027,140.197 49.5,147.5C 50.1067,147.376 50.44,147.043 50.5,146.5C 57.7969,142.488 62.4636,144.488 64.5,152.5C 64.5,158.5 64.5,164.5 64.5,170.5C 63.1667,170.5 61.8333,170.5 60.5,170.5C 60.6662,164.158 60.4995,157.825 60,151.5C 54.9479,146.914 51.2812,147.914 49,154.5C 48.5006,159.823 48.334,165.156 48.5,170.5C 47.1667,170.5 45.8333,170.5 44.5,170.5C 44.5,155.5 44.5,140.5 44.5,125.5C 45.8333,125.5 47.1667,125.5 48.5,125.5 Z"/></g>
<g><path style="opacity:1" fill="#050606" d="M 245.5,144.5 C 248.541,145.375 250.375,147.375 251,150.5C 251.5,157.158 251.666,163.825 251.5,170.5C 250.167,170.5 248.833,170.5 247.5,170.5C 247.823,163.978 247.49,157.645 246.5,151.5C 243.906,147.893 240.739,147.56 237,150.5C 235.623,157.076 235.123,163.743 235.5,170.5C 234.167,170.5 232.833,170.5 231.5,170.5C 231.5,155.5 231.5,140.5 231.5,125.5C 232.833,125.5 234.167,125.5 235.5,125.5C 235.334,132.841 235.5,140.174 236,147.5C 238.642,144.971 241.808,143.971 245.5,144.5 Z"/></g>
<g><path style="opacity:1" fill="#f8f8f7" d="M 134.5,119.5 C 134.5,124.5 134.5,129.5 134.5,134.5C 139.5,134.5 144.5,134.5 149.5,134.5C 149.5,139.5 149.5,144.5 149.5,149.5C 144.5,149.5 139.5,149.5 134.5,149.5C 134.5,154.5 134.5,159.5 134.5,164.5C 134.5,169.5 134.5,174.5 134.5,179.5C 129.5,179.5 124.5,179.5 119.5,179.5C 119.132,176.467 119.798,173.8 121.5,171.5C 121.5,164.167 121.5,156.833 121.5,149.5C 123.5,149.5 125.5,149.5 127.5,149.5C 127.5,148.167 127.5,146.833 127.5,145.5C 125.5,145.5 123.5,145.5 121.5,145.5C 121.334,140.489 121.501,135.489 122,130.5C 123.699,129.594 125.533,129.261 127.5,129.5C 127.5,128.167 127.5,126.833 127.5,125.5C 123.993,124.994 120.826,125.66 118,127.5C 117.071,134.89 115.904,142.224 114.5,149.5C 114.158,154.525 114.492,159.358 115.5,164C 113.414,164.315 111.414,164.815 109.5,165.5C 109.213,163.879 108.213,162.879 106.5,162.5C 101.65,168.648 96.4829,168.982 91,163.5C 90.51,162.207 90.3433,160.873 90.5,159.5C 97.1667,159.5 103.833,159.5 110.5,159.5C 110.784,157.585 110.451,155.919 109.5,154.5C 109.103,150.435 107.103,147.435 103.5,145.5C 104.423,141.936 104.756,138.269 104.5,134.5C 108.106,134.789 111.606,134.456 115,133.5C 114.987,129.876 116.32,126.876 119,124.5C 119.494,122.866 119.66,121.199 119.5,119.5C 124.5,119.5 129.5,119.5 134.5,119.5 Z"/></g>
<g><path style="opacity:1" fill="#111212" d="M 20.5,128.5 C 25.0345,128.267 29.3678,129.1 33.5,131C 35.4257,131.422 36.4257,132.589 36.5,134.5C 36.6567,135.873 36.49,137.207 36,138.5C 29.4244,132.959 22.2577,132.125 14.5,136C 4.5514,146.615 5.21806,156.448 16.5,165.5C 23.5597,168.792 29.893,167.792 35.5,162.5C 36.7928,164.364 36.7928,166.364 35.5,168.5C 24.7938,173.604 15.2938,171.937 7,163.5C -1.34522,146.859 3.15478,135.193 20.5,128.5 Z"/></g>
<g><path style="opacity:1" fill="#0e0f0f" d="M 180.5,166.5 C 180.328,167.492 180.662,168.158 181.5,168.5C 181.209,169.649 180.376,170.316 179,170.5C 175.624,168.114 173.458,164.781 172.5,160.5C 166.528,159.336 160.528,159.17 154.5,160C 153.004,163.149 151.504,166.316 150,169.5C 148.301,170.406 146.467,170.739 144.5,170.5C 145.892,167.993 146.892,165.327 147.5,162.5C 152.79,151.249 158.123,139.915 163.5,128.5C 169.176,141.184 174.843,153.851 180.5,166.5 Z"/></g>
<g><path style="opacity:1" fill="#f6f6f6" d="M 269.5,119.5 C 269.5,124.5 269.5,129.5 269.5,134.5C 271.415,134.216 273.081,134.549 274.5,135.5C 274.863,139.683 274.196,143.683 272.5,147.5C 274.359,155.023 275.026,162.69 274.5,170.5C 276.265,171.461 278.265,171.795 280.5,171.5C 280.5,169.167 280.5,166.833 280.5,164.5C 281.833,164.5 283.167,164.5 284.5,164.5C 284.5,169.5 284.5,174.5 284.5,179.5C 279.5,179.5 274.5,179.5 269.5,179.5C 269.5,180.5 269.5,181.5 269.5,182.5C 264.5,182.5 259.5,182.5 254.5,182.5C 254.5,181.5 254.5,180.5 254.5,179.5C 254.5,174.5 254.5,169.5 254.5,164.5C 256.167,164.5 257.833,164.5 259.5,164.5C 259.5,159.5 259.5,154.5 259.5,149.5C 257.833,149.5 256.167,149.5 254.5,149.5C 254.5,144.5 254.5,139.5 254.5,134.5C 254.5,129.5 254.5,124.5 254.5,119.5C 259.5,119.5 264.5,119.5 269.5,119.5 Z"/></g>
<g><path style="opacity:1" fill="#111212" d="M 261.5,132.5 C 265.554,132.259 266.887,133.926 265.5,137.5C 260.733,138.899 259.4,137.232 261.5,132.5 Z"/></g>
<g><path style="opacity:1" fill="#f8f8f8" d="M 59.5,119.5 C 64.5,119.5 69.5,119.5 74.5,119.5C 74.5,123.833 74.5,128.167 74.5,132.5C 72.3948,136.977 73.7282,138.81 78.5,138C 79.9802,135.765 79.6469,133.932 77.5,132.5C 77.56,131.957 77.8933,131.624 78.5,131.5C 81.6145,134.086 85.2811,135.086 89.5,134.5C 89.3347,138.182 89.5014,141.848 90,145.5C 91.7897,143.709 93.623,143.375 95.5,144.5C 86.8689,147.995 83.7022,154.328 86,163.5C 89.0936,169.965 94.2602,172.631 101.5,171.5C 102.209,172.404 103.209,172.737 104.5,172.5C 104.5,174.833 104.5,177.167 104.5,179.5C 99.5,179.5 94.5,179.5 89.5,179.5C 89.5,180.5 89.5,181.5 89.5,182.5C 84.5,182.5 79.5,182.5 74.5,182.5C 74.5,181.5 74.5,180.5 74.5,179.5C 74.7683,176.881 74.435,174.381 73.5,172C 75.3817,171.802 77.0484,171.302 78.5,170.5C 78.5,162.167 78.5,153.833 78.5,145.5C 77.0484,144.698 75.3817,144.198 73.5,144C 74.0585,143.275 74.3918,142.442 74.5,141.5C 73.0229,139.361 72.0229,137.028 71.5,134.5C 67.5,134.5 63.5,134.5 59.5,134.5C 59.5,129.5 59.5,124.5 59.5,119.5 Z"/></g>
<g><path style="opacity:1" fill="#101112" d="M 74.5,132.5 C 75.5,132.5 76.5,132.5 77.5,132.5C 79.6469,133.932 79.9802,135.765 78.5,138C 73.7282,138.81 72.3948,136.977 74.5,132.5 Z"/></g>
<g><path style="opacity:1" fill="#fafafa" d="M 269.5,119.5 C 274.5,119.5 279.5,119.5 284.5,119.5C 284.5,124.5 284.5,129.5 284.5,134.5C 289.5,134.5 294.5,134.5 299.5,134.5C 299.336,137.187 299.503,139.854 300,142.5C 301.067,143.191 302.234,143.691 303.5,144C 302.906,144.464 302.239,144.631 301.5,144.5C 288.932,144.581 283.766,150.914 286,163.5C 287.744,168.457 291.244,171.124 296.5,171.5C 297.609,172.29 298.942,172.79 300.5,173C 299.577,175.041 299.244,177.208 299.5,179.5C 299.5,180.5 299.5,181.5 299.5,182.5C 294.5,182.5 289.5,182.5 284.5,182.5C 284.5,181.5 284.5,180.5 284.5,179.5C 284.5,174.5 284.5,169.5 284.5,164.5C 283.167,164.5 281.833,164.5 280.5,164.5C 280.5,166.833 280.5,169.167 280.5,171.5C 278.265,171.795 276.265,171.461 274.5,170.5C 276.167,170.5 277.833,170.5 279.5,170.5C 279.5,163.5 279.5,156.5 279.5,149.5C 280.833,149.5 282.167,149.5 283.5,149.5C 283.5,148.167 283.5,146.833 283.5,145.5C 282.167,145.5 280.833,145.5 279.5,145.5C 279.5,142.167 279.5,138.833 279.5,135.5C 277.833,135.5 276.167,135.5 274.5,135.5C 273.081,134.549 271.415,134.216 269.5,134.5C 269.5,129.5 269.5,124.5 269.5,119.5 Z"/></g>
<g><path style="opacity:1" fill="#f4f4f4" d="M 329.5,134.5 C 333.931,134.231 338.265,134.564 342.5,135.5C 342.5,135.833 342.5,136.167 342.5,136.5C 342.5,139.5 342.5,142.5 342.5,145.5C 341.5,145.5 340.5,145.5 339.5,145.5C 338.579,145.93 338.079,147.264 338,149.5C 337.417,147.998 336.584,146.665 335.5,145.5C 334.893,145.624 334.56,145.957 334.5,146.5C 325.164,142.58 318.33,145.247 314,154.5C 313.242,158.362 313.742,162.028 315.5,165.5C 314.514,169.97 314.181,174.637 314.5,179.5C 309.5,179.5 304.5,179.5 299.5,179.5C 299.244,177.208 299.577,175.041 300.5,173C 298.942,172.79 297.609,172.29 296.5,171.5C 302.229,171.969 306.563,169.802 309.5,165C 308.902,163.699 307.902,162.865 306.5,162.5C 301.65,168.648 296.483,168.982 291,163.5C 290.51,162.207 290.343,160.873 290.5,159.5C 297.167,159.5 303.833,159.5 310.5,159.5C 310.3,156.37 309.634,153.37 308.5,150.5C 308.369,149.761 308.536,149.094 309,148.5C 310.699,149.406 312.533,149.739 314.5,149.5C 314.5,144.5 314.5,139.5 314.5,134.5C 319.5,134.5 324.5,134.5 329.5,134.5 Z"/></g>
<g><path style="opacity:1" fill="#171818" d="M 274.5,135.5 C 276.167,135.5 277.833,135.5 279.5,135.5C 279.5,138.833 279.5,142.167 279.5,145.5C 280.833,145.5 282.167,145.5 283.5,145.5C 283.5,146.833 283.5,148.167 283.5,149.5C 282.167,149.5 280.833,149.5 279.5,149.5C 279.5,156.5 279.5,163.5 279.5,170.5C 277.833,170.5 276.167,170.5 274.5,170.5C 275.026,162.69 274.359,155.023 272.5,147.5C 274.196,143.683 274.863,139.683 274.5,135.5 Z"/></g>
<g><path style="opacity:1" fill="#040506" d="M 342.5,136.5 C 343.833,136.5 345.167,136.5 346.5,136.5C 346.19,139.713 346.523,142.713 347.5,145.5C 348.833,145.5 350.167,145.5 351.5,145.5C 351.5,146.833 351.5,148.167 351.5,149.5C 349.833,149.5 348.167,149.5 346.5,149.5C 346.5,156.5 346.5,163.5 346.5,170.5C 345.167,170.5 343.833,170.5 342.5,170.5C 342.5,163.5 342.5,156.5 342.5,149.5C 341.5,149.5 340.5,149.5 339.5,149.5C 339.5,148.167 339.5,146.833 339.5,145.5C 340.5,145.5 341.5,145.5 342.5,145.5C 342.5,142.5 342.5,139.5 342.5,136.5 Z"/></g>
<g><path style="opacity:1" fill="#6f7071" d="M 342.5,136.5 C 342.5,136.167 342.5,135.833 342.5,135.5C 344.167,135.5 345.833,135.5 347.5,135.5C 347.5,138.833 347.5,142.167 347.5,145.5C 346.523,142.713 346.19,139.713 346.5,136.5C 345.167,136.5 343.833,136.5 342.5,136.5 Z"/></g>
<g><path style="opacity:1" fill="#8b8c8c" d="M 353.5,134.5 C 355.285,134.926 356.285,136.092 356.5,138C 356.457,140.376 355.291,141.876 353,142.5C 349.568,141.107 348.734,138.774 350.5,135.5C 351.391,134.89 352.391,134.557 353.5,134.5 Z"/></g>
<g><path style="opacity:1" fill="#0d0e0e" d="M 95.5,144.5 C 98.2372,144.401 100.904,144.735 103.5,145.5C 107.103,147.435 109.103,150.435 109.5,154.5C 109.5,155.833 109.5,157.167 109.5,158.5C 102.978,158.177 96.6446,158.51 90.5,159.5C 90.3433,160.873 90.51,162.207 91,163.5C 96.4829,168.982 101.65,168.648 106.5,162.5C 108.213,162.879 109.213,163.879 109.5,165.5C 107.588,168.461 104.921,170.461 101.5,171.5C 94.2602,172.631 89.0936,169.965 86,163.5C 83.7022,154.328 86.8689,147.995 95.5,144.5 Z"/></g>
<g><path style="opacity:1" fill="#040505" d="M 194.5,144.5 C 196.199,144.34 197.866,144.506 199.5,145C 200.171,145.986 200.171,147.153 199.5,148.5C 197.686,148.772 195.686,148.939 193.5,149C 193,149.5 192.5,150 192,150.5C 190.623,157.076 190.123,163.743 190.5,170.5C 189.167,170.5 187.833,170.5 186.5,170.5C 186.5,162.167 186.5,153.833 186.5,145.5C 188.451,145.227 189.951,145.893 191,147.5C 192.145,146.364 193.312,145.364 194.5,144.5 Z"/></g>
<g><path style="opacity:1" fill="#101111" d="M 221.5,145.5 C 224.183,147.041 225.016,149.374 224,152.5C 219.984,148.262 215.484,147.595 210.5,150.5C 206.53,155.632 206.53,160.799 210.5,166C 215.646,168.504 220.146,167.671 224,163.5C 224.495,165.473 224.662,167.473 224.5,169.5C 216.035,173.388 209.035,171.721 203.5,164.5C 202.322,160.452 202.322,156.452 203.5,152.5C 207.602,145.463 213.602,143.13 221.5,145.5 Z"/></g>
<g><path style="opacity:1" fill="#121313" d="M 301.5,144.5 C 304.432,145.8 306.766,147.8 308.5,150.5C 309.634,153.37 310.3,156.37 310.5,159.5C 303.833,159.5 297.167,159.5 290.5,159.5C 290.343,160.873 290.51,162.207 291,163.5C 296.483,168.982 301.65,168.648 306.5,162.5C 307.902,162.865 308.902,163.699 309.5,165C 306.563,169.802 302.229,171.969 296.5,171.5C 291.244,171.124 287.744,168.457 286,163.5C 283.766,150.914 288.932,144.581 301.5,144.5 Z"/></g>
<g><path style="opacity:1" fill="#0f0f10" d="M 334.5,146.5 C 335.622,148.288 335.789,150.288 335,152.5C 329.364,146.991 324.031,147.324 319,153.5C 316.936,163.256 320.769,167.756 330.5,167C 332.286,166.215 333.786,165.049 335,163.5C 335.808,165.579 335.641,167.579 334.5,169.5C 331.724,171.13 328.724,171.797 325.5,171.5C 321.195,171.018 317.861,169.018 315.5,165.5C 313.742,162.028 313.242,158.362 314,154.5C 318.33,145.247 325.164,142.58 334.5,146.5 Z"/></g>
<g><path style="opacity:1" fill="#f4f4f4" d="M 339.5,145.5 C 339.5,146.833 339.5,148.167 339.5,149.5C 340.5,149.5 341.5,149.5 342.5,149.5C 342.5,156.5 342.5,163.5 342.5,170.5C 343.833,170.5 345.167,170.5 346.5,170.5C 345.048,171.302 343.382,171.802 341.5,172C 342.448,172.483 343.448,172.649 344.5,172.5C 344.5,174.833 344.5,177.167 344.5,179.5C 339.5,179.5 334.5,179.5 329.5,179.5C 329.244,177.208 329.577,175.041 330.5,173C 328.618,172.802 326.952,172.302 325.5,171.5C 328.724,171.797 331.724,171.13 334.5,169.5C 335.641,167.579 335.808,165.579 335,163.5C 333.786,165.049 332.286,166.215 330.5,167C 320.769,167.756 316.936,163.256 319,153.5C 324.031,147.324 329.364,146.991 335,152.5C 335.789,150.288 335.622,148.288 334.5,146.5C 334.56,145.957 334.893,145.624 335.5,145.5C 336.584,146.665 337.417,147.998 338,149.5C 338.079,147.264 338.579,145.93 339.5,145.5 Z"/></g>
<g><path style="opacity:1" fill="#010302" d="M 78.5,145.5 C 78.5,153.833 78.5,162.167 78.5,170.5C 77.1667,170.5 75.8333,170.5 74.5,170.5C 74.5,162.167 74.5,153.833 74.5,145.5C 75.8333,145.5 77.1667,145.5 78.5,145.5 Z"/></g>
<g><path style="opacity:1" fill="#efefef" d="M 169.5,153.5 C 165.366,154.485 161.032,154.818 156.5,154.5C 158.562,149.375 160.896,144.375 163.5,139.5C 166.058,143.947 168.058,148.614 169.5,153.5 Z"/></g>
<g><path style="opacity:1" fill="#0a0c0c" d="M 261.5,145.5 C 262.833,145.5 264.167,145.5 265.5,145.5C 265.5,153.833 265.5,162.167 265.5,170.5C 264.167,170.5 262.833,170.5 261.5,170.5C 261.5,162.167 261.5,153.833 261.5,145.5 Z"/></g>
<g><path style="opacity:1" fill="#f4f4f4" d="M 36.5,134.5 C 37.29,135.609 37.79,136.942 38,138.5C 38.49,137.207 38.6567,135.873 38.5,134.5C 39.8333,134.5 41.1667,134.5 42.5,134.5C 42.5,139.5 42.5,144.5 42.5,149.5C 38.1667,149.5 33.8333,149.5 29.5,149.5C 29.5,154.5 29.5,159.5 29.5,164.5C 24.9677,164.182 20.6344,164.515 16.5,165.5C 5.21806,156.448 4.5514,146.615 14.5,136C 22.2577,132.125 29.4244,132.959 36,138.5C 36.49,137.207 36.6567,135.873 36.5,134.5 Z"/></g>
<g><path style="opacity:1" fill="#5a5b5c" d="M 261.5,145.5 C 261.5,153.833 261.5,162.167 261.5,170.5C 262.833,170.5 264.167,170.5 265.5,170.5C 264.081,171.451 262.415,171.784 260.5,171.5C 260.174,162.651 260.507,153.984 261.5,145.5 Z"/></g>
<g><path style="opacity:1" fill="#f8f8f8" d="M 44.5,119.5 C 44.5,121.167 44.5,122.833 44.5,124.5C 46.4147,124.216 48.0813,124.549 49.5,125.5C 49.1667,125.5 48.8333,125.5 48.5,125.5C 47.1667,125.5 45.8333,125.5 44.5,125.5C 44.5,140.5 44.5,155.5 44.5,170.5C 45.8333,170.5 47.1667,170.5 48.5,170.5C 48.334,165.156 48.5006,159.823 49,154.5C 51.2812,147.914 54.9479,146.914 60,151.5C 60.4995,157.825 60.6662,164.158 60.5,170.5C 61.9187,171.451 63.5853,171.784 65.5,171.5C 63.7354,172.461 61.7354,172.795 59.5,172.5C 59.5,174.833 59.5,177.167 59.5,179.5C 54.5,179.5 49.5,179.5 44.5,179.5C 43.8333,174.5 43.1667,169.5 42.5,164.5C 41.1667,164.5 39.8333,164.5 38.5,164.5C 38.6495,165.552 38.4828,166.552 38,167.5C 37.8078,165.423 37.3078,163.423 36.5,161.5C 35.8933,161.624 35.56,161.957 35.5,162.5C 29.893,167.792 23.5597,168.792 16.5,165.5C 20.6344,164.515 24.9677,164.182 29.5,164.5C 29.5,159.5 29.5,154.5 29.5,149.5C 33.8333,149.5 38.1667,149.5 42.5,149.5C 42.5,144.5 42.5,139.5 42.5,134.5C 41.1667,134.5 39.8333,134.5 38.5,134.5C 38.6567,135.873 38.49,137.207 38,138.5C 37.79,136.942 37.29,135.609 36.5,134.5C 36.4257,132.589 35.4257,131.422 33.5,131C 29.3678,129.1 25.0345,128.267 20.5,128.5C 22.7043,127.495 25.7043,127.162 29.5,127.5C 29.5,124.833 29.5,122.167 29.5,119.5C 34.5,119.5 39.5,119.5 44.5,119.5 Z"/></g>
<g><path style="opacity:1" fill="#f0f1ef" d="M 95.5,148.5 C 100.4,147.948 103.734,149.948 105.5,154.5C 100.544,155.494 95.544,155.827 90.5,155.5C 91.0025,152.331 92.6691,149.998 95.5,148.5 Z"/></g>
<g><path style="opacity:1" fill="#777879" d="M 121.5,149.5 C 121.5,156.833 121.5,164.167 121.5,171.5C 119.585,171.784 117.919,171.451 116.5,170.5C 117.833,170.5 119.167,170.5 120.5,170.5C 120.175,163.313 120.509,156.313 121.5,149.5 Z"/></g>
<g><path style="opacity:1" fill="#ededed" d="M 239.5,134.5 C 244.5,134.5 249.5,134.5 254.5,134.5C 254.5,139.5 254.5,144.5 254.5,149.5C 256.167,149.5 257.833,149.5 259.5,149.5C 259.5,154.5 259.5,159.5 259.5,164.5C 257.833,164.5 256.167,164.5 254.5,164.5C 254.5,169.5 254.5,174.5 254.5,179.5C 249.5,179.5 244.5,179.5 239.5,179.5C 239.5,174.5 239.5,169.5 239.5,164.5C 241.5,164.5 243.5,164.5 245.5,164.5C 247.055,164.77 247.388,160.436 246.5,151.5C 247.49,157.645 247.823,163.978 247.5,170.5C 248.833,170.5 250.167,170.5 251.5,170.5C 251.666,163.825 251.5,157.158 251,150.5C 250.375,147.375 248.541,145.375 245.5,144.5C 244.172,142.255 242.339,141.922 240,143.5C 239.502,140.518 239.335,137.518 239.5,134.5 Z"/></g>
<g><path style="opacity:1" fill="#e9e9e8" d="M 295.5,148.5 C 300.4,147.948 303.734,149.948 305.5,154.5C 300.544,155.494 295.544,155.827 290.5,155.5C 291.002,152.331 292.669,149.998 295.5,148.5 Z"/></g>
<g><path style="opacity:1" fill="#5b5c5d" d="M 64.5,152.5 C 65.4902,158.645 65.8235,164.978 65.5,171.5C 63.5853,171.784 61.9187,171.451 60.5,170.5C 61.8333,170.5 63.1667,170.5 64.5,170.5C 64.5,164.5 64.5,158.5 64.5,152.5 Z"/></g>
<g><path style="opacity:1" fill="#626364" d="M 169.5,153.5 C 170.043,153.56 170.376,153.893 170.5,154.5C 165.682,155.812 161.015,155.812 156.5,154.5C 161.032,154.818 165.366,154.485 169.5,153.5 Z"/></g>
<g><path style="opacity:1" fill="#555657" d="M 109.5,154.5 C 110.451,155.919 110.784,157.585 110.5,159.5C 103.833,159.5 97.1667,159.5 90.5,159.5C 96.6446,158.51 102.978,158.177 109.5,158.5C 109.5,157.167 109.5,155.833 109.5,154.5 Z"/></g>
<g><path style="opacity:1" fill="#f5f5f5" d="M 181.5,168.5 C 181.81,167.262 182.31,167.262 183,168.5C 183.49,169.793 183.657,171.127 183.5,172.5C 182.167,172.5 180.833,172.5 179.5,172.5C 179.5,174.833 179.5,177.167 179.5,179.5C 184.5,179.5 189.5,179.5 194.5,179.5C 194.5,174.5 194.5,169.5 194.5,164.5C 197.5,164.5 200.5,164.5 203.5,164.5C 209.035,171.721 216.035,173.388 224.5,169.5C 224.5,172.833 224.5,176.167 224.5,179.5C 219.5,179.5 214.5,179.5 209.5,179.5C 209.5,180.833 209.5,182.167 209.5,183.5C 199.5,183.5 189.5,183.5 179.5,183.5C 174.695,182.513 169.695,182.179 164.5,182.5C 164.5,181.5 164.5,180.5 164.5,179.5C 159.5,179.5 154.5,179.5 149.5,179.5C 149.232,176.881 149.565,174.381 150.5,172C 148.292,171.809 146.292,171.309 144.5,170.5C 146.467,170.739 148.301,170.406 150,169.5C 151.504,166.316 153.004,163.149 154.5,160C 160.528,159.17 166.528,159.336 172.5,160.5C 173.458,164.781 175.624,168.114 179,170.5C 180.376,170.316 181.209,169.649 181.5,168.5 Z"/></g>
<g><path style="opacity:1" fill="#eaeaea" d="M 194.5,144.5 C 193.312,145.364 192.145,146.364 191,147.5C 189.951,145.893 188.451,145.227 186.5,145.5C 186.5,153.833 186.5,162.167 186.5,170.5C 187.833,170.5 189.167,170.5 190.5,170.5C 190.123,163.743 190.623,157.076 192,150.5C 192.5,150 193,149.5 193.5,149C 195.686,148.939 197.686,148.772 199.5,148.5C 200.609,149.29 201.942,149.79 203.5,150C 202.226,150.977 202.226,151.811 203.5,152.5C 202.322,156.452 202.322,160.452 203.5,164.5C 200.5,164.5 197.5,164.5 194.5,164.5C 194.5,169.5 194.5,174.5 194.5,179.5C 189.5,179.5 184.5,179.5 179.5,179.5C 179.5,177.167 179.5,174.833 179.5,172.5C 180.833,172.5 182.167,172.5 183.5,172.5C 183.657,171.127 183.49,169.793 183,168.5C 182.31,167.262 181.81,167.262 181.5,168.5C 180.662,168.158 180.328,167.492 180.5,166.5C 181.467,165.194 182.801,164.527 184.5,164.5C 185.799,160.846 185.799,155.846 184.5,149.5C 182.833,149.5 181.167,149.5 179.5,149.5C 179.5,144.5 179.5,139.5 179.5,134.5C 184.5,134.5 189.5,134.5 194.5,134.5C 195.011,138.03 194.344,141.196 192.5,144C 193.094,144.464 193.761,144.631 194.5,144.5 Z"/></g>
<g><path style="opacity:1" fill="#f7f7f7" d="M -0.5,179.5 C 4.5,179.5 9.5,179.5 14.5,179.5C 14.5,180.5 14.5,181.5 14.5,182.5C 19.6946,182.179 24.6946,182.513 29.5,183.5C 24.3054,183.179 19.3054,183.513 14.5,184.5C 11.8333,184.5 9.16667,184.5 6.5,184.5C 6.5,186.167 6.5,187.833 6.5,189.5C 23.9921,190.497 41.6588,190.83 59.5,190.5C 59.5,191.833 59.5,193.167 59.5,194.5C 59.5,199.5 59.5,204.5 59.5,209.5C 64.5,209.5 69.5,209.5 74.5,209.5C 74.5,214.5 74.5,219.5 74.5,224.5C 74.5,229.5 74.5,234.5 74.5,239.5C 49.5,239.5 24.5,239.5 -0.5,239.5C -0.5,219.5 -0.5,199.5 -0.5,179.5 Z"/></g>
<g><path style="opacity:1" fill="#fcfbfc" d="M 114.5,149.5 C 116.461,156.087 117.128,163.087 116.5,170.5C 117.919,171.451 119.585,171.784 121.5,171.5C 119.798,173.8 119.132,176.467 119.5,179.5C 124.5,179.5 129.5,179.5 134.5,179.5C 134.5,174.5 134.5,169.5 134.5,164.5C 138.182,164.665 141.848,164.499 145.5,164C 146.126,163.25 146.626,162.416 147,161.5C 147.399,161.728 147.565,162.062 147.5,162.5C 146.892,165.327 145.892,167.993 144.5,170.5C 146.292,171.309 148.292,171.809 150.5,172C 149.565,174.381 149.232,176.881 149.5,179.5C 154.5,179.5 159.5,179.5 164.5,179.5C 164.5,180.5 164.5,181.5 164.5,182.5C 169.695,182.179 174.695,182.513 179.5,183.5C 139.5,183.5 99.5,183.5 59.5,183.5C 59.5,182.167 59.5,180.833 59.5,179.5C 64.5,179.5 69.5,179.5 74.5,179.5C 74.5,180.5 74.5,181.5 74.5,182.5C 79.5,182.5 84.5,182.5 89.5,182.5C 89.5,181.5 89.5,180.5 89.5,179.5C 94.5,179.5 99.5,179.5 104.5,179.5C 104.5,177.167 104.5,174.833 104.5,172.5C 103.209,172.737 102.209,172.404 101.5,171.5C 104.921,170.461 107.588,168.461 109.5,165.5C 111.414,164.815 113.414,164.315 115.5,164C 114.492,159.358 114.158,154.525 114.5,149.5 Z"/></g>
<g><path style="opacity:1" fill="#fcfcfc" d="M 315.5,165.5 C 317.861,169.018 321.195,171.018 325.5,171.5C 326.952,172.302 328.618,172.802 330.5,173C 329.577,175.041 329.244,177.208 329.5,179.5C 334.5,179.5 339.5,179.5 344.5,179.5C 344.5,180.5 344.5,181.5 344.5,182.5C 304.847,183.505 259.847,183.838 209.5,183.5C 209.5,182.167 209.5,180.833 209.5,179.5C 214.5,179.5 219.5,179.5 224.5,179.5C 224.5,180.5 224.5,181.5 224.5,182.5C 229.5,182.5 234.5,182.5 239.5,182.5C 239.5,181.5 239.5,180.5 239.5,179.5C 244.5,179.5 249.5,179.5 254.5,179.5C 254.5,180.5 254.5,181.5 254.5,182.5C 259.5,182.5 264.5,182.5 269.5,182.5C 269.5,181.5 269.5,180.5 269.5,179.5C 274.5,179.5 279.5,179.5 284.5,179.5C 284.5,180.5 284.5,181.5 284.5,182.5C 289.5,182.5 294.5,182.5 299.5,182.5C 299.5,181.5 299.5,180.5 299.5,179.5C 304.5,179.5 309.5,179.5 314.5,179.5C 314.181,174.637 314.514,169.97 315.5,165.5 Z"/></g>
<g><path style="opacity:1" fill="#f1f1f2" d="M 344.5,179.5 C 349.5,179.5 354.5,179.5 359.5,179.5C 359.5,184.5 359.5,189.5 359.5,194.5C 354.5,194.5 349.5,194.5 344.5,194.5C 344.5,193.5 344.5,192.5 344.5,191.5C 347.972,191.84 350.639,191.507 352.5,190.5C 352.795,188.265 352.461,186.265 351.5,184.5C 239.167,184.5 126.833,184.5 14.5,184.5C 19.3054,183.513 24.3054,183.179 29.5,183.5C 39.5,183.5 49.5,183.5 59.5,183.5C 99.5,183.5 139.5,183.5 179.5,183.5C 189.5,183.5 199.5,183.5 209.5,183.5C 259.847,183.838 304.847,183.505 344.5,182.5C 344.5,181.5 344.5,180.5 344.5,179.5 Z"/></g>
<g><path style="opacity:1" fill="#a6c94d" d="M 351.5,184.5 C 352.461,186.265 352.795,188.265 352.5,190.5C 324.833,190.5 297.167,190.5 269.5,190.5C 199.5,190.5 129.5,190.5 59.5,190.5C 41.6588,190.83 23.9921,190.497 6.5,189.5C 121.502,189.833 236.502,189.5 351.5,188.5C 237.442,188.496 123.109,188.496 8.5,188.5C 8.28099,187.325 8.61432,186.325 9.5,185.5C 122.611,185.391 236.278,185.724 350.5,186.5C 351.298,186.043 351.631,185.376 351.5,184.5 Z"/></g>
<g><path style="opacity:1" fill="#96c02a" d="M 14.5,184.5 C 126.833,184.5 239.167,184.5 351.5,184.5C 351.631,185.376 351.298,186.043 350.5,186.5C 236.278,185.724 122.611,185.391 9.5,185.5C 8.61432,186.325 8.28099,187.325 8.5,188.5C 123.109,188.496 237.442,188.496 351.5,188.5C 236.502,189.5 121.502,189.833 6.5,189.5C 6.5,187.833 6.5,186.167 6.5,184.5C 9.16667,184.5 11.8333,184.5 14.5,184.5 Z"/></g>
<g><path style="opacity:1" fill="#fcfcfc" d="M 59.5,190.5 C 129.5,190.5 199.5,190.5 269.5,190.5C 269.5,190.833 269.5,191.167 269.5,191.5C 264.5,191.5 259.5,191.5 254.5,191.5C 254.5,192.5 254.5,193.5 254.5,194.5C 249.5,194.5 244.5,194.5 239.5,194.5C 239.5,199.5 239.5,204.5 239.5,209.5C 235.731,209.244 232.064,209.577 228.5,210.5C 226.043,207.249 224.376,203.582 223.5,199.5C 224.301,197.958 224.634,196.292 224.5,194.5C 219.5,194.5 214.5,194.5 209.5,194.5C 209.5,193.5 209.5,192.5 209.5,191.5C 204.5,191.5 199.5,191.5 194.5,191.5C 194.5,192.5 194.5,193.5 194.5,194.5C 189.5,194.5 184.5,194.5 179.5,194.5C 179.5,193.5 179.5,192.5 179.5,191.5C 174.5,191.5 169.5,191.5 164.5,191.5C 164.5,192.5 164.5,193.5 164.5,194.5C 159.5,194.5 154.5,194.5 149.5,194.5C 144.5,194.5 139.5,194.5 134.5,194.5C 129.5,194.5 124.5,194.5 119.5,194.5C 119.5,193.5 119.5,192.5 119.5,191.5C 114.5,191.5 109.5,191.5 104.5,191.5C 104.5,192.5 104.5,193.5 104.5,194.5C 99.5,194.5 94.5,194.5 89.5,194.5C 89.5,193.5 89.5,192.5 89.5,191.5C 84.5,191.5 79.5,191.5 74.5,191.5C 74.5,192.5 74.5,193.5 74.5,194.5C 69.5,194.5 64.5,194.5 59.5,194.5C 59.5,193.167 59.5,191.833 59.5,190.5 Z"/></g>
<g><path style="opacity:1" fill="#f8f8f8" d="M 269.5,190.5 C 297.167,190.5 324.833,190.5 352.5,190.5C 350.639,191.507 347.972,191.84 344.5,191.5C 344.5,192.5 344.5,193.5 344.5,194.5C 349.5,194.5 354.5,194.5 359.5,194.5C 359.5,209.5 359.5,224.5 359.5,239.5C 344.5,239.5 329.5,239.5 314.5,239.5C 314.5,234.5 314.5,229.5 314.5,224.5C 309.5,224.5 304.5,224.5 299.5,224.5C 299.5,219.5 299.5,214.5 299.5,209.5C 294.5,209.5 289.5,209.5 284.5,209.5C 284.5,204.5 284.5,199.5 284.5,194.5C 279.5,194.5 274.5,194.5 269.5,194.5C 269.5,193.5 269.5,192.5 269.5,191.5C 269.5,191.167 269.5,190.833 269.5,190.5 Z"/></g>
<g><path style="opacity:1" fill="#f2f2f2" d="M 89.5,194.5 C 89.0548,197.365 89.7215,199.865 91.5,202C 91.2716,202.399 90.9382,202.565 90.5,202.5C 86.7335,199.864 82.9002,199.864 79,202.5C 78.3333,204.833 78.3333,207.167 79,209.5C 81.5864,211.545 84.4198,213.211 87.5,214.5C 89.2079,219.961 87.2079,222.128 81.5,221C 80.3816,219.926 79.3816,218.76 78.5,217.5C 77.2302,219.757 77.5636,221.757 79.5,223.5C 77.9582,224.301 76.2915,224.634 74.5,224.5C 74.5,219.5 74.5,214.5 74.5,209.5C 69.5,209.5 64.5,209.5 59.5,209.5C 59.5,204.5 59.5,199.5 59.5,194.5C 64.5,194.5 69.5,194.5 74.5,194.5C 74.5,193.5 74.5,192.5 74.5,191.5C 79.5,191.5 84.5,191.5 89.5,191.5C 89.5,192.5 89.5,193.5 89.5,194.5 Z"/></g>
<g><path style="opacity:1" fill="#efefef" d="M 134.5,194.5 C 133.836,199.473 133.503,204.473 133.5,209.5C 130.028,210.037 127.195,209.037 125,206.5C 124.601,206.728 124.435,207.062 124.5,207.5C 120.652,200.954 114.985,198.788 107.5,201C 104.254,202.742 101.921,205.242 100.5,208.5C 100.565,208.062 100.399,207.728 100,207.5C 96.832,209.205 93.332,210.038 89.5,210C 88.944,210.383 88.6107,210.883 88.5,211.5C 84.9283,210.888 82.2617,209.055 80.5,206C 82.5994,201.937 85.4327,201.437 89,204.5C 90.0299,204.164 90.5299,203.497 90.5,202.5C 90.9382,202.565 91.2716,202.399 91.5,202C 89.7215,199.865 89.0548,197.365 89.5,194.5C 94.5,194.5 99.5,194.5 104.5,194.5C 104.5,193.5 104.5,192.5 104.5,191.5C 109.5,191.5 114.5,191.5 119.5,191.5C 119.5,192.5 119.5,193.5 119.5,194.5C 124.5,194.5 129.5,194.5 134.5,194.5 Z"/></g>
<g><path style="opacity:1" fill="#f6f6f6" d="M 179.5,194.5 C 179.849,198.054 179.849,201.387 179.5,204.5C 178.766,203.292 178.433,201.959 178.5,200.5C 177.5,200.5 176.5,200.5 175.5,200.5C 176.699,204.099 177.699,207.765 178.5,211.5C 178.565,211.938 178.399,212.272 178,212.5C 177.626,211.584 177.126,210.75 176.5,210C 172.514,209.501 168.514,209.334 164.5,209.5C 164.5,214.5 164.5,219.5 164.5,224.5C 169.5,224.5 174.5,224.5 179.5,224.5C 179.5,229.5 179.5,234.5 179.5,239.5C 169.5,239.5 159.5,239.5 149.5,239.5C 149.5,234.5 149.5,229.5 149.5,224.5C 145.5,224.5 141.5,224.5 137.5,224.5C 137.5,220.833 137.5,217.167 137.5,213.5C 140.5,213.5 143.5,213.5 146.5,213.5C 146.5,212.167 146.5,210.833 146.5,209.5C 147.5,209.5 148.5,209.5 149.5,209.5C 149.5,204.5 149.5,199.5 149.5,194.5C 154.5,194.5 159.5,194.5 164.5,194.5C 164.5,193.5 164.5,192.5 164.5,191.5C 169.5,191.5 174.5,191.5 179.5,191.5C 179.5,192.5 179.5,193.5 179.5,194.5 Z"/></g>
<g><path style="opacity:1" fill="#f3f3f3" d="M 223.5,199.5 C 221.565,202.371 219.899,205.371 218.5,208.5C 218.141,206.169 217.474,206.335 216.5,209C 214.19,209.497 211.857,209.663 209.5,209.5C 209.173,214.544 209.506,219.544 210.5,224.5C 215.1,225.017 219.766,225.017 224.5,224.5C 224.5,229.5 224.5,234.5 224.5,239.5C 214.5,239.5 204.5,239.5 194.5,239.5C 194.5,234.5 194.5,229.5 194.5,224.5C 195.959,224.567 197.292,224.234 198.5,223.5C 198.81,224.738 199.31,224.738 200,223.5C 202.642,215.905 205.475,208.405 208.5,201C 207.216,200.316 206.049,200.483 205,201.5C 203.393,206.988 201.393,212.322 199,217.5C 196.667,211.5 194.333,205.5 192,199.5C 188.953,205.299 186.286,211.299 184,217.5C 182.486,213.146 180.986,208.812 179.5,204.5C 179.849,201.387 179.849,198.054 179.5,194.5C 184.5,194.5 189.5,194.5 194.5,194.5C 194.5,193.5 194.5,192.5 194.5,191.5C 199.5,191.5 204.5,191.5 209.5,191.5C 209.5,192.5 209.5,193.5 209.5,194.5C 214.5,194.5 219.5,194.5 224.5,194.5C 224.634,196.292 224.301,197.958 223.5,199.5 Z"/></g>
<g><path style="opacity:1" fill="#f4f4f4" d="M 269.5,191.5 C 269.5,192.5 269.5,193.5 269.5,194.5C 274.5,194.5 279.5,194.5 284.5,194.5C 284.5,199.5 284.5,204.5 284.5,209.5C 289.5,209.5 294.5,209.5 299.5,209.5C 299.5,214.5 299.5,219.5 299.5,224.5C 304.5,224.5 309.5,224.5 314.5,224.5C 314.5,229.5 314.5,234.5 314.5,239.5C 284.5,239.5 254.5,239.5 224.5,239.5C 224.5,234.5 224.5,229.5 224.5,224.5C 219.766,225.017 215.1,225.017 210.5,224.5C 209.506,219.544 209.173,214.544 209.5,209.5C 211.857,209.663 214.19,209.497 216.5,209C 217.474,206.335 218.141,206.169 218.5,208.5C 216.375,213.255 214.375,218.088 212.5,223C 212.833,223.5 213.167,224 213.5,224.5C 215.316,222.882 216.649,220.882 217.5,218.5C 221.107,217.511 224.774,217.177 228.5,217.5C 228.586,219.677 229.253,221.677 230.5,223.5C 231.5,224.833 232.5,224.833 233.5,223.5C 231.536,219.246 229.869,214.912 228.5,210.5C 232.064,209.577 235.731,209.244 239.5,209.5C 239.5,204.5 239.5,199.5 239.5,194.5C 244.5,194.5 249.5,194.5 254.5,194.5C 254.5,193.5 254.5,192.5 254.5,191.5C 259.5,191.5 264.5,191.5 269.5,191.5 Z"/></g>
<g><path style="opacity:1" fill="#181819" d="M 90.5,202.5 C 90.5299,203.497 90.0299,204.164 89,204.5C 85.4327,201.437 82.5994,201.937 80.5,206C 82.2617,209.055 84.9283,210.888 88.5,211.5C 93.3207,217.842 91.8207,222.176 84,224.5C 82.4672,224.227 80.9672,223.894 79.5,223.5C 77.5636,221.757 77.2302,219.757 78.5,217.5C 79.3816,218.76 80.3816,219.926 81.5,221C 87.2079,222.128 89.2079,219.961 87.5,214.5C 84.4198,213.211 81.5864,211.545 79,209.5C 78.3333,207.167 78.3333,204.833 79,202.5C 82.9002,199.864 86.7335,199.864 90.5,202.5 Z"/></g>
<g><path style="opacity:1" fill="#1a1b1b" d="M 124.5,207.5 C 125.843,220.816 119.843,226.149 106.5,223.5C 104.5,221.329 102.666,218.996 101,216.5C 100.503,213.854 100.336,211.187 100.5,208.5C 101.921,205.242 104.254,202.742 107.5,201C 114.985,198.788 120.652,200.954 124.5,207.5 Z"/></g>
<g><path style="opacity:1" fill="#fbfbfb" d="M 134.5,194.5 C 139.5,194.5 144.5,194.5 149.5,194.5C 149.5,199.5 149.5,204.5 149.5,209.5C 148.5,209.5 147.5,209.5 146.5,209.5C 146.5,210.833 146.5,212.167 146.5,213.5C 143.5,213.5 140.5,213.5 137.5,213.5C 139.948,212.527 142.615,212.194 145.5,212.5C 145.5,211.5 145.5,210.5 145.5,209.5C 142.833,209.5 140.167,209.5 137.5,209.5C 137.5,207.5 137.5,205.5 137.5,203.5C 140.167,203.5 142.833,203.5 145.5,203.5C 145.5,202.5 145.5,201.5 145.5,200.5C 141.833,200.5 138.167,200.5 134.5,200.5C 134.5,208.5 134.5,216.5 134.5,224.5C 135.5,224.5 136.5,224.5 137.5,224.5C 141.5,224.5 145.5,224.5 149.5,224.5C 149.5,229.5 149.5,234.5 149.5,239.5C 134.5,239.5 119.5,239.5 104.5,239.5C 104.334,234.489 104.501,229.489 105,224.5C 105.383,223.944 105.883,223.611 106.5,223.5C 119.843,226.149 125.843,220.816 124.5,207.5C 124.435,207.062 124.601,206.728 125,206.5C 127.195,209.037 130.028,210.037 133.5,209.5C 133.503,204.473 133.836,199.473 134.5,194.5 Z"/></g>
<g><path style="opacity:1" fill="#212222" d="M 137.5,213.5 C 137.5,217.167 137.5,220.833 137.5,224.5C 136.5,224.5 135.5,224.5 134.5,224.5C 134.5,216.5 134.5,208.5 134.5,200.5C 138.167,200.5 141.833,200.5 145.5,200.5C 145.5,201.5 145.5,202.5 145.5,203.5C 142.833,203.5 140.167,203.5 137.5,203.5C 137.5,205.5 137.5,207.5 137.5,209.5C 140.167,209.5 142.833,209.5 145.5,209.5C 145.5,210.5 145.5,211.5 145.5,212.5C 142.615,212.194 139.948,212.527 137.5,213.5 Z"/></g>
<g><path style="opacity:1" fill="#111313" d="M 154.5,200.5 C 158.833,200.5 163.167,200.5 167.5,200.5C 166.198,202.028 164.531,203.028 162.5,203.5C 162.5,210.5 162.5,217.5 162.5,224.5C 161.5,224.5 160.5,224.5 159.5,224.5C 159.5,217.5 159.5,210.5 159.5,203.5C 157.469,203.028 155.802,202.028 154.5,200.5 Z"/></g>
<g><path style="opacity:1" fill="#171818" d="M 198.5,223.5 C 196.242,217.896 194.075,212.229 192,206.5C 189.341,212.466 186.675,218.466 184,224.5C 182.434,219.944 180.601,215.61 178.5,211.5C 177.699,207.765 176.699,204.099 175.5,200.5C 176.5,200.5 177.5,200.5 178.5,200.5C 178.433,201.959 178.766,203.292 179.5,204.5C 180.986,208.812 182.486,213.146 184,217.5C 186.286,211.299 188.953,205.299 192,199.5C 194.333,205.5 196.667,211.5 199,217.5C 201.393,212.322 203.393,206.988 205,201.5C 206.049,200.483 207.216,200.316 208.5,201C 205.475,208.405 202.642,215.905 200,223.5C 199.31,224.738 198.81,224.738 198.5,223.5 Z"/></g>
<g><path style="opacity:1" fill="#1c1c1d" d="M 223.5,199.5 C 224.376,203.582 226.043,207.249 228.5,210.5C 229.869,214.912 231.536,219.246 233.5,223.5C 232.5,224.833 231.5,224.833 230.5,223.5C 229.253,221.677 228.586,219.677 228.5,217.5C 224.774,217.177 221.107,217.511 217.5,218.5C 216.649,220.882 215.316,222.882 213.5,224.5C 213.167,224 212.833,223.5 212.5,223C 214.375,218.088 216.375,213.255 218.5,208.5C 219.899,205.371 221.565,202.371 223.5,199.5 Z"/></g>
<g><path style="opacity:1" fill="#131414" d="M 242.5,200.5 C 252.232,198.724 255.732,202.39 253,211.5C 251.581,212.46 250.081,213.293 248.5,214C 250.667,216.833 252.833,219.667 255,222.5C 255.591,223.483 255.257,224.15 254,224.5C 250.711,221.29 247.877,217.623 245.5,213.5C 244.833,217.167 244.167,220.833 243.5,224.5C 242.502,216.528 242.169,208.528 242.5,200.5 Z"/></g>
<g><path style="opacity:1" fill="#202121" d="M 265.5,200.5 C 269.5,200.5 273.5,200.5 277.5,200.5C 277.5,201.5 277.5,202.5 277.5,203.5C 274.5,203.5 271.5,203.5 268.5,203.5C 268.5,205.5 268.5,207.5 268.5,209.5C 271.5,209.5 274.5,209.5 277.5,209.5C 277.5,210.5 277.5,211.5 277.5,212.5C 274.5,212.5 271.5,212.5 268.5,212.5C 268.5,215.5 268.5,218.5 268.5,221.5C 271.5,221.5 274.5,221.5 277.5,221.5C 277.5,222.5 277.5,223.5 277.5,224.5C 273.5,224.5 269.5,224.5 265.5,224.5C 265.5,216.5 265.5,208.5 265.5,200.5 Z"/></g>
<g><path style="opacity:1" fill="#747576" d="M 154.5,200.5 C 155.802,202.028 157.469,203.028 159.5,203.5C 157.5,203.5 155.5,203.5 153.5,203.5C 153.263,202.209 153.596,201.209 154.5,200.5 Z"/></g>
<g><path style="opacity:1" fill="#777879" d="M 167.5,200.5 C 168.404,201.209 168.737,202.209 168.5,203.5C 166.5,203.5 164.5,203.5 162.5,203.5C 164.531,203.028 166.198,202.028 167.5,200.5 Z"/></g>
<g><path style="opacity:1" fill="#8d8e8e" d="M 249.5,203.5 C 248.167,203.5 246.833,203.5 245.5,203.5C 245.5,206.167 245.5,208.833 245.5,211.5C 244.523,208.713 244.19,205.713 244.5,202.5C 246.415,202.216 248.081,202.549 249.5,203.5 Z"/></g>
<g><path style="opacity:1" fill="#ededed" d="M 249.5,203.5 C 251.441,205.011 251.941,207.011 251,209.5C 249.556,211.155 247.722,211.822 245.5,211.5C 245.5,208.833 245.5,206.167 245.5,203.5C 246.833,203.5 248.167,203.5 249.5,203.5 Z"/></g>
<g><path style="opacity:1" fill="#f8f8f8" d="M 100.5,208.5 C 100.336,211.187 100.503,213.854 101,216.5C 102.666,218.996 104.5,221.329 106.5,223.5C 105.883,223.611 105.383,223.944 105,224.5C 104.501,229.489 104.334,234.489 104.5,239.5C 94.5,239.5 84.5,239.5 74.5,239.5C 74.5,234.5 74.5,229.5 74.5,224.5C 76.2915,224.634 77.9582,224.301 79.5,223.5C 80.9672,223.894 82.4672,224.227 84,224.5C 91.8207,222.176 93.3207,217.842 88.5,211.5C 88.6107,210.883 88.944,210.383 89.5,210C 93.332,210.038 96.832,209.205 100,207.5C 100.399,207.728 100.565,208.062 100.5,208.5 Z"/></g>
<g><path style="opacity:1" fill="#efeff0" d="M 222.5,206.5 C 224.201,208.731 225.534,211.231 226.5,214C 224.19,214.497 221.857,214.663 219.5,214.5C 219.94,211.62 220.94,208.954 222.5,206.5 Z"/></g>
<g><path style="opacity:1" fill="#f1f1f1" d="M 110.5,202.5 C 119.4,202.283 123.233,206.616 122,215.5C 119.081,221.025 114.581,222.858 108.5,221C 103.848,218.013 102.348,213.846 104,208.5C 105.436,205.558 107.603,203.558 110.5,202.5 Z"/></g>
<g><path style="opacity:1" fill="#efefef" d="M 198.5,223.5 C 197.292,224.234 195.959,224.567 194.5,224.5C 194.5,229.5 194.5,234.5 194.5,239.5C 189.5,239.5 184.5,239.5 179.5,239.5C 179.5,234.5 179.5,229.5 179.5,224.5C 174.5,224.5 169.5,224.5 164.5,224.5C 164.5,219.5 164.5,214.5 164.5,209.5C 168.514,209.334 172.514,209.501 176.5,210C 177.126,210.75 177.626,211.584 178,212.5C 178.399,212.272 178.565,211.938 178.5,211.5C 180.601,215.61 182.434,219.944 184,224.5C 186.675,218.466 189.341,212.466 192,206.5C 194.075,212.229 196.242,217.896 198.5,223.5 Z"/></g>
</svg>
