<?xml version="1.0" encoding="UTF-8"?>
<!DOCTYPE svg PUBLIC "-//W3C//DTD SVG 1.1//EN" "http://www.w3.org/Graphics/SVG/1.1/DTD/svg11.dtd">
<svg xmlns="http://www.w3.org/2000/svg" version="1.1" width="2275px" height="2048px" style="shape-rendering:geometricPrecision; text-rendering:geometricPrecision; image-rendering:optimizeQuality; fill-rule:evenodd; clip-rule:evenodd" xmlns:xlink="http://www.w3.org/1999/xlink">
<g><path style="opacity:0.999" fill="#1a72e7" d="M 1118.5,-0.5 C 1140.5,-0.5 1162.5,-0.5 1184.5,-0.5C 1223.13,2.38531 1261.13,9.38531 1298.5,20.5C 1205.94,131.9 1112.78,242.9 1019,353.5C 1018.63,354.416 1018.13,355.25 1017.5,356C 1017.73,356.399 1018.06,356.565 1018.5,356.5C 1016.5,359.167 1014.17,361.5 1011.5,363.5C 1005.71,359.551 1000.04,355.384 994.5,351C 924.234,290.89 853.567,231.39 782.5,172.5C 857.73,83.3552 953.063,27.8552 1068.5,6C 1085.25,3.32353 1101.92,1.15687 1118.5,-0.5 Z"/></g>
<g><path style="opacity:0.998" fill="#4285f3" d="M 1298.5,20.5 C 1425.57,61.9204 1520.24,141.587 1582.5,259.5C 1488.5,371.167 1394.5,482.833 1300.5,594.5C 1323.31,560.568 1335.64,523.068 1337.5,482C 1332.83,401.959 1294.16,345.293 1221.5,312C 1144.59,285.315 1076.92,300.148 1018.5,356.5C 1018.06,356.565 1017.73,356.399 1017.5,356C 1018.13,355.25 1018.63,354.416 1019,353.5C 1112.78,242.9 1205.94,131.9 1298.5,20.5 Z"/></g>
<g><path style="opacity:0.998" fill="#e94335" d="M 782.5,172.5 C 853.567,231.39 924.234,290.89 994.5,351C 1000.04,355.384 1005.71,359.551 1011.5,363.5C 1011.61,364.117 1011.94,364.617 1012.5,365C 1007.97,370.362 1003.3,375.528 998.5,380.5C 905.365,490.476 812.365,600.642 719.5,711C 718.423,711.47 717.423,711.303 716.5,710.5C 673.188,608.197 660.688,502.197 679,392.5C 695.057,310.073 729.557,236.739 782.5,172.5 Z"/></g>
<g><path style="opacity:0.999" fill="#34a853" d="M 1582.5,259.5 C 1614.23,320.875 1632.06,386.208 1636,455.5C 1641.97,576.97 1612.63,688.97 1548,791.5C 1523.39,829.731 1497.05,866.731 1469,902.5C 1431.95,947.878 1395.29,993.544 1359,1039.5C 1323.13,1085.72 1290.8,1134.39 1262,1185.5C 1247.47,1212.56 1235.13,1240.56 1225,1269.5C 1215.93,1295.36 1207.27,1321.36 1199,1347.5C 1194.21,1362.61 1185.05,1374.11 1171.5,1382C 1156.16,1387.4 1141.49,1386.07 1127.5,1378C 1118.37,1369.58 1111.87,1359.41 1108,1347.5C 1096.19,1310.06 1083.19,1273.06 1069,1236.5C 1053.21,1200.44 1034.55,1166.1 1013,1133.5C 988.71,1096.56 963.21,1060.56 936.5,1025.5C 1053.91,887.758 1170.58,749.425 1286.5,610.5C 1288.91,609.089 1290.58,607.089 1291.5,604.5C 1294.51,601.126 1297.51,597.792 1300.5,594.5C 1394.5,482.833 1488.5,371.167 1582.5,259.5 Z"/></g>
<g><path style="opacity:0.997" fill="#fabb04" d="M 998.5,380.5 C 979.932,411.713 969.932,445.546 968.5,482C 971.444,555.529 1004.78,610.196 1068.5,646C 1135.69,677.224 1200.03,672.224 1261.5,631C 1270.23,624.637 1278.57,617.803 1286.5,610.5C 1170.58,749.425 1053.91,887.758 936.5,1025.5C 906.291,986.444 875.458,947.777 844,909.5C 809.275,865.77 777.275,820.103 748,772.5C 736.676,752.185 726.176,731.519 716.5,710.5C 717.423,711.303 718.423,711.47 719.5,711C 812.365,600.642 905.365,490.476 998.5,380.5 Z"/></g>
<g><path style="opacity:0.4" fill="#dcb919" d="M 1291.5,604.5 C 1290.58,607.089 1288.91,609.089 1286.5,610.5C 1287.42,607.911 1289.09,605.911 1291.5,604.5 Z"/></g>
<g><path style="opacity:0.988" fill="#5e6267" d="M -0.5,1815.5 C -0.5,1799.83 -0.5,1784.17 -0.5,1768.5C 14.401,1697.26 57.0677,1652.09 127.5,1633C 184.06,1621.47 233.393,1635.13 275.5,1674C 264.667,1684.83 253.833,1695.67 243,1706.5C 211.99,1678.04 175.823,1668.54 134.5,1678C 79.9828,1695.87 50.9828,1733.54 47.5,1791C 50.1306,1843.59 75.464,1880.26 123.5,1901C 148.627,1908.89 173.96,1909.55 199.5,1903C 240.506,1890.5 263.506,1863 268.5,1820.5C 233.5,1820.5 198.5,1820.5 163.5,1820.5C 163.5,1805.5 163.5,1790.5 163.5,1775.5C 213.405,1775.17 263.238,1775.5 313,1776.5C 319.08,1814.54 313.08,1850.54 295,1884.5C 263.918,1930.3 220.418,1953.47 164.5,1954C 108.145,1953.74 62.9785,1931.24 29,1886.5C 13.9864,1864.95 4.15311,1841.29 -0.5,1815.5 Z"/></g>
<g><path style="opacity:0.987" fill="#5f6368" d="M 1035.5,1640.5 C 1051.17,1640.5 1066.83,1640.5 1082.5,1640.5C 1082.5,1743.17 1082.5,1845.83 1082.5,1948.5C 1066.83,1948.5 1051.17,1948.5 1035.5,1948.5C 1035.5,1845.83 1035.5,1743.17 1035.5,1640.5 Z"/></g>
<g><path style="opacity:0.984" fill="#626569" d="M 1407.5,1672.5 C 1419.85,1672.17 1432.18,1672.5 1444.5,1673.5C 1476,1728.5 1507.5,1783.5 1539,1838.5C 1570.7,1783.63 1602.2,1728.63 1633.5,1673.5C 1645.82,1672.5 1658.15,1672.17 1670.5,1672.5C 1670.5,1763.83 1670.5,1855.17 1670.5,1946.5C 1658.5,1946.5 1646.5,1946.5 1634.5,1946.5C 1634.64,1877.16 1634.8,1807.83 1635,1738.5C 1606.88,1788.58 1578.38,1838.41 1549.5,1888C 1542.25,1888.81 1535.09,1888.65 1528,1887.5C 1499.67,1837.83 1471.33,1788.17 1443,1738.5C 1444.29,1807.81 1444.79,1877.14 1444.5,1946.5C 1432.17,1946.5 1419.83,1946.5 1407.5,1946.5C 1407.5,1855.17 1407.5,1763.83 1407.5,1672.5 Z"/></g>
<g><path style="opacity:0.99" fill="#5e6267" d="M 920.5,2047.5 C 908.833,2047.5 897.167,2047.5 885.5,2047.5C 850.574,2040.44 825.407,2020.77 810,1988.5C 809.333,1987.5 809.333,1986.5 810,1985.5C 822.781,1980.07 835.615,1974.74 848.5,1969.5C 854.404,1978.75 861.404,1987.25 869.5,1995C 892.792,2010.39 915.792,2009.73 938.5,1993C 948.455,1983.26 954.288,1971.42 956,1957.5C 957.332,1948.53 957.665,1939.53 957,1930.5C 945.145,1943.68 930.312,1951.51 912.5,1954C 861.696,1955.85 826.529,1933.35 807,1886.5C 792.904,1840.38 803.404,1800.88 838.5,1768C 869.404,1743.27 903.07,1738.6 939.5,1754C 946.258,1757.76 952.091,1762.59 957,1768.5C 957.499,1762.84 957.666,1757.18 957.5,1751.5C 972.525,1751.75 987.525,1751.42 1002.5,1750.5C 1002.67,1814.17 1002.5,1877.83 1002,1941.5C 1002.74,1970.27 994.402,1995.93 977,2018.5C 961.329,2034.42 942.495,2044.09 920.5,2047.5 Z M 895.5,1787.5 C 932.391,1786.21 953.891,1803.88 960,1840.5C 962.736,1864.3 955.569,1884.47 938.5,1901C 912.613,1917.83 888.113,1916 865,1895.5C 844.499,1869.84 842.165,1842.5 858,1813.5C 867.386,1800.23 879.886,1791.57 895.5,1787.5 Z"/></g>
<g><path style="opacity:0.988" fill="#5e6267" d="M 427.5,1745.5 C 473.37,1741.02 508.537,1758.02 533,1796.5C 552.565,1836.34 550.565,1875 527,1912.5C 502.338,1944.24 469.838,1958.07 429.5,1954C 381.135,1945.64 351.635,1917.47 341,1869.5C 334.182,1822.32 350.349,1785.49 389.5,1759C 401.613,1752.58 414.279,1748.08 427.5,1745.5 Z M 433.5,1787.5 C 475.199,1787.36 497.533,1808.19 500.5,1850C 499.176,1882.69 482.843,1903.36 451.5,1912C 417.273,1913.44 395.773,1897.61 387,1864.5C 381.844,1837.01 390.011,1814.51 411.5,1797C 418.47,1792.74 425.804,1789.57 433.5,1787.5 Z"/></g>
<g><path style="opacity:0.988" fill="#5e6267" d="M 659.5,1745.5 C 712.535,1741.25 749.701,1763.25 771,1811.5C 783.97,1851.35 777.636,1887.69 752,1920.5C 718.242,1954.14 678.742,1962.98 633.5,1947C 592.937,1927.58 571.937,1895.25 570.5,1850C 573.477,1792.2 603.144,1757.37 659.5,1745.5 Z M 665.5,1787.5 C 702.793,1786.62 724.626,1804.62 731,1841.5C 733.735,1872.7 721.235,1895.2 693.5,1909C 660.808,1917.57 636.975,1906.74 622,1876.5C 612.651,1851.28 615.984,1827.94 632,1806.5C 641.168,1796.47 652.335,1790.13 665.5,1787.5 Z"/></g>
<g><path style="opacity:0.987" fill="#5e6267" d="M 1192.5,1745.5 C 1240.78,1742.38 1274.94,1762.71 1295,1806.5C 1297.07,1812.21 1299.24,1817.87 1301.5,1823.5C 1254.98,1843.26 1208.31,1862.76 1161.5,1882C 1177.9,1909.48 1201.57,1918.48 1232.5,1909C 1245.14,1903.43 1255.3,1894.93 1263,1883.5C 1275.17,1891.67 1287.33,1899.83 1299.5,1908C 1268.13,1949.82 1227.13,1963.49 1176.5,1949C 1142.74,1936.24 1121.24,1912.4 1112,1877.5C 1104.09,1841.73 1110.75,1809.07 1132,1779.5C 1148.23,1760.97 1168.4,1749.64 1192.5,1745.5 Z M 1200.5,1786.5 C 1218.24,1784.3 1232.74,1789.97 1244,1803.5C 1245.01,1805.02 1245.51,1806.69 1245.5,1808.5C 1214.83,1820.83 1184.17,1833.17 1153.5,1845.5C 1155.15,1814.48 1170.82,1794.81 1200.5,1786.5 Z"/></g>
<g><path style="opacity:0.98" fill="#626569" d="M 1998.5,1751.5 C 2042.59,1748.29 2074.09,1766.62 2093,1806.5C 2104.33,1836.17 2104.33,1865.83 2093,1895.5C 2069.29,1943.27 2031.79,1959.77 1980.5,1945C 1967.63,1939.47 1957.13,1930.97 1949,1919.5C 1949.41,1955.49 1949.58,1991.49 1949.5,2027.5C 1937.5,2027.5 1925.5,2027.5 1913.5,2027.5C 1913.5,1937.5 1913.5,1847.5 1913.5,1757.5C 1925.17,1757.5 1936.83,1757.5 1948.5,1757.5C 1948.33,1765.84 1948.5,1774.17 1949,1782.5C 1961.27,1765.45 1977.77,1755.11 1998.5,1751.5 Z M 1999.5,1783.5 C 2035.32,1783.15 2057.15,1800.48 2065,1835.5C 2070.57,1865.14 2061.74,1889.31 2038.5,1908C 2018.9,1919.86 1998.9,1920.52 1978.5,1910C 1955.77,1893.35 1945.94,1870.85 1949,1842.5C 1951.79,1810.56 1968.62,1790.89 1999.5,1783.5 Z"/></g>
<g><path style="opacity:0.988" fill="#626569" d="M 1777.5,1752.5 C 1809.05,1748.17 1836.21,1756.83 1859,1778.5C 1868.49,1790.15 1874.16,1803.49 1876,1818.5C 1876.5,1860.83 1876.67,1903.17 1876.5,1945.5C 1865.17,1945.5 1853.83,1945.5 1842.5,1945.5C 1842.67,1937.49 1842.5,1929.49 1842,1921.5C 1819.04,1947.38 1790.54,1956.21 1756.5,1948C 1717.48,1934.14 1702.98,1906.97 1713,1866.5C 1718.25,1853.25 1727.08,1843.08 1739.5,1836C 1756,1827 1773.66,1822.5 1792.5,1822.5C 1802.25,1823.03 1811.91,1824.19 1821.5,1826C 1828.4,1827.52 1834.9,1830.02 1841,1833.5C 1840.47,1803.13 1824.97,1786.8 1794.5,1784.5C 1781.96,1784.96 1770.63,1788.8 1760.5,1796C 1755.88,1800.94 1751.71,1806.1 1748,1811.5C 1737.78,1807.3 1727.61,1802.97 1717.5,1798.5C 1716.42,1797.64 1716.25,1796.64 1717,1795.5C 1730.13,1771.19 1750.3,1756.86 1777.5,1752.5 Z M 1791.5,1851.5 C 1809.01,1850.57 1825.35,1854.4 1840.5,1863C 1841.36,1863.69 1842.02,1864.52 1842.5,1865.5C 1836.14,1896.94 1816.97,1914.27 1785,1917.5C 1771.17,1917.25 1759.84,1911.92 1751,1901.5C 1744.15,1876.72 1753.32,1860.88 1778.5,1854C 1782.99,1853.24 1787.32,1852.41 1791.5,1851.5 Z"/></g>
<g><path style="opacity:0.988" fill="#626569" d="M 2274.5,1875.5 C 2274.5,1887.83 2274.5,1900.17 2274.5,1912.5C 2267.63,1927.2 2256.63,1937.7 2241.5,1944C 2224.35,1950.14 2206.69,1952.14 2188.5,1950C 2156.43,1944.96 2134.09,1927.46 2121.5,1897.5C 2131.81,1892.43 2142.31,1887.76 2153,1883.5C 2169.18,1916.34 2194.35,1926.17 2228.5,1913C 2239.07,1906.55 2242.57,1897.39 2239,1885.5C 2235.31,1878.15 2229.48,1873.31 2221.5,1871C 2201.6,1866.44 2181.94,1861.11 2162.5,1855C 2148.89,1849.39 2138.39,1840.22 2131,1827.5C 2121.65,1799.88 2129.48,1778.71 2154.5,1764C 2181.1,1750.72 2208.43,1749.05 2236.5,1759C 2254.18,1766.01 2266.51,1778.35 2273.5,1796C 2263.94,1801.27 2253.94,1805.77 2243.5,1809.5C 2234.31,1792.72 2219.97,1784.39 2200.5,1784.5C 2189.46,1784.59 2179.46,1787.76 2170.5,1794C 2159.92,1808.01 2162.59,1819.01 2178.5,1827C 2197.09,1831.98 2215.75,1836.65 2234.5,1841C 2253.06,1846.73 2266.4,1858.23 2274.5,1875.5 Z"/></g>
</svg>
