<?xml version="1.0" encoding="UTF-8"?>
<!DOCTYPE svg PUBLIC "-//W3C//DTD SVG 1.1//EN" "http://www.w3.org/Graphics/SVG/1.1/DTD/svg11.dtd">
<svg xmlns="http://www.w3.org/2000/svg" version="1.1" width="2000px" height="880px" style="shape-rendering:geometricPrecision; text-rendering:geometricPrecision; image-rendering:optimizeQuality; fill-rule:evenodd; clip-rule:evenodd" xmlns:xlink="http://www.w3.org/1999/xlink">
<g><path style="opacity:0.992" fill="#eb3b00" d="M 364.5,38.5 C 423.517,56.6728 482.517,75.0061 541.5,93.5C 542.5,253.499 542.833,413.499 542.5,573.5C 483.328,590.419 424.161,607.419 365,624.5C 256.255,587.03 147.588,549.363 39,511.5C 38.3333,392.833 38.3333,274.167 39,155.5C 147.544,116.376 256.044,77.3764 364.5,38.5 Z M 363.5,135.5 C 364.5,272.999 364.833,410.666 364.5,548.5C 257.194,535.892 149.86,523.392 42.5,511C 79.3163,495.171 116.15,479.337 153,463.5C 153.167,370.165 153.667,276.832 154.5,183.5C 224.318,167.627 293.984,151.627 363.5,135.5 Z"/></g>
<g><path style="opacity:0.978" fill="#eb3b00" d="M 1206.5,132.5 C 1219,132.164 1231.16,133.83 1243,137.5C 1243.83,149.847 1243.67,162.18 1242.5,174.5C 1222.39,164.164 1203.22,165.498 1185,178.5C 1179.47,185.233 1175.8,192.899 1174,201.5C 1172.59,220.463 1172.09,239.463 1172.5,258.5C 1205.83,258.5 1239.17,258.5 1272.5,258.5C 1272.33,239.83 1272.5,221.164 1273,202.5C 1281.91,157.428 1309.41,134.094 1355.5,132.5C 1365.65,132.586 1375.48,134.252 1385,137.5C 1385.83,149.847 1385.67,162.18 1384.5,174.5C 1369.65,166.915 1354.31,165.748 1338.5,171C 1324.06,178.682 1316.22,190.849 1315,207.5C 1314.5,224.497 1314.33,241.497 1314.5,258.5C 1334.5,258.5 1354.5,258.5 1374.5,258.5C 1374.5,270.167 1374.5,281.833 1374.5,293.5C 1354.5,293.5 1334.5,293.5 1314.5,293.5C 1314.5,365.167 1314.5,436.833 1314.5,508.5C 1300.5,508.5 1286.5,508.5 1272.5,508.5C 1272.5,436.833 1272.5,365.167 1272.5,293.5C 1239.17,293.5 1205.83,293.5 1172.5,293.5C 1172.5,365.167 1172.5,436.833 1172.5,508.5C 1158.5,508.5 1144.5,508.5 1130.5,508.5C 1130.5,436.833 1130.5,365.167 1130.5,293.5C 1115.83,293.5 1101.17,293.5 1086.5,293.5C 1086.5,281.833 1086.5,270.167 1086.5,258.5C 1101.17,258.5 1115.83,258.5 1130.5,258.5C 1130.33,240.164 1130.5,221.83 1131,203.5C 1138.61,161.053 1163.78,137.386 1206.5,132.5 Z"/></g>
<g><path style="opacity:0.972" fill="#eb3b00" d="M 1430.5,142.5 C 1448.89,142.064 1459.56,150.898 1462.5,169C 1461.48,183.061 1454.14,191.728 1440.5,195C 1416.49,196.653 1405.65,185.486 1408,161.5C 1412.06,150.924 1419.56,144.59 1430.5,142.5 Z"/></g>
<g><path style="opacity:0.981" fill="#eb3b00" d="M 877.5,152.5 C 913.355,149.641 947.355,156.141 979.5,172C 1023.68,198.552 1050.18,237.385 1059,288.5C 1064.87,325.603 1062.87,362.27 1053,398.5C 1032.89,460.281 991.054,497.781 927.5,511C 890.714,517.201 854.714,514.201 819.5,502C 768.327,479.148 736.493,440.314 724,385.5C 714.645,338.61 718.645,292.944 736,248.5C 764.698,189.548 811.865,157.548 877.5,152.5 Z M 878.5,190.5 C 949.412,186.175 993.912,218.175 1012,286.5C 1017.58,316.437 1017.92,346.437 1013,376.5C 995.505,446.2 950.672,479.367 878.5,476C 830.227,470.714 796.394,445.88 777,401.5C 760.333,356.498 760.333,311.498 777,266.5C 796.739,222.252 830.572,196.918 878.5,190.5 Z"/></g>
<g><path style="opacity:0.979" fill="#eb3b00" d="M 1612.5,252.5 C 1637.57,250.342 1661.91,253.509 1685.5,262C 1687.08,262.707 1688.58,263.54 1690,264.5C 1690.67,278.5 1690.67,292.5 1690,306.5C 1659.29,285.64 1626.46,281.474 1591.5,294C 1561.94,309.251 1544.78,333.417 1540,366.5C 1536,392.511 1540,417.178 1552,440.5C 1572.24,470.195 1600.4,483.028 1636.5,479C 1656.24,476.795 1673.9,469.628 1689.5,457.5C 1690.82,470.729 1690.82,483.896 1689.5,497C 1667.24,508.923 1643.4,514.756 1618,514.5C 1562.66,513.698 1524.33,488.032 1503,437.5C 1492.49,401.962 1493.16,366.629 1505,331.5C 1525.43,284.239 1561.26,257.905 1612.5,252.5 Z"/></g>
<g><path style="opacity:0.978" fill="#eb3b00" d="M 1821.5,252.5 C 1892.69,247.836 1932.86,280.836 1942,351.5C 1942.95,365.486 1943.45,379.486 1943.5,393.5C 1882.5,393.5 1821.5,393.5 1760.5,393.5C 1765.58,457.724 1800.25,485.891 1864.5,478C 1886.86,474.317 1906.86,465.484 1924.5,451.5C 1925.83,464.5 1925.83,477.5 1924.5,490.5C 1908.75,501.144 1891.41,507.977 1872.5,511C 1842.26,516.904 1812.59,514.904 1783.5,505C 1749.71,489.288 1728.87,463.122 1721,426.5C 1713.13,390.64 1715.79,355.64 1729,321.5C 1748.05,282.573 1778.88,259.573 1821.5,252.5 Z M 1828.5,286.5 C 1862.62,284.452 1885.12,299.452 1896,331.5C 1898.23,340.363 1899.4,349.363 1899.5,358.5C 1853.5,358.5 1807.5,358.5 1761.5,358.5C 1767.43,318.915 1789.76,294.915 1828.5,286.5 Z"/></g>
<g><path style="opacity:0.96" fill="#ea3b00" d="M 1412.5,257.5 C 1426.83,257.5 1441.17,257.5 1455.5,257.5C 1455.5,341.167 1455.5,424.833 1455.5,508.5C 1441.17,508.5 1426.83,508.5 1412.5,508.5C 1412.5,424.833 1412.5,341.167 1412.5,257.5 Z"/></g>
<g><path style="opacity:0.99" fill="#2b5699" d="M 159.5,698.5 C 159.5,703.5 159.5,708.5 159.5,713.5C 182.5,713.5 205.5,713.5 228.5,713.5C 231.148,713.738 232.982,715.072 234,717.5C 234.982,756.56 234.649,795.56 233,834.5C 231.509,836.004 229.676,836.837 227.5,837C 204.836,837.5 182.169,837.667 159.5,837.5C 159.5,842.167 159.5,846.833 159.5,851.5C 153.158,851.666 146.825,851.5 140.5,851C 110.827,846.452 81.1607,841.952 51.5,837.5C 51.5,795.833 51.5,754.167 51.5,712.5C 81.8299,708.048 112.163,703.548 142.5,699C 148.157,698.501 153.824,698.334 159.5,698.5 Z"/></g>
<g><path style="opacity:0.987" fill="#fefefe" d="M 160.5,698.5 C 224.167,698.5 287.833,698.5 351.5,698.5C 321.034,703.615 290.368,708.282 259.5,712.5C 259.5,754.167 259.5,795.833 259.5,837.5C 289.703,841.718 319.703,846.385 349.5,851.5C 286.167,851.5 222.833,851.5 159.5,851.5C 159.5,846.833 159.5,842.167 159.5,837.5C 182.169,837.667 204.836,837.5 227.5,837C 229.676,836.837 231.509,836.004 233,834.5C 234.649,795.56 234.982,756.56 234,717.5C 232.982,715.072 231.148,713.738 228.5,713.5C 206.006,712.503 183.339,712.169 160.5,712.5C 160.5,707.833 160.5,703.167 160.5,698.5 Z"/></g>
<g><path style="opacity:0.999" fill="#227346" d="M 351.5,698.5 C 356.833,698.5 362.167,698.5 367.5,698.5C 367.5,703.5 367.5,708.5 367.5,713.5C 391.169,713.333 414.836,713.5 438.5,714C 439.333,714.833 440.167,715.667 441,716.5C 441.667,754.833 441.667,793.167 441,831.5C 440.626,832.416 440.126,833.25 439.5,834C 415.552,835.46 391.552,835.96 367.5,835.5C 367.5,840.833 367.5,846.167 367.5,851.5C 361.5,851.5 355.5,851.5 349.5,851.5C 319.703,846.385 289.703,841.718 259.5,837.5C 259.5,795.833 259.5,754.167 259.5,712.5C 290.368,708.282 321.034,703.615 351.5,698.5 Z"/></g>
<g><path style="opacity:0.988" fill="#fdfdfd" d="M 367.5,698.5 C 432.833,698.5 498.167,698.5 563.5,698.5C 532.795,703.676 501.962,708.676 471,713.5C 470.5,754.832 470.333,796.165 470.5,837.5C 501.071,841.443 531.404,846.109 561.5,851.5C 496.833,851.5 432.167,851.5 367.5,851.5C 367.5,846.167 367.5,840.833 367.5,835.5C 391.552,835.96 415.552,835.46 439.5,834C 440.126,833.25 440.626,832.416 441,831.5C 441.667,793.167 441.667,754.833 441,716.5C 440.167,715.667 439.333,714.833 438.5,714C 414.836,713.5 391.169,713.333 367.5,713.5C 367.5,708.5 367.5,703.5 367.5,698.5 Z"/></g>
<g><path style="opacity:0.988" fill="#fdfefe" d="M 578.5,698.5 C 643.833,698.5 709.167,698.5 774.5,698.5C 744.032,703.616 713.365,708.282 682.5,712.5C 682.5,754.167 682.5,795.833 682.5,837.5C 712.707,841.689 742.707,846.355 772.5,851.5C 707.833,851.5 643.167,851.5 578.5,851.5C 578.5,845.5 578.5,839.5 578.5,833.5C 602.565,833.97 626.565,833.47 650.5,832C 651.893,830.829 652.727,829.329 653,827.5C 653.667,791.5 653.667,755.5 653,719.5C 651.891,717.185 650.057,715.685 647.5,715C 624.502,714.5 601.502,714.333 578.5,714.5C 578.5,709.167 578.5,703.833 578.5,698.5 Z"/></g>
<g><path style="opacity:0.999" fill="#0571c5" d="M 774.5,698.5 C 779.5,698.5 784.5,698.5 789.5,698.5C 789.5,710.5 789.5,722.5 789.5,734.5C 813.899,734.029 838.232,734.529 862.5,736C 863,736.5 863.5,737 864,737.5C 864.667,762.5 864.667,787.5 864,812.5C 863.691,813.766 863.191,814.933 862.5,816C 838.257,817.48 813.923,817.98 789.5,817.5C 789.5,828.833 789.5,840.167 789.5,851.5C 783.833,851.5 778.167,851.5 772.5,851.5C 742.707,846.355 712.707,841.689 682.5,837.5C 682.5,795.833 682.5,754.167 682.5,712.5C 713.365,708.282 744.032,703.616 774.5,698.5 Z"/></g>
<g><path style="opacity:0.991" fill="#fefefe" d="M 789.5,698.5 C 854.833,698.5 920.167,698.5 985.5,698.5C 955.089,703.972 924.422,708.638 893.5,712.5C 893.5,754.167 893.5,795.833 893.5,837.5C 924.339,841.904 955.006,846.571 985.5,851.5C 920.167,851.5 854.833,851.5 789.5,851.5C 789.5,840.167 789.5,828.833 789.5,817.5C 813.923,817.98 838.257,817.48 862.5,816C 863.191,814.933 863.691,813.766 864,812.5C 864.667,787.5 864.667,762.5 864,737.5C 863.5,737 863,736.5 862.5,736C 838.232,734.529 813.899,734.029 789.5,734.5C 789.5,722.5 789.5,710.5 789.5,698.5 Z"/></g>
<g><path style="opacity:1" fill="#a4383a" d="M 985.5,698.5 C 990.833,698.5 996.167,698.5 1001.5,698.5C 1001.5,703.833 1001.5,709.167 1001.5,714.5C 1021.37,712.348 1041.04,713.515 1060.5,718C 1066.69,719.208 1071.52,722.374 1075,727.5C 1075.67,758.167 1075.67,788.833 1075,819.5C 1071.91,823.928 1067.74,826.761 1062.5,828C 1042.44,833.183 1022.11,834.683 1001.5,832.5C 1001.5,838.833 1001.5,845.167 1001.5,851.5C 996.167,851.5 990.833,851.5 985.5,851.5C 955.006,846.571 924.339,841.904 893.5,837.5C 893.5,795.833 893.5,754.167 893.5,712.5C 924.422,708.638 955.089,703.972 985.5,698.5 Z"/></g>
<g><path style="opacity:0.989" fill="#fdfcfd" d="M 1001.5,698.5 C 1067.5,698.5 1133.5,698.5 1199.5,698.5C 1169.03,703.616 1138.37,708.282 1107.5,712.5C 1107.5,754.167 1107.5,795.833 1107.5,837.5C 1137.71,841.689 1167.71,846.355 1197.5,851.5C 1132.17,851.5 1066.83,851.5 1001.5,851.5C 1001.5,845.167 1001.5,838.833 1001.5,832.5C 1022.11,834.683 1042.44,833.183 1062.5,828C 1067.74,826.761 1071.91,823.928 1075,819.5C 1075.67,788.833 1075.67,758.167 1075,727.5C 1071.52,722.374 1066.69,719.208 1060.5,718C 1041.04,713.515 1021.37,712.348 1001.5,714.5C 1001.5,709.167 1001.5,703.833 1001.5,698.5 Z"/></g>
<g><path style="opacity:1" fill="#743881" d="M 1199.5,698.5 C 1204.5,698.5 1209.5,698.5 1214.5,698.5C 1214.5,703.5 1214.5,708.5 1214.5,713.5C 1229.17,713.5 1243.83,713.5 1258.5,713.5C 1263.65,713.181 1268.65,713.847 1273.5,715.5C 1274.07,717.059 1274.74,718.559 1275.5,720C 1279.25,720.26 1282.92,720.927 1286.5,722C 1287.7,722.903 1288.53,724.069 1289,725.5C 1289.03,752.673 1289.19,779.839 1289.5,807C 1289.58,812.248 1289.08,817.415 1288,822.5C 1287.5,823.667 1286.67,824.5 1285.5,825C 1282.08,825.517 1278.75,826.35 1275.5,827.5C 1275.74,833.219 1273.07,836.385 1267.5,837C 1249.84,837.5 1232.17,837.667 1214.5,837.5C 1214.5,842.167 1214.5,846.833 1214.5,851.5C 1208.83,851.5 1203.17,851.5 1197.5,851.5C 1167.71,846.355 1137.71,841.689 1107.5,837.5C 1107.5,795.833 1107.5,754.167 1107.5,712.5C 1138.37,708.282 1169.03,703.616 1199.5,698.5 Z"/></g>
<g><path style="opacity:0.989" fill="#fefefe" d="M 1215.5,698.5 C 1281.17,698.5 1346.83,698.5 1412.5,698.5C 1382.09,703.972 1351.42,708.638 1320.5,712.5C 1320.5,754.167 1320.5,795.833 1320.5,837.5C 1350.7,841.718 1380.7,846.384 1410.5,851.5C 1345.17,851.5 1279.83,851.5 1214.5,851.5C 1214.5,846.833 1214.5,842.167 1214.5,837.5C 1232.17,837.667 1249.84,837.5 1267.5,837C 1273.07,836.385 1275.74,833.219 1275.5,827.5C 1278.75,826.35 1282.08,825.517 1285.5,825C 1286.67,824.5 1287.5,823.667 1288,822.5C 1289.08,817.415 1289.58,812.248 1289.5,807C 1289.19,779.839 1289.03,752.673 1289,725.5C 1288.53,724.069 1287.7,722.903 1286.5,722C 1282.92,720.927 1279.25,720.26 1275.5,720C 1274.74,718.559 1274.07,717.059 1273.5,715.5C 1268.65,713.847 1263.65,713.181 1258.5,713.5C 1244.34,712.504 1230.01,712.171 1215.5,712.5C 1215.5,707.833 1215.5,703.167 1215.5,698.5 Z"/></g>
<g><path style="opacity:1" fill="#0b7568" d="M 1412.5,698.5 C 1417.83,698.5 1423.17,698.5 1428.5,698.5C 1428.5,709.167 1428.5,719.833 1428.5,730.5C 1433.5,730.5 1438.5,730.5 1443.5,730.5C 1443.33,725.821 1443.5,721.155 1444,716.5C 1444.83,714.333 1446.33,712.833 1448.5,712C 1465.83,711.333 1483.17,711.333 1500.5,712C 1501.93,712.465 1503.1,713.299 1504,714.5C 1505.65,742.747 1505.98,771.08 1505,799.5C 1504.73,801.101 1504.23,802.601 1503.5,804C 1497.23,805.257 1490.9,805.757 1484.5,805.5C 1484.67,812.841 1484.5,820.174 1484,827.5C 1483.73,829.329 1482.89,830.829 1481.5,832C 1463.9,833.459 1446.24,833.959 1428.5,833.5C 1428.5,839.5 1428.5,845.5 1428.5,851.5C 1422.5,851.5 1416.5,851.5 1410.5,851.5C 1380.7,846.384 1350.7,841.718 1320.5,837.5C 1320.5,795.833 1320.5,754.167 1320.5,712.5C 1351.42,708.638 1382.09,703.972 1412.5,698.5 Z"/></g>
<g><path style="opacity:0.989" fill="#fefefe" d="M 1428.5,698.5 C 1493.5,698.5 1558.5,698.5 1623.5,698.5C 1593.09,703.442 1562.59,708.442 1532,713.5C 1531.5,754.832 1531.33,796.165 1531.5,837.5C 1562.08,841.443 1592.41,846.11 1622.5,851.5C 1557.83,851.5 1493.17,851.5 1428.5,851.5C 1428.5,845.5 1428.5,839.5 1428.5,833.5C 1446.24,833.959 1463.9,833.459 1481.5,832C 1482.89,830.829 1483.73,829.329 1484,827.5C 1484.5,820.174 1484.67,812.841 1484.5,805.5C 1490.9,805.757 1497.23,805.257 1503.5,804C 1504.23,802.601 1504.73,801.101 1505,799.5C 1505.98,771.08 1505.65,742.747 1504,714.5C 1503.1,713.299 1501.93,712.465 1500.5,712C 1483.17,711.333 1465.83,711.333 1448.5,712C 1446.33,712.833 1444.83,714.333 1444,716.5C 1443.5,721.155 1443.33,725.821 1443.5,730.5C 1438.5,730.5 1433.5,730.5 1428.5,730.5C 1428.5,719.833 1428.5,709.167 1428.5,698.5 Z"/></g>
<g><path style="opacity:0.999" fill="#0972c5" d="M 1623.5,698.5 C 1628.83,698.5 1634.17,698.5 1639.5,698.5C 1639.5,707.5 1639.5,716.5 1639.5,725.5C 1642.02,725.245 1644.35,724.411 1646.5,723C 1651.07,722.113 1655.41,722.78 1659.5,725C 1663.54,728.7 1667.2,732.7 1670.5,737C 1685.9,736.26 1699.57,740.593 1711.5,750C 1728.66,772.369 1725.33,791.203 1701.5,806.5C 1701.17,807 1700.83,807.5 1700.5,808C 1704.5,816.003 1702.5,822.003 1694.5,826C 1689.3,828.302 1684.3,827.969 1679.5,825C 1675.17,820.667 1670.83,816.333 1666.5,812C 1657.32,812.032 1648.32,810.865 1639.5,808.5C 1639.5,822.833 1639.5,837.167 1639.5,851.5C 1633.83,851.5 1628.17,851.5 1622.5,851.5C 1592.41,846.11 1562.08,841.443 1531.5,837.5C 1531.33,796.165 1531.5,754.832 1532,713.5C 1562.59,708.442 1593.09,703.442 1623.5,698.5 Z"/></g>
<g><path style="opacity:0.991" fill="#fefefe" d="M 1639.5,698.5 C 1704.17,698.5 1768.83,698.5 1833.5,698.5C 1803.03,703.616 1772.37,708.282 1741.5,712.5C 1741.5,754.167 1741.5,795.833 1741.5,837.5C 1771.7,841.717 1801.7,846.384 1831.5,851.5C 1767.5,851.5 1703.5,851.5 1639.5,851.5C 1639.5,837.167 1639.5,822.833 1639.5,808.5C 1648.32,810.865 1657.32,812.032 1666.5,812C 1670.83,816.333 1675.17,820.667 1679.5,825C 1684.3,827.969 1689.3,828.302 1694.5,826C 1702.5,822.003 1704.5,816.003 1700.5,808C 1700.83,807.5 1701.17,807 1701.5,806.5C 1725.33,791.203 1728.66,772.369 1711.5,750C 1699.57,740.593 1685.9,736.26 1670.5,737C 1667.2,732.7 1663.54,728.7 1659.5,725C 1655.41,722.78 1651.07,722.113 1646.5,723C 1644.35,724.411 1642.02,725.245 1639.5,725.5C 1639.5,716.5 1639.5,707.5 1639.5,698.5 Z"/></g>
<g><path style="opacity:0.99" fill="#733881" d="M 1833.5,698.5 C 1838.83,698.5 1844.17,698.5 1849.5,698.5C 1849.5,711.5 1849.5,724.5 1849.5,737.5C 1864.5,737.5 1879.5,737.5 1894.5,737.5C 1894.5,735.5 1894.5,733.5 1894.5,731.5C 1890.18,731.464 1886.34,730.131 1883,727.5C 1882.33,725.167 1882.33,722.833 1883,720.5C 1887.26,715.114 1892.1,710.281 1897.5,706C 1903.3,700.605 1909.3,700.272 1915.5,705C 1921.67,709.833 1927.17,715.333 1932,721.5C 1932.38,724.369 1931.54,726.869 1929.5,729C 1926.62,730.302 1923.62,731.135 1920.5,731.5C 1920.67,752.503 1920.5,773.503 1920,794.5C 1919.83,799.333 1917.33,801.833 1912.5,802C 1897.84,802.5 1883.17,802.667 1868.5,802.5C 1868.26,804.467 1868.59,806.301 1869.5,808C 1877.14,807.643 1880.64,811.143 1880,818.5C 1874.78,825.356 1868.61,831.189 1861.5,836C 1857.91,837.741 1854.24,837.908 1850.5,836.5C 1849.51,841.456 1849.17,846.456 1849.5,851.5C 1843.5,851.5 1837.5,851.5 1831.5,851.5C 1801.7,846.384 1771.7,841.717 1741.5,837.5C 1741.5,795.833 1741.5,754.167 1741.5,712.5C 1772.37,708.282 1803.03,703.616 1833.5,698.5 Z"/></g>
<g><path style="opacity:1" fill="#d24727" d="M 563.5,698.5 C 568.5,698.5 573.5,698.5 578.5,698.5C 578.5,703.833 578.5,709.167 578.5,714.5C 601.502,714.333 624.502,714.5 647.5,715C 650.057,715.685 651.891,717.185 653,719.5C 653.667,755.5 653.667,791.5 653,827.5C 652.727,829.329 651.893,830.829 650.5,832C 626.565,833.47 602.565,833.97 578.5,833.5C 578.5,839.5 578.5,845.5 578.5,851.5C 572.833,851.5 567.167,851.5 561.5,851.5C 531.404,846.109 501.071,841.443 470.5,837.5C 470.333,796.165 470.5,754.832 471,713.5C 501.962,708.676 532.795,703.676 563.5,698.5 Z"/></g>
<g><path style="opacity:1" fill="#f9f7fa" d="M 1905.5,707.5 C 1907.31,707.491 1908.98,707.991 1910.5,709C 1915.63,713.133 1920.47,717.633 1925,722.5C 1925.48,723.448 1925.65,724.448 1925.5,725.5C 1921.5,725.5 1917.5,725.5 1913.5,725.5C 1913.5,749.167 1913.5,772.833 1913.5,796.5C 1898.17,796.5 1882.83,796.5 1867.5,796.5C 1867.5,792.833 1867.5,789.167 1867.5,785.5C 1878.5,785.5 1889.5,785.5 1900.5,785.5C 1900.5,765.5 1900.5,745.5 1900.5,725.5C 1896.45,725.824 1892.45,725.491 1888.5,724.5C 1889.53,723.3 1890.36,721.966 1891,720.5C 1896.03,716.301 1900.86,711.968 1905.5,707.5 Z"/></g>
<g><path style="opacity:0.753" fill="#b3c3da" d="M 159.5,698.5 C 159.833,698.5 160.167,698.5 160.5,698.5C 160.5,703.167 160.5,707.833 160.5,712.5C 183.339,712.169 206.006,712.503 228.5,713.5C 205.5,713.5 182.5,713.5 159.5,713.5C 159.5,708.5 159.5,703.5 159.5,698.5 Z"/></g>
<g><path style="opacity:0.759" fill="#d4c2d9" d="M 1214.5,698.5 C 1214.83,698.5 1215.17,698.5 1215.5,698.5C 1215.5,703.167 1215.5,707.833 1215.5,712.5C 1230.01,712.171 1244.34,712.504 1258.5,713.5C 1243.83,713.5 1229.17,713.5 1214.5,713.5C 1214.5,708.5 1214.5,703.5 1214.5,698.5 Z"/></g>
<g><path style="opacity:1" fill="#fdfefe" d="M 1498.5,716.5 C 1498.5,743.5 1498.5,770.5 1498.5,797.5C 1493.83,797.5 1489.17,797.5 1484.5,797.5C 1484.83,776.156 1484.5,754.823 1483.5,733.5C 1473.12,728.72 1463.12,723.387 1453.5,717.5C 1468.49,716.501 1483.49,716.167 1498.5,716.5 Z"/></g>
<g><path style="opacity:1" fill="#71afa7" d="M 1498.5,716.5 C 1499.5,743.662 1499.83,770.995 1499.5,798.5C 1494.31,798.821 1489.31,798.487 1484.5,797.5C 1489.17,797.5 1493.83,797.5 1498.5,797.5C 1498.5,770.5 1498.5,743.5 1498.5,716.5 Z"/></g>
<g><path style="opacity:1" fill="#fcfdfd" d="M 228.5,718.5 C 228.5,756.167 228.5,793.833 228.5,831.5C 205.833,831.5 183.167,831.5 160.5,831.5C 160.5,826.833 160.5,822.167 160.5,817.5C 178.167,817.5 195.833,817.5 213.5,817.5C 213.5,815.167 213.5,812.833 213.5,810.5C 195.5,810.5 177.5,810.5 159.5,810.5C 159.5,807.5 159.5,804.5 159.5,801.5C 177.5,801.5 195.5,801.5 213.5,801.5C 213.5,799.167 213.5,796.833 213.5,794.5C 195.833,794.5 178.167,794.5 160.5,794.5C 160.5,791.833 160.5,789.167 160.5,786.5C 178.341,786.83 196.008,786.497 213.5,785.5C 213.5,783.167 213.5,780.833 213.5,778.5C 195.833,778.5 178.167,778.5 160.5,778.5C 160.5,775.833 160.5,773.167 160.5,770.5C 178.341,770.83 196.008,770.497 213.5,769.5C 213.5,767.167 213.5,764.833 213.5,762.5C 195.833,762.5 178.167,762.5 160.5,762.5C 160.5,759.833 160.5,757.167 160.5,754.5C 178.341,754.83 196.008,754.497 213.5,753.5C 213.5,751.167 213.5,748.833 213.5,746.5C 195.833,746.5 178.167,746.5 160.5,746.5C 160.5,743.833 160.5,741.167 160.5,738.5C 178.341,738.83 196.008,738.497 213.5,737.5C 213.5,735.5 213.5,733.5 213.5,731.5C 196.008,730.503 178.341,730.17 160.5,730.5C 160.5,726.5 160.5,722.5 160.5,718.5C 183.167,718.5 205.833,718.5 228.5,718.5 Z"/></g>
<g><path style="opacity:1" fill="#fafcfb" d="M 383.5,741.5 C 384.485,737.366 384.818,733.032 384.5,728.5C 378.833,728.5 373.167,728.5 367.5,728.5C 367.5,725.167 367.5,721.833 367.5,718.5C 390.167,718.5 412.833,718.5 435.5,718.5C 435.5,755.833 435.5,793.167 435.5,830.5C 412.833,830.5 390.167,830.5 367.5,830.5C 367.5,826.833 367.5,823.167 367.5,819.5C 372.833,819.5 378.167,819.5 383.5,819.5C 383.5,815.5 383.5,811.5 383.5,807.5C 378.167,807.5 372.833,807.5 367.5,807.5C 367.5,804.833 367.5,802.167 367.5,799.5C 372.833,799.5 378.167,799.5 383.5,799.5C 383.5,795.5 383.5,791.5 383.5,787.5C 378.167,787.5 372.833,787.5 367.5,787.5C 367.5,785.167 367.5,782.833 367.5,780.5C 372.833,780.5 378.167,780.5 383.5,780.5C 383.5,776.5 383.5,772.5 383.5,768.5C 378.167,768.5 372.833,768.5 367.5,768.5C 367.5,765.833 367.5,763.167 367.5,760.5C 372.833,760.5 378.167,760.5 383.5,760.5C 383.5,756.5 383.5,752.5 383.5,748.5C 378.167,748.5 372.833,748.5 367.5,748.5C 367.5,746.167 367.5,743.833 367.5,741.5C 372.833,741.5 378.167,741.5 383.5,741.5 Z"/></g>
<g><path style="opacity:1" fill="#fdfbfb" d="M 1004.5,718.5 C 1021.98,717.721 1039.31,718.888 1056.5,722C 1059.99,722.942 1063.33,724.275 1066.5,726C 1070.58,729.697 1070.25,733.03 1065.5,736C 1044.65,743.43 1023.32,745.263 1001.5,741.5C 1001.5,734.167 1001.5,726.833 1001.5,719.5C 1002.79,719.737 1003.79,719.404 1004.5,718.5 Z"/></g>
<g><path style="opacity:1" fill="#fdfcfd" d="M 1268.5,718.5 C 1268.5,720.833 1268.5,723.167 1268.5,725.5C 1273.5,725.5 1278.5,725.5 1283.5,725.5C 1283.5,734.833 1283.5,744.167 1283.5,753.5C 1278.5,753.5 1273.5,753.5 1268.5,753.5C 1268.5,779.5 1268.5,805.5 1268.5,831.5C 1250.83,831.5 1233.17,831.5 1215.5,831.5C 1215.5,826.833 1215.5,822.167 1215.5,817.5C 1228.5,817.5 1241.5,817.5 1254.5,817.5C 1254.5,815.167 1254.5,812.833 1254.5,810.5C 1241.17,810.5 1227.83,810.5 1214.5,810.5C 1214.5,807.5 1214.5,804.5 1214.5,801.5C 1227.83,801.5 1241.17,801.5 1254.5,801.5C 1254.5,799.167 1254.5,796.833 1254.5,794.5C 1241.17,794.5 1227.83,794.5 1214.5,794.5C 1214.5,791.5 1214.5,788.5 1214.5,785.5C 1227.83,785.5 1241.17,785.5 1254.5,785.5C 1254.5,783.167 1254.5,780.833 1254.5,778.5C 1241.17,778.5 1227.83,778.5 1214.5,778.5C 1214.5,775.5 1214.5,772.5 1214.5,769.5C 1227.83,769.5 1241.17,769.5 1254.5,769.5C 1254.5,767.167 1254.5,764.833 1254.5,762.5C 1241.17,762.5 1227.83,762.5 1214.5,762.5C 1214.5,759.5 1214.5,756.5 1214.5,753.5C 1227.83,753.5 1241.17,753.5 1254.5,753.5C 1254.5,751.167 1254.5,748.833 1254.5,746.5C 1241.5,746.5 1228.5,746.5 1215.5,746.5C 1215.5,743.833 1215.5,741.167 1215.5,738.5C 1228.68,738.829 1241.68,738.495 1254.5,737.5C 1254.5,735.167 1254.5,732.833 1254.5,730.5C 1241.5,730.5 1228.5,730.5 1215.5,730.5C 1215.5,726.5 1215.5,722.5 1215.5,718.5C 1233.17,718.5 1250.83,718.5 1268.5,718.5 Z"/></g>
<g><path style="opacity:1" fill="#fefbfb" d="M 578.5,720.5 C 601.167,720.5 623.833,720.5 646.5,720.5C 646.5,756.5 646.5,792.5 646.5,828.5C 623.833,828.5 601.167,828.5 578.5,828.5C 578.5,823.833 578.5,819.167 578.5,814.5C 595.167,814.5 611.833,814.5 628.5,814.5C 628.5,812.167 628.5,809.833 628.5,807.5C 611.833,807.5 595.167,807.5 578.5,807.5C 578.5,804.5 578.5,801.5 578.5,798.5C 595.167,798.5 611.833,798.5 628.5,798.5C 628.5,796.167 628.5,793.833 628.5,791.5C 611.833,791.5 595.167,791.5 578.5,791.5C 578.177,787.774 578.511,784.107 579.5,780.5C 592.208,783.95 603.041,780.95 612,771.5C 613.664,768.673 614.83,765.673 615.5,762.5C 616.434,761.432 616.768,760.099 616.5,758.5C 607.5,758.5 598.5,758.5 589.5,758.5C 589.825,750.981 589.492,743.648 588.5,736.5C 585.167,736.833 581.833,737.167 578.5,737.5C 578.5,731.833 578.5,726.167 578.5,720.5 Z"/></g>
<g><path style="opacity:1" fill="#e8a190" d="M 578.5,720.5 C 601.327,719.502 624.327,719.169 647.5,719.5C 647.832,756.004 647.498,792.337 646.5,828.5C 646.5,792.5 646.5,756.5 646.5,720.5C 623.833,720.5 601.167,720.5 578.5,720.5 Z"/></g>
<g><path style="opacity:1" fill="#98bea9" d="M 367.5,728.5 C 373.167,728.5 378.833,728.5 384.5,728.5C 384.818,733.032 384.485,737.366 383.5,741.5C 383.5,737.5 383.5,733.5 383.5,729.5C 377.974,729.821 372.64,729.488 367.5,728.5 Z"/></g>
<g><path style="opacity:1" fill="#8cb69f" d="M 420.5,741.5 C 420.5,737.5 420.5,733.5 420.5,729.5C 411.167,729.5 401.833,729.5 392.5,729.5C 392.5,733.5 392.5,737.5 392.5,741.5C 391.515,737.366 391.182,733.032 391.5,728.5C 401.5,728.5 411.5,728.5 421.5,728.5C 421.818,733.032 421.485,737.366 420.5,741.5 Z"/></g>
<g><path style="opacity:1" fill="#f8fbfd" d="M 1647.5,727.5 C 1650.32,727.248 1652.99,727.748 1655.5,729C 1664.28,738.071 1672.95,747.238 1681.5,756.5C 1672.18,757.332 1662.85,757.832 1653.5,758C 1647.16,759.675 1642.66,763.508 1640,769.5C 1639.33,762.167 1639.33,754.833 1640,747.5C 1642.4,746.144 1644.9,744.977 1647.5,744C 1643.58,740.672 1642.08,736.505 1643,731.5C 1644.4,729.93 1645.9,728.596 1647.5,727.5 Z"/></g>
<g><path style="opacity:1" fill="#227346" d="M 420.5,741.5 C 411.167,741.5 401.833,741.5 392.5,741.5C 392.5,737.5 392.5,733.5 392.5,729.5C 401.833,729.5 411.167,729.5 420.5,729.5C 420.5,733.5 420.5,737.5 420.5,741.5 Z"/></g>
<g><path style="opacity:1" fill="#6483b4" d="M 228.5,718.5 C 205.833,718.5 183.167,718.5 160.5,718.5C 160.5,722.5 160.5,726.5 160.5,730.5C 178.341,730.17 196.008,730.503 213.5,731.5C 195.5,731.5 177.5,731.5 159.5,731.5C 159.5,726.833 159.5,722.167 159.5,717.5C 182.673,717.169 205.673,717.502 228.5,718.5 Z"/></g>
<g><path style="opacity:1" fill="#996da3" d="M 1268.5,718.5 C 1250.83,718.5 1233.17,718.5 1215.5,718.5C 1215.5,722.5 1215.5,726.5 1215.5,730.5C 1228.5,730.5 1241.5,730.5 1254.5,730.5C 1254.5,732.833 1254.5,735.167 1254.5,737.5C 1254.17,737.5 1253.83,737.5 1253.5,737.5C 1253.5,735.5 1253.5,733.5 1253.5,731.5C 1240.5,731.5 1227.5,731.5 1214.5,731.5C 1214.5,726.833 1214.5,722.167 1214.5,717.5C 1232.67,717.17 1250.67,717.503 1268.5,718.5 Z"/></g>
<g><path style="opacity:1" fill="#d24726" d="M 593.5,732.5 C 608.37,733.416 617.37,741.083 620.5,755.5C 611.5,755.5 602.5,755.5 593.5,755.5C 593.5,747.833 593.5,740.167 593.5,732.5 Z"/></g>
<g><path style="opacity:1" fill="#fafcfc" d="M 1428.5,736.5 C 1444.17,736.5 1459.83,736.5 1475.5,736.5C 1475.5,767.167 1475.5,797.833 1475.5,828.5C 1459.83,828.5 1444.17,828.5 1428.5,828.5C 1428.5,824.833 1428.5,821.167 1428.5,817.5C 1440.17,817.5 1451.83,817.5 1463.5,817.5C 1463.5,815.167 1463.5,812.833 1463.5,810.5C 1451.83,810.5 1440.17,810.5 1428.5,810.5C 1428.5,807.5 1428.5,804.5 1428.5,801.5C 1440.17,801.5 1451.83,801.5 1463.5,801.5C 1463.5,799.167 1463.5,796.833 1463.5,794.5C 1451.83,794.5 1440.17,794.5 1428.5,794.5C 1428.5,791.5 1428.5,788.5 1428.5,785.5C 1440.17,785.5 1451.83,785.5 1463.5,785.5C 1463.5,783.167 1463.5,780.833 1463.5,778.5C 1451.83,778.5 1440.17,778.5 1428.5,778.5C 1428.5,775.5 1428.5,772.5 1428.5,769.5C 1440.17,769.5 1451.83,769.5 1463.5,769.5C 1463.5,761.167 1463.5,752.833 1463.5,744.5C 1451.83,744.5 1440.17,744.5 1428.5,744.5C 1428.5,741.833 1428.5,739.167 1428.5,736.5 Z"/></g>
<g><path style="opacity:1" fill="#92c2bc" d="M 1428.5,736.5 C 1444.32,735.504 1460.32,735.17 1476.5,735.5C 1476.83,766.671 1476.5,797.671 1475.5,828.5C 1475.5,797.833 1475.5,767.167 1475.5,736.5C 1459.83,736.5 1444.17,736.5 1428.5,736.5 Z"/></g>
<g><path style="opacity:1" fill="#b3c3da" d="M 213.5,737.5 C 196.008,738.497 178.341,738.83 160.5,738.5C 160.5,741.167 160.5,743.833 160.5,746.5C 159.523,743.713 159.19,740.713 159.5,737.5C 177.5,737.5 195.5,737.5 213.5,737.5 Z"/></g>
<g><path style="opacity:1" fill="#cdb8d2" d="M 1253.5,737.5 C 1253.83,737.5 1254.17,737.5 1254.5,737.5C 1241.68,738.495 1228.68,738.829 1215.5,738.5C 1215.5,741.167 1215.5,743.833 1215.5,746.5C 1214.52,743.713 1214.19,740.713 1214.5,737.5C 1227.5,737.5 1240.5,737.5 1253.5,737.5 Z"/></g>
<g><path style="opacity:1" fill="#fbfcfe" d="M 789.5,739.5 C 812.5,739.5 835.5,739.5 858.5,739.5C 858.451,742.099 857.451,744.266 855.5,746C 841.833,756.833 828.167,767.667 814.5,778.5C 806.5,772.167 798.5,765.833 790.5,759.5C 789.503,752.866 789.17,746.2 789.5,739.5 Z"/></g>
<g><path style="opacity:1" fill="#fefcfc" d="M 1067.5,740.5 C 1068.82,743.768 1069.49,747.435 1069.5,751.5C 1069.33,755.167 1069.17,758.833 1069,762.5C 1067.42,764.041 1065.59,765.208 1063.5,766C 1043.12,771.325 1022.45,772.825 1001.5,770.5C 1001.5,762.833 1001.5,755.167 1001.5,747.5C 1021.03,749.531 1040.37,748.364 1059.5,744C 1062.48,743.295 1065.14,742.129 1067.5,740.5 Z"/></g>
<g><path style="opacity:1" fill="#fafcfe" d="M 1675.5,743.5 C 1688.89,742.357 1700.39,746.691 1710,756.5C 1720.31,772.537 1718.15,786.704 1703.5,799C 1699.65,801.425 1695.65,803.592 1691.5,805.5C 1694.99,808.809 1696.49,812.809 1696,817.5C 1692.15,821.671 1687.65,822.504 1682.5,820C 1674.17,811 1665.83,802 1657.5,793C 1665.83,792.667 1674.17,792.333 1682.5,792C 1696.63,788.561 1701.46,780.061 1697,766.5C 1689.97,758.636 1682.8,750.969 1675.5,743.5 Z"/></g>
<g><path style="opacity:1" fill="#fefefe" d="M 1849.5,743.5 C 1864.5,743.5 1879.5,743.5 1894.5,743.5C 1894.5,746.833 1894.5,750.167 1894.5,753.5C 1883.5,753.5 1872.5,753.5 1861.5,753.5C 1861.5,773.833 1861.5,794.167 1861.5,814.5C 1865.55,814.176 1869.55,814.509 1873.5,815.5C 1869.25,821.789 1863.92,826.956 1857.5,831C 1854.36,832.041 1851.86,831.207 1850,828.5C 1849.5,800.169 1849.33,771.835 1849.5,743.5 Z"/></g>
<g><path style="opacity:1" fill="#fafbfa" d="M 320.5,745.5 C 325.179,745.334 329.845,745.501 334.5,746C 328.907,755.187 323.573,764.52 318.5,774C 324.151,783.657 329.817,793.323 335.5,803C 330.467,803.829 325.467,803.662 320.5,802.5C 316.984,795.469 313.484,788.469 310,781.5C 306.833,787.833 303.667,794.167 300.5,800.5C 295.869,801.662 291.202,801.828 286.5,801C 291.708,792.084 297.041,783.25 302.5,774.5C 297.833,765.833 293.167,757.167 288.5,748.5C 292.78,747.256 297.114,746.756 301.5,747C 304.633,753.434 307.633,759.934 310.5,766.5C 314.113,759.608 317.446,752.608 320.5,745.5 Z"/></g>
<g><path style="opacity:1" fill="#fef7f5" d="M 512.5,744.5 C 521.917,743.377 530.75,745.044 539,749.5C 547.521,763.747 544.354,774.58 529.5,782C 525.179,782.499 520.846,782.666 516.5,782.5C 516.5,789.5 516.5,796.5 516.5,803.5C 512.143,803.414 507.81,803.08 503.5,802.5C 503.5,783.5 503.5,764.5 503.5,745.5C 506.713,745.81 509.713,745.477 512.5,744.5 Z"/></g>
<g><path style="opacity:1" fill="#fafcfd" d="M 726.5,745.5 C 751.033,743.547 762.533,754.88 761,779.5C 756.98,797.52 745.814,805.353 727.5,803C 716.789,799.624 710.289,792.457 708,781.5C 704.949,764.599 711.116,752.599 726.5,745.5 Z"/></g>
<g><path style="opacity:1" fill="#fdfafa" d="M 940.5,744.5 C 944.106,744.211 947.606,744.544 951,745.5C 958.006,765.018 964.506,784.685 970.5,804.5C 965.848,804.002 961.181,803.669 956.5,803.5C 955.467,798.902 954.134,794.402 952.5,790C 946.167,789.333 939.833,789.333 933.5,790C 932.167,794 930.833,798 929.5,802C 925.432,802.3 921.432,801.8 917.5,800.5C 923.634,782.933 929.467,765.266 935,747.5C 936.649,746.047 938.482,745.047 940.5,744.5 Z"/></g>
<g><path style="opacity:1" fill="#fdfcfd" d="M 1171.5,745.5 C 1175.5,745.5 1179.5,745.5 1183.5,745.5C 1183.5,764.833 1183.5,784.167 1183.5,803.5C 1178.9,803.8 1174.4,803.467 1170,802.5C 1161.75,789.667 1153.75,776.667 1146,763.5C 1145.5,776.162 1145.33,788.829 1145.5,801.5C 1141.83,801.5 1138.17,801.5 1134.5,801.5C 1134.5,783.167 1134.5,764.833 1134.5,746.5C 1138.88,746.174 1143.22,746.508 1147.5,747.5C 1155.53,759.7 1163.36,772.033 1171,784.5C 1171.5,771.504 1171.67,758.504 1171.5,745.5 Z"/></g>
<g><path style="opacity:1" fill="#986ca2" d="M 1171.5,745.5 C 1175.63,744.515 1179.97,744.182 1184.5,744.5C 1184.83,764.34 1184.5,784.007 1183.5,803.5C 1183.5,784.167 1183.5,764.833 1183.5,745.5C 1179.5,745.5 1175.5,745.5 1171.5,745.5 Z"/></g>
<g><path style="opacity:1" fill="#f9fbfb" d="M 1354.5,802.5 C 1354.5,783.833 1354.5,765.167 1354.5,746.5C 1356.41,746.784 1358.08,746.451 1359.5,745.5C 1368,743.704 1376.33,744.204 1384.5,747C 1392.19,751.73 1395.03,758.563 1393,767.5C 1388.36,779.579 1379.52,784.579 1366.5,782.5C 1366.5,789.5 1366.5,796.5 1366.5,803.5C 1362.5,803.167 1358.5,802.833 1354.5,802.5 Z"/></g>
<g><path style="opacity:1" fill="#c9b2cf" d="M 1787.5,745.5 C 1787.18,765.243 1787.51,784.909 1788.5,804.5C 1787.17,795.023 1786.5,785.19 1786.5,775C 1786.5,764.994 1786.83,755.161 1787.5,745.5 Z"/></g>
<g><path style="opacity:1" fill="#fdfcfd" d="M 1788.5,804.5 C 1787.51,784.909 1787.18,765.243 1787.5,745.5C 1791.47,744.838 1795.47,744.505 1799.5,744.5C 1799.5,764.833 1799.5,785.167 1799.5,805.5C 1795.88,804.756 1792.21,804.423 1788.5,804.5 Z"/></g>
<g><path style="opacity:1" fill="#b8d7d4" d="M 1359.5,745.5 C 1358.08,746.451 1356.41,746.784 1354.5,746.5C 1354.5,765.167 1354.5,783.833 1354.5,802.5C 1353.5,783.674 1353.17,764.674 1353.5,745.5C 1355.5,745.5 1357.5,745.5 1359.5,745.5 Z"/></g>
<g><path style="opacity:1" fill="#fdfefe" d="M 1571.5,747.5 C 1575.5,747.5 1579.5,747.5 1583.5,747.5C 1583.17,763.009 1583.5,778.342 1584.5,793.5C 1591.17,793.833 1597.83,794.167 1604.5,794.5C 1604.5,797.833 1604.5,801.167 1604.5,804.5C 1593.48,804.619 1582.48,804.286 1571.5,803.5C 1571.5,784.833 1571.5,766.167 1571.5,747.5 Z"/></g>
<g><path style="opacity:1" fill="#87bbe3" d="M 1571.5,747.5 C 1575.63,746.515 1579.97,746.182 1584.5,746.5C 1584.5,762.167 1584.5,777.833 1584.5,793.5C 1583.5,778.342 1583.17,763.009 1583.5,747.5C 1579.5,747.5 1575.5,747.5 1571.5,747.5 Z"/></g>
<g><path style="opacity:1" fill="#f7f8fb" d="M 122.5,747.5 C 126.884,747.174 131.217,747.508 135.5,748.5C 130.366,765.37 125.699,782.37 121.5,799.5C 117.116,799.826 112.783,799.492 108.5,798.5C 105.353,787.244 102.519,775.911 100,764.5C 97.4964,775.846 94.9964,787.18 92.5,798.5C 88.1667,798.5 83.8333,798.5 79.5,798.5C 75.8498,782.566 72.5165,766.566 69.5,750.5C 73.1667,750.5 76.8333,750.5 80.5,750.5C 82.3956,761.479 84.2289,772.479 86,783.5C 89.1398,772.274 91.9731,760.941 94.5,749.5C 98.8333,749.5 103.167,749.5 107.5,749.5C 109.355,760.624 111.855,771.624 115,782.5C 117.948,770.928 120.448,759.261 122.5,747.5 Z"/></g>
<g><path style="opacity:1" fill="#207244" d="M 420.5,748.5 C 420.5,752.5 420.5,756.5 420.5,760.5C 411.167,760.5 401.833,760.5 392.5,760.5C 392.5,756.5 392.5,752.5 392.5,748.5C 401.833,748.5 411.167,748.5 420.5,748.5 Z"/></g>
<g><path style="opacity:1" fill="#fcfdfe" d="M 857.5,750.5 C 858.497,770.993 858.831,791.66 858.5,812.5C 835.833,812.5 813.167,812.5 790.5,812.5C 790.333,797.163 790.5,781.83 791,766.5C 797.833,772 804.667,777.5 811.5,783C 813.167,783.667 814.833,783.667 816.5,783C 830.642,772.683 844.308,761.85 857.5,750.5 Z"/></g>
<g><path style="opacity:1" fill="#b3c3da" d="M 213.5,753.5 C 196.008,754.497 178.341,754.83 160.5,754.5C 160.5,757.167 160.5,759.833 160.5,762.5C 159.523,759.713 159.19,756.713 159.5,753.5C 177.5,753.5 195.5,753.5 213.5,753.5 Z"/></g>
<g><path style="opacity:1" fill="#a27aab" d="M 1283.5,753.5 C 1279.03,754.486 1274.36,754.819 1269.5,754.5C 1269.83,780.339 1269.5,806.005 1268.5,831.5C 1268.5,805.5 1268.5,779.5 1268.5,753.5C 1273.5,753.5 1278.5,753.5 1283.5,753.5 Z"/></g>
<g><path style="opacity:1" fill="#d24827" d="M 516.5,755.5 C 529.096,754.087 532.763,759.087 527.5,770.5C 524.05,772.224 520.383,772.891 516.5,772.5C 516.5,766.833 516.5,761.167 516.5,755.5 Z"/></g>
<g><path style="opacity:1" fill="#0b7568" d="M 1366.5,755.5 C 1377.33,753.496 1381.5,757.83 1379,768.5C 1375.61,772.039 1371.45,773.372 1366.5,772.5C 1366.5,766.833 1366.5,761.167 1366.5,755.5 Z"/></g>
<g><path style="opacity:1" fill="#0d73c6" d="M 730.5,755.5 C 738.584,755.12 743.751,758.787 746,766.5C 747.397,774.231 746.397,781.564 743,788.5C 732.586,795.469 724.92,793.135 720,781.5C 716.671,769.851 720.171,761.184 730.5,755.5 Z"/></g>
<g><path style="opacity:1" fill="#edb5a8" d="M 588.5,736.5 C 589.492,743.648 589.825,750.981 589.5,758.5C 598.5,758.5 607.5,758.5 616.5,758.5C 616.768,760.099 616.434,761.432 615.5,762.5C 615.5,761.5 615.5,760.5 615.5,759.5C 606.5,759.5 597.5,759.5 588.5,759.5C 588.5,751.833 588.5,744.167 588.5,736.5 Z"/></g>
<g><path style="opacity:1" fill="#ab4848" d="M 942.5,755.5 C 945.28,763.608 947.613,771.941 949.5,780.5C 945.167,780.5 940.833,780.5 936.5,780.5C 938.343,772.127 940.343,763.794 942.5,755.5 Z"/></g>
<g><path style="opacity:1" fill="#b190b9" d="M 1282.5,759.5 C 1280.17,759.5 1277.83,759.5 1275.5,759.5C 1275.5,768.833 1275.5,778.167 1275.5,787.5C 1274.51,778.014 1274.17,768.348 1274.5,758.5C 1277.39,758.194 1280.05,758.527 1282.5,759.5 Z"/></g>
<g><path style="opacity:1" fill="#fbfafb" d="M 1282.5,759.5 C 1283.49,768.652 1283.83,777.985 1283.5,787.5C 1280.83,787.5 1278.17,787.5 1275.5,787.5C 1275.5,778.167 1275.5,768.833 1275.5,759.5C 1277.83,759.5 1280.17,759.5 1282.5,759.5 Z"/></g>
<g><path style="opacity:1" fill="#f9f711" d="M 1867.5,758.5 C 1876.5,758.5 1885.5,758.5 1894.5,758.5C 1894.5,765.833 1894.5,773.167 1894.5,780.5C 1885.5,780.5 1876.5,780.5 1867.5,780.5C 1867.5,773.167 1867.5,765.833 1867.5,758.5 Z"/></g>
<g><path style="opacity:1" fill="#9bc0ac" d="M 420.5,748.5 C 421.485,752.634 421.818,756.968 421.5,761.5C 411.652,761.827 401.986,761.494 392.5,760.5C 401.833,760.5 411.167,760.5 420.5,760.5C 420.5,756.5 420.5,752.5 420.5,748.5 Z"/></g>
<g><path style="opacity:1" fill="#fbfdfe" d="M 1654.5,762.5 C 1664.91,762.074 1675.25,762.574 1685.5,764C 1691.91,767.323 1694.07,772.489 1692,779.5C 1689.83,783.01 1686.66,785.177 1682.5,786C 1673.17,786.667 1663.83,786.667 1654.5,786C 1645.37,782.251 1643.21,776.084 1648,767.5C 1650.35,765.97 1652.52,764.303 1654.5,762.5 Z"/></g>
<g><path style="opacity:1" fill="#90b8a2" d="M 392.5,768.5 C 401.986,767.506 411.652,767.173 421.5,767.5C 421.818,772.032 421.485,776.366 420.5,780.5C 420.5,776.5 420.5,772.5 420.5,768.5C 411.167,768.5 401.833,768.5 392.5,768.5 Z"/></g>
<g><path style="opacity:1" fill="#217245" d="M 392.5,768.5 C 401.833,768.5 411.167,768.5 420.5,768.5C 420.5,772.5 420.5,776.5 420.5,780.5C 411.167,780.5 401.833,780.5 392.5,780.5C 392.5,776.5 392.5,772.5 392.5,768.5 Z"/></g>
<g><path style="opacity:1" fill="#fdfcfc" d="M 1067.5,768.5 C 1068.82,771.768 1069.49,775.435 1069.5,779.5C 1069.33,783.167 1069.17,786.833 1069,790.5C 1065.09,793.807 1060.59,795.974 1055.5,797C 1037.58,799.265 1019.58,800.098 1001.5,799.5C 1001.5,791.833 1001.5,784.167 1001.5,776.5C 1020.3,777.263 1038.97,776.097 1057.5,773C 1061.23,772.156 1064.56,770.656 1067.5,768.5 Z"/></g>
<g><path style="opacity:1" fill="#c0cde1" d="M 213.5,769.5 C 196.008,770.497 178.341,770.83 160.5,770.5C 160.5,773.167 160.5,775.833 160.5,778.5C 159.523,775.713 159.19,772.713 159.5,769.5C 177.5,769.5 195.5,769.5 213.5,769.5 Z"/></g>
<g><path style="opacity:1" fill="#f2f7fc" d="M 1639.5,779.5 C 1646.37,788.715 1654.04,797.382 1662.5,805.5C 1654.55,806.798 1647.05,805.464 1640,801.5C 1639.5,794.174 1639.33,786.841 1639.5,779.5 Z"/></g>
<g><path style="opacity:1" fill="#c0cde1" d="M 213.5,785.5 C 196.008,786.497 178.341,786.83 160.5,786.5C 160.5,789.167 160.5,791.833 160.5,794.5C 159.523,791.713 159.19,788.713 159.5,785.5C 177.5,785.5 195.5,785.5 213.5,785.5 Z"/></g>
<g><path style="opacity:1" fill="#207244" d="M 420.5,787.5 C 420.5,791.5 420.5,795.5 420.5,799.5C 411.167,799.5 401.833,799.5 392.5,799.5C 392.5,795.5 392.5,791.5 392.5,787.5C 401.833,787.5 411.167,787.5 420.5,787.5 Z"/></g>
<g><path style="opacity:1" fill="#b89abf" d="M 1283.5,793.5 C 1280.83,793.5 1278.17,793.5 1275.5,793.5C 1275.5,802.5 1275.5,811.5 1275.5,820.5C 1278.17,820.5 1280.83,820.5 1283.5,820.5C 1280.71,821.477 1277.71,821.81 1274.5,821.5C 1274.5,811.833 1274.5,802.167 1274.5,792.5C 1277.71,792.19 1280.71,792.523 1283.5,793.5 Z"/></g>
<g><path style="opacity:1" fill="#fbfafb" d="M 1283.5,793.5 C 1283.5,802.5 1283.5,811.5 1283.5,820.5C 1280.83,820.5 1278.17,820.5 1275.5,820.5C 1275.5,811.5 1275.5,802.5 1275.5,793.5C 1278.17,793.5 1280.83,793.5 1283.5,793.5 Z"/></g>
<g><path style="opacity:1" fill="#fdfcfc" d="M 1068.5,796.5 C 1069.66,803.989 1069.82,811.655 1069,819.5C 1058.53,824.908 1047.37,827.741 1035.5,828C 1024.14,828.717 1012.81,828.551 1001.5,827.5C 1001.5,819.833 1001.5,812.167 1001.5,804.5C 1022.12,806.78 1042.45,805.28 1062.5,800C 1064.73,799.059 1066.73,797.892 1068.5,796.5 Z"/></g>
<g><path style="opacity:1" fill="#90b8a2" d="M 420.5,787.5 C 421.485,791.634 421.818,795.968 421.5,800.5C 411.652,800.827 401.986,800.494 392.5,799.5C 401.833,799.5 411.167,799.5 420.5,799.5C 420.5,795.5 420.5,791.5 420.5,787.5 Z"/></g>
<g><path style="opacity:1" fill="#90b8a2" d="M 392.5,807.5 C 401.986,806.506 411.652,806.173 421.5,806.5C 421.818,811.032 421.485,815.366 420.5,819.5C 420.5,815.5 420.5,811.5 420.5,807.5C 411.167,807.5 401.833,807.5 392.5,807.5 Z"/></g>
<g><path style="opacity:1" fill="#217245" d="M 392.5,807.5 C 401.833,807.5 411.167,807.5 420.5,807.5C 420.5,811.5 420.5,815.5 420.5,819.5C 411.167,819.5 401.833,819.5 392.5,819.5C 392.5,815.5 392.5,811.5 392.5,807.5 Z"/></g>
<g><path style="opacity:1" fill="#829cc3" d="M 160.5,817.5 C 160.5,822.167 160.5,826.833 160.5,831.5C 183.167,831.5 205.833,831.5 228.5,831.5C 205.673,832.498 182.673,832.831 159.5,832.5C 159.179,827.305 159.513,822.305 160.5,817.5 Z"/></g>
<g><path style="opacity:1" fill="#ae8bb5" d="M 1215.5,817.5 C 1215.5,822.167 1215.5,826.833 1215.5,831.5C 1233.17,831.5 1250.83,831.5 1268.5,831.5C 1250.67,832.497 1232.67,832.83 1214.5,832.5C 1214.18,827.305 1214.51,822.305 1215.5,817.5 Z"/></g>
</svg>
