<?xml version="1.0" encoding="UTF-8"?>
<!DOCTYPE svg PUBLIC "-//W3C//DTD SVG 1.1//EN" "http://www.w3.org/Graphics/SVG/1.1/DTD/svg11.dtd">
<svg xmlns="http://www.w3.org/2000/svg" version="1.1" width="459px" height="110px" style="shape-rendering:geometricPrecision; text-rendering:geometricPrecision; image-rendering:optimizeQuality; fill-rule:evenodd; clip-rule:evenodd" xmlns:xlink="http://www.w3.org/1999/xlink">
<g><path style="opacity:1" fill="#fdfdfd" d="M -0.5,-0.5 C 152.5,-0.5 305.5,-0.5 458.5,-0.5C 458.5,36.1667 458.5,72.8333 458.5,109.5C 305.5,109.5 152.5,109.5 -0.5,109.5C -0.5,72.8333 -0.5,36.1667 -0.5,-0.5 Z"/></g>
<g><path style="opacity:1" fill="#e7242c" d="M 56.5,5.5 C 59.5184,5.33537 62.5184,5.50204 65.5,6C 75,13.5 84.5,21 94,28.5C 92.5826,47.5124 90.7492,66.5124 88.5,85.5C 67.396,91.0896 46.396,97.0896 25.5,103.5C 14.3298,74.1546 7.32978,43.8212 4.5,12.5C 21.9896,10.3151 39.323,7.98175 56.5,5.5 Z"/></g>
<g><path style="opacity:1" fill="#fef7f7" d="M 59.5,10.5 C 60.8734,10.3433 62.2068,10.51 63.5,11C 71.1667,17.3333 78.8333,23.6667 86.5,30C 79.2665,32.0796 71.9332,33.413 64.5,34C 60.5,29.6667 56.5,25.3333 52.5,21C 40.3135,22.0259 28.1468,23.5259 16,25.5C 13.0993,23.8974 11.2659,21.3974 10.5,18C 26.9004,15.2445 43.2337,12.7445 59.5,10.5 Z"/></g>
<g><path style="opacity:1" fill="#302f3f" d="M 124.5,24.5 C 132.385,23.9526 139.885,25.2859 147,28.5C 147.3,32.568 146.8,36.568 145.5,40.5C 139.594,36.9766 133.26,35.8099 126.5,37C 123.689,40.2935 124.022,43.2935 127.5,46C 134.211,48.2352 140.544,51.2352 146.5,55C 153.661,65.2047 152.661,74.538 143.5,83C 132.789,86.3802 122.123,86.2136 111.5,82.5C 110.051,77.999 110.384,73.6657 112.5,69.5C 119.327,73.5406 126.66,75.0406 134.5,74C 138.035,71.1616 138.368,67.9949 135.5,64.5C 128.743,61.6224 122.076,58.4558 115.5,55C 106.429,41.2053 109.429,31.0386 124.5,24.5 Z"/></g>
<g><path style="opacity:1" fill="#313040" d="M 392.5,64.5 C 393.495,52.011 393.829,39.3443 393.5,26.5C 397.5,26.5 401.5,26.5 405.5,26.5C 405.171,40.0105 405.504,53.3438 406.5,66.5C 403.36,80.4515 394.526,87.1182 380,86.5C 367.054,85.8865 359.387,79.2198 357,66.5C 356.5,52.8374 356.333,39.1707 356.5,25.5C 361.5,25.5 366.5,25.5 371.5,25.5C 371.05,40.2387 371.55,54.9054 373,69.5C 376.66,73.3674 381.16,74.534 386.5,73C 389.848,71.144 391.848,68.3107 392.5,64.5 Z"/></g>
<g><path style="opacity:1" fill="#17152c" d="M 406.5,66.5 C 405.504,53.3438 405.171,40.0105 405.5,26.5C 401.5,26.5 397.5,26.5 393.5,26.5C 393.829,39.3443 393.495,52.011 392.5,64.5C 392.5,51.5 392.5,38.5 392.5,25.5C 397.167,25.5 401.833,25.5 406.5,25.5C 406.5,39.1667 406.5,52.8333 406.5,66.5 Z"/></g>
<g><path style="opacity:1" fill="#323141" d="M 168.5,25.5 C 170.316,36.4557 171.149,47.789 171,59.5C 175.203,54.262 179.036,48.762 182.5,43C 187.167,42.3333 191.833,42.3333 196.5,43C 191.532,49.1091 187.199,55.6091 183.5,62.5C 187.692,69.7118 192.026,76.8785 196.5,84C 192.149,85.6812 187.816,86.5146 183.5,86.5C 179.584,79.6652 175.417,72.9985 171,66.5C 170.5,72.8246 170.334,79.1579 170.5,85.5C 166.167,85.5 161.833,85.5 157.5,85.5C 157.333,66.8304 157.5,48.1637 158,29.5C 161.554,28.0417 165.054,26.7083 168.5,25.5 Z"/></g>
<g><path style="opacity:1" fill="#313040" d="M 254.5,25.5 C 255.5,25.5 256.5,25.5 257.5,25.5C 257.5,31.1667 257.5,36.8333 257.5,42.5C 260.167,42.5 262.833,42.5 265.5,42.5C 266.114,46.1352 266.448,49.8019 266.5,53.5C 263.5,53.5 260.5,53.5 257.5,53.5C 257.334,59.8421 257.5,66.1754 258,72.5C 260.135,74.2785 262.635,74.9452 265.5,74.5C 265.952,77.876 266.618,81.2094 267.5,84.5C 262.198,85.6628 256.864,85.8295 251.5,85C 248.272,83.4371 246.105,80.9371 245,77.5C 244.5,69.5069 244.334,61.5069 244.5,53.5C 242.833,53.5 241.167,53.5 239.5,53.5C 238.949,50.1933 238.616,46.8599 238.5,43.5C 240.5,43.5 242.5,43.5 244.5,43.5C 244.5,38.5 244.5,33.5 244.5,28.5C 248.116,28.1007 251.45,27.1007 254.5,25.5 Z"/></g>
<g><path style="opacity:1" fill="#2e2d3e" d="M 323.5,84.5 C 319.5,84.5 315.5,84.5 311.5,84.5C 311.5,65.8333 311.5,47.1667 311.5,28.5C 315.211,27.7081 318.878,26.7081 322.5,25.5C 323.167,32.8333 323.833,40.1667 324.5,47.5C 332.106,40.9149 339.606,40.9149 347,47.5C 348.441,60.092 348.941,72.7586 348.5,85.5C 344.167,85.5 339.833,85.5 335.5,85.5C 335.666,75.4944 335.5,65.4944 335,55.5C 331.136,52.7504 327.469,53.0837 324,56.5C 323.5,65.8274 323.334,75.1607 323.5,84.5 Z"/></g>
<g><path style="opacity:1" fill="#5f5e68" d="M 311.5,28.5 C 311.5,47.1667 311.5,65.8333 311.5,84.5C 315.5,84.5 319.5,84.5 323.5,84.5C 319.366,85.4849 315.032,85.8182 310.5,85.5C 310.17,66.326 310.503,47.326 311.5,28.5 Z"/></g>
<g><path style="opacity:1" fill="#fef8f8" d="M 48.5,35.5 C 49.8734,35.3433 51.2068,35.51 52.5,36C 56.8799,40.7114 60.8799,45.7114 64.5,51C 57.7973,53.7403 50.7973,55.0736 43.5,55C 42.2062,52.913 41.0395,50.7463 40,48.5C 39.2753,47.9415 38.4419,47.6082 37.5,47.5C 31.5888,49.6218 25.5888,50.2885 19.5,49.5C 18.6948,47.0846 17.6948,44.7513 16.5,42.5C 27.1585,39.7279 37.8252,37.3946 48.5,35.5 Z"/></g>
<g><path style="opacity:1" fill="#2f2d3e" d="M 210.5,42.5 C 228.437,41.1037 236.77,49.4371 235.5,67.5C 227.167,67.5 218.833,67.5 210.5,67.5C 211.221,74.7036 215.221,77.8703 222.5,77C 226.325,76.2944 229.992,75.1277 233.5,73.5C 237.05,78.4808 236.05,81.9808 230.5,84C 206.503,90.3339 195.669,81.1673 198,56.5C 199.926,49.7448 204.093,45.0781 210.5,42.5 Z"/></g>
<g><path style="opacity:1" fill="#302f40" d="M 283.5,42.5 C 288.511,42.3341 293.511,42.5007 298.5,43C 300.651,43.2649 302.318,44.2649 303.5,46C 302.782,49.4605 302.282,52.9605 302,56.5C 295.893,52.2541 290.226,52.5874 285,57.5C 281.022,68.7449 284.856,74.5783 296.5,75C 298.519,74.5503 300.352,73.717 302,72.5C 302.333,72.8333 302.667,73.1667 303,73.5C 303.218,76.4262 303.718,79.2595 304.5,82C 294.036,88.4624 284.202,87.629 275,79.5C 266.76,64.3619 269.594,52.0286 283.5,42.5 Z"/></g>
<g><path style="opacity:1" fill="#7a7a82" d="M 426.5,43.5 C 422.833,43.5 419.167,43.5 415.5,43.5C 415.5,63.1667 415.5,82.8333 415.5,102.5C 414.503,82.6736 414.17,62.6736 414.5,42.5C 418.702,42.1832 422.702,42.5166 426.5,43.5 Z"/></g>
<g><path style="opacity:1" fill="#2f2e3e" d="M 415.5,102.5 C 415.5,82.8333 415.5,63.1667 415.5,43.5C 419.167,43.5 422.833,43.5 426.5,43.5C 426.238,44.9778 426.571,46.3112 427.5,47.5C 433.906,41.9256 440.906,41.0923 448.5,45C 452.752,49.8443 454.752,55.5109 454.5,62C 454.851,80.1582 446.184,87.6582 428.5,84.5C 427.506,89.456 427.173,94.456 427.5,99.5C 423.381,100.097 419.381,101.097 415.5,102.5 Z"/></g>
<g><path style="opacity:1" fill="#f2f2f3" d="M 213.5,50.5 C 220.433,50.0992 223.766,53.4325 223.5,60.5C 218.833,60.5 214.167,60.5 209.5,60.5C 209.731,56.7073 211.065,53.3739 213.5,50.5 Z"/></g>
<g><path style="opacity:1" fill="#f6f6f7" d="M 432.5,53.5 C 436.683,52.8456 439.516,54.5123 441,58.5C 441.667,62.1667 441.667,65.8333 441,69.5C 440.654,71.8477 439.487,73.6811 437.5,75C 434.24,75.7835 431.073,75.6168 428,74.5C 427.333,68.8333 427.333,63.1667 428,57.5C 429.397,55.9297 430.897,54.5964 432.5,53.5 Z"/></g>
<g><path style="opacity:1" fill="#fef6f6" d="M 36.5,64.5 C 38.288,64.2148 39.9547,64.5481 41.5,65.5C 42.7061,68.0794 44.0394,70.5794 45.5,73C 38.9136,75.1465 32.2469,76.9798 25.5,78.5C 25.0015,75.1714 24.0015,72.0047 22.5,69C 27.1733,67.3062 31.84,65.8062 36.5,64.5 Z"/></g>
</svg>
